<svg width="80" height="83" viewBox="0 0 80 83" fill="none" xmlns="http://www.w3.org/2000/svg">
<g clip-path="url(#clip0_100_190)">
<path fill-rule="evenodd" clip-rule="evenodd" d="M47.1812 14.8041C46.4855 14.8354 45.7977 14.7904 45.1177 14.6732C44.8461 14.6419 44.5823 14.5833 44.3263 14.4973C43.9667 14.4074 43.615 14.2902 43.273 14.1456C42.5246 15.8769 41.7782 17.6043 41.0317 19.3298C40.1289 21.5574 39.191 23.7675 38.2217 25.9619C37.8876 26.8334 37.528 27.6971 37.145 28.553C37.0552 28.594 36.9594 28.6077 36.8597 28.596C36.3615 28.596 35.8632 28.596 35.3668 28.596C34.4289 28.596 33.4929 28.596 32.5549 28.596C31.9257 28.6116 31.2945 28.596 30.6673 28.553C31.2867 27.066 31.9159 25.5867 32.5549 24.1173C33.4753 21.8955 34.4132 19.6854 35.3668 17.4851C35.8397 16.299 36.3361 15.1285 36.8597 13.9697C37.2916 12.8735 37.7449 11.7909 38.2217 10.7201C39.1421 8.49832 40.0801 6.28826 41.0317 4.08797C41.6101 2.41137 42.7083 1.21157 44.3263 0.486603C44.5725 0.35568 44.8363 0.267747 45.1177 0.222803C45.3952 0.121191 45.6883 0.0547524 45.9951 0.0254412C46.3898 0.00199232 46.7865 -0.00386991 47.1812 0.00199232C47.6599 0.0469361 48.1289 0.140732 48.5862 0.289242C49.0708 0.486603 49.5534 0.683965 50.0361 0.881327C50.9955 1.27996 51.9472 1.69031 52.891 2.11044C53.5358 2.37424 54.1807 2.63804 54.8236 2.90184C55.3023 3.11875 55.785 3.32392 56.2735 3.51738C57.229 3.92773 58.1807 4.33809 59.1284 4.74649C60.1152 5.14512 61.0962 5.55352 62.0712 5.97561C62.4816 6.15147 62.892 6.32734 63.3023 6.50321C63.8573 6.7377 64.4142 6.97218 64.9711 7.20667C66.1377 7.68738 67.2945 8.18567 68.4396 8.69959C69.4674 9.08845 70.4777 9.51444 71.4704 9.97365C71.6658 10.0342 71.8573 10.1085 72.0429 10.1925C72.7346 10.4798 73.4225 10.7807 74.1064 11.0933C76.3927 12.5139 77.3814 14.5696 77.0707 17.2643C77.0102 17.6571 76.9066 18.0362 76.7639 18.4074C75.2359 21.7997 73.7215 25.1959 72.2188 28.596C72.1601 28.596 72.1015 28.596 72.0429 28.596C71.8514 28.596 71.6618 28.596 71.4704 28.596C70.4601 28.596 69.4498 28.596 68.4396 28.596C67.6208 28.6038 66.8001 28.596 65.9814 28.5745C66.5598 27.2321 67.1303 25.8857 67.6931 24.5335C66.8451 24.1094 66.0536 23.5975 65.3228 22.9976C65.1958 22.8784 65.0786 22.7533 64.9711 22.6224C64.2618 21.9736 63.7049 21.2115 63.3023 20.34C62.3214 18.4172 62.0654 16.3967 62.5324 14.2785C62.6379 13.7939 62.7923 13.3249 62.9936 12.8715C62.677 12.7367 62.3702 12.5902 62.0712 12.4338C61.0727 12.0567 60.0918 11.6463 59.1284 11.2028C58.1729 10.8159 57.2212 10.4211 56.2735 10.0166C55.8495 9.83491 55.4254 9.65122 54.9994 9.46754C54.9369 9.44214 54.8783 9.44995 54.8236 9.49099C54.3761 10.5638 53.7312 11.4998 52.891 12.301C52.0683 13.1158 51.1167 13.745 50.0361 14.1905C49.1196 14.552 48.168 14.7572 47.1812 14.8041ZM72.0429 68.5237C73.741 68.5237 75.4391 68.5237 77.1372 68.5237C77.145 70.6751 77.1372 72.8285 77.1157 74.9799C76.7268 78.2921 75.0365 80.6643 72.0429 82.0947C71.8573 82.1807 71.6658 82.255 71.4704 82.3155C70.4933 82.6653 69.4831 82.8412 68.4396 82.8431C67.2847 82.8431 66.1279 82.8431 64.9711 82.8431C64.4142 82.8431 63.8573 82.8431 63.3023 82.8431C62.892 82.8431 62.4816 82.8431 62.0712 82.8431C61.0903 82.8431 60.1093 82.8431 59.1284 82.8431C58.1768 82.8431 57.2251 82.8431 56.2735 82.8431C55.7908 82.8431 55.3082 82.8431 54.8236 82.8431C54.1807 82.8431 53.5358 82.8431 52.891 82.8431C51.9394 82.8431 50.9877 82.8431 50.0361 82.8431C49.0844 82.8431 48.1328 82.8431 47.1812 82.8431C46.4933 82.8431 45.8055 82.8431 45.1177 82.8431C44.8539 82.8431 44.5901 82.8431 44.3263 82.8431C43.2281 82.8431 42.1299 82.8431 41.0317 82.8431C40.0957 82.8431 39.1577 82.8431 38.2217 82.8431C37.7664 82.8431 37.3131 82.8431 36.8597 82.8431C36.3615 82.8431 35.8632 82.8431 35.3668 82.8431C34.4289 82.8431 33.4929 82.8431 32.5549 82.8431C31.4567 82.8431 30.3585 82.8431 29.2603 82.8431C29.0415 82.8431 28.8207 82.8431 28.6018 82.8431C27.8847 82.8431 27.1675 82.8431 26.4504 82.8431C25.5281 82.8431 24.6057 82.8431 23.6834 82.8431C22.7318 82.8431 21.7801 82.8431 20.8265 82.8431C20.7113 82.8431 20.594 82.8431 20.4768 82.8431C19.5095 82.8431 18.5442 82.8431 17.5769 82.8431C16.6546 82.8431 15.7323 82.8431 14.8099 82.8431C13.8739 82.8431 12.936 82.8431 11.998 82.8431C11.6482 82.8431 11.2965 82.8431 10.9448 82.8431C10.3742 82.8431 9.8036 82.8431 9.23106 82.8431C5.72935 82.9252 3.04249 81.5046 1.17244 78.5813C0.498286 77.3952 0.117241 76.1231 0.0293076 74.7611C-3.56929e-06 60.1348 -3.56929e-06 45.5066 0.0293076 30.8803C0.35173 27.5916 1.96971 25.1842 4.88323 23.6561C6.26281 23.0152 7.71274 22.7455 9.23106 22.8432C9.8036 22.8432 10.3742 22.8432 10.9448 22.8432C11.2965 22.8432 11.6482 22.8432 11.998 22.8432C12.7758 22.8432 13.5515 22.8432 14.3273 22.8432C14.3273 24.7601 14.3273 26.6791 14.3273 28.596C13.5515 28.596 12.7758 28.596 11.998 28.596C11.6482 28.596 11.2965 28.596 10.9448 28.596C10.3371 28.5491 9.76647 28.6663 9.23106 28.9477C8.4123 29.6375 8.4123 30.3273 9.23106 31.0132C9.76452 31.2946 10.3371 31.4275 10.9448 31.4079C11.2965 31.4079 11.6482 31.4079 11.998 31.4079C12.936 31.4079 13.8739 31.4079 14.8099 31.4079C15.7323 31.4079 16.6546 31.4079 17.5769 31.4079C18.5442 31.4079 19.5095 31.4079 20.4768 31.4079C20.594 31.4079 20.7113 31.4079 20.8265 31.4079C21.7801 31.4079 22.7318 31.4079 23.6834 31.4079C24.6057 31.4079 25.5281 31.4079 26.4504 31.4079C27.1675 31.4079 27.8847 31.4079 28.6018 31.4079C28.8207 31.4079 29.0415 31.4079 29.2603 31.4079C30.3585 31.4079 31.4567 31.4079 32.5549 31.4079C33.4929 31.4079 34.4289 31.4079 35.3668 31.4079C35.8632 31.4079 36.3615 31.4079 36.8597 31.4079C37.3131 31.4079 37.7664 31.4079 38.2217 31.4079C39.1577 31.4079 40.0957 31.4079 41.0317 31.4079C42.1299 31.4079 43.2281 31.4079 44.3263 31.4079C44.5901 31.4079 44.8539 31.4079 45.1177 31.4079C45.8055 31.4079 46.4933 31.4079 47.1812 31.4079C48.1328 31.4079 49.0844 31.4079 50.0361 31.4079C50.9877 31.4079 51.9394 31.4079 52.891 31.4079C53.5358 31.4079 54.1807 31.4079 54.8236 31.4079C55.3082 31.4079 55.7908 31.4079 56.2735 31.4079C57.2251 31.4079 58.1768 31.4079 59.1284 31.4079C60.1093 31.4079 61.0903 31.4079 62.0712 31.4079C62.4816 31.4079 62.892 31.4079 63.3023 31.4079C63.8573 31.4079 64.4142 31.4079 64.9711 31.4079C66.1279 31.4079 67.2847 31.4079 68.4396 31.4079C69.4811 31.3845 70.4914 31.5447 71.4704 31.8906C71.6579 31.9726 71.8475 32.0469 72.0429 32.1114C75.017 33.5574 76.7073 35.9297 77.1157 39.2262C77.1372 41.3932 77.145 43.5603 77.1372 45.7274C75.4391 45.7274 73.741 45.7274 72.0429 45.7274C71.8514 45.7274 71.6618 45.7274 71.4704 45.7274C70.4601 45.7274 69.4498 45.7274 68.4396 45.7274C67.2847 45.7274 66.1279 45.7274 64.9711 45.7274C64.4142 45.7274 63.8573 45.7274 63.3023 45.7274C62.892 45.7274 62.4816 45.7274 62.0712 45.7274C61.0688 45.7352 60.0879 45.8818 59.1284 46.1671C58.1162 46.4602 57.1646 46.8842 56.2735 47.4392C55.7654 47.7577 55.2828 48.1094 54.8236 48.4944C54.083 49.1314 53.4401 49.8485 52.891 50.6458C50.8959 53.6746 50.3898 56.9399 51.3766 60.4416C51.7303 61.575 52.2344 62.6282 52.891 63.6033C53.4714 64.3751 54.1162 65.0923 54.8236 65.7567C55.3004 66.1182 55.783 66.4699 56.2735 66.8099C57.1782 67.3434 58.1299 67.7674 59.1284 68.084C60.0937 68.338 61.0747 68.4826 62.0712 68.5237C62.4816 68.5237 62.892 68.5237 63.3023 68.5237C63.8573 68.5237 64.4142 68.5237 64.9711 68.5237C66.1279 68.5237 67.2847 68.5237 68.4396 68.5237C69.4498 68.5237 70.4601 68.5237 71.4704 68.5237C71.6618 68.5237 71.8514 68.5237 72.0429 68.5237ZM63.3023 59.3434C63.7791 59.8026 64.336 60.1231 64.9711 60.3087C66.4171 60.5295 67.5739 60.0625 68.4396 58.9037C69.1431 57.7039 69.1431 56.5041 68.4396 55.3024C67.5642 54.1514 66.4073 53.6961 64.9711 53.9404C64.3204 54.1045 63.7635 54.4269 63.3023 54.9076C62.1299 56.3849 62.1299 57.8642 63.3023 59.3434ZM64.9711 65.7117C64.4142 65.7117 63.8573 65.7117 63.3023 65.7117C62.8881 65.7078 62.4796 65.6785 62.0712 65.6238C61.0239 65.5124 60.0429 65.2056 59.1284 64.7015C57.9755 64.1172 57.0239 63.2985 56.2735 62.2432C55.5642 61.3483 55.0815 60.338 54.8236 59.2125C54.6243 58.5285 54.5363 57.827 54.5598 57.104C54.5422 56.381 54.6301 55.6776 54.8236 54.9956C55.0854 53.872 55.5681 52.8617 56.2735 51.9648C57.0356 50.9233 57.9872 50.1045 59.1284 49.5046C60.0507 49.0141 61.0317 48.7074 62.0712 48.5823C62.4796 48.5452 62.89 48.5315 63.3023 48.5374C63.8573 48.5374 64.4142 48.5374 64.9711 48.5374C66.1279 48.5374 67.2847 48.5374 68.4396 48.5374C69.4498 48.5374 70.4601 48.5374 71.4704 48.5374C71.6618 48.5374 71.8514 48.5374 72.0429 48.5374C73.9012 48.5315 75.7615 48.5374 77.6198 48.5608C78.9212 48.85 79.7048 49.6492 79.9706 50.9545C79.9999 55.0542 79.9999 59.1539 79.9706 63.2516C79.7126 64.5198 78.9584 65.319 77.7078 65.6473C75.8201 65.7098 73.9325 65.7332 72.0429 65.7117C71.8514 65.7117 71.6618 65.7117 71.4704 65.7117C70.4601 65.7117 69.4498 65.7117 68.4396 65.7117C67.2847 65.7117 66.1279 65.7117 64.9711 65.7117ZM17.5769 28.553C17.53 28.5589 17.487 28.553 17.446 28.5315C17.4909 28.3009 17.5359 28.0723 17.5769 27.8495C18.3019 22.2257 19.0425 16.6038 19.7948 10.9839C19.8866 10.2453 20.1153 9.55743 20.4768 8.91844C20.5608 8.70741 20.678 8.51591 20.8265 8.34785C21.5476 7.32001 22.4992 6.58919 23.6834 6.15147C24.5549 5.85054 25.4479 5.76261 26.3624 5.88767C26.1104 6.41527 25.8993 6.95655 25.7254 7.51346C25.0552 10.0694 24.3752 12.6175 23.6834 15.1559C22.7572 18.7689 21.8055 22.3723 20.8265 25.9619C20.7367 26.4133 20.6194 26.851 20.4768 27.279C20.381 27.7049 20.2775 28.1309 20.168 28.553C19.3043 28.553 18.4406 28.553 17.5769 28.553ZM59.1284 23.8964C60.5021 25.1959 61.4401 26.7611 61.9403 28.596C61.0024 28.596 60.0664 28.596 59.1284 28.596C58.1768 28.596 57.2251 28.596 56.2735 28.596C55.7908 28.596 55.3082 28.596 54.8236 28.596C54.1807 28.596 53.5358 28.596 52.891 28.596C51.9394 28.596 50.9877 28.596 50.0361 28.596C49.0844 28.596 48.1328 28.596 47.1812 28.596C46.4933 28.596 45.8055 28.596 45.1177 28.596C44.8539 28.596 44.5901 28.596 44.3263 28.596C43.5368 28.596 42.7454 28.596 41.954 28.596C41.954 26.4016 42.7454 24.5569 44.3263 23.0621C44.5627 22.8119 44.8265 22.5911 45.1177 22.4035C45.743 21.9228 46.4308 21.5418 47.1812 21.2623C48.1016 20.9106 49.0532 20.6918 50.0361 20.6038C50.9936 20.5393 51.9452 20.5843 52.891 20.7347C53.5593 20.8422 54.2022 21.0181 54.8236 21.2623C55.3355 21.4069 55.8182 21.6121 56.2735 21.8759C57.3482 22.3801 58.2999 23.0542 59.1284 23.8964ZM26.4504 28.596C25.6277 28.6077 24.809 28.5784 23.9902 28.51C24.805 25.4421 25.6238 22.382 26.4504 19.3298C27.1402 16.5941 27.8573 13.8701 28.6018 11.1598C28.7953 10.3273 29.0141 9.50858 29.2603 8.69959C29.444 7.30829 29.9638 6.06354 30.8197 4.96535C31.318 4.40257 31.8964 3.94923 32.5549 3.60531C33.4284 3.13633 34.3663 2.9038 35.3668 2.90184C35.8808 2.89793 36.379 2.97219 36.8597 3.1207C37.1392 3.17346 37.4186 3.23208 37.6941 3.29657C37.4147 3.94337 37.1372 4.58821 36.8597 5.22915C36.3849 6.41332 35.8866 7.58576 35.3668 8.74258C34.4621 10.9722 33.5261 13.1822 32.5549 15.3767C31.4802 17.9951 30.382 20.5999 29.2603 23.1949C29.0669 23.7206 28.8461 24.2325 28.6018 24.7308C28.0742 26.0205 27.5486 27.3083 27.021 28.596C26.8295 28.596 26.6399 28.596 26.4504 28.596Z" fill="#EF7605" fill-opacity="0.996078"/>
</g>
<defs>
<clipPath id="clip0_100_190">
<rect width="80" height="82.845" fill="white"/>
</clipPath>
</defs>
</svg>
