<svg width="56" height="55" viewBox="0 0 56 55" fill="none" xmlns="http://www.w3.org/2000/svg">
<g clip-path="url(#clip0_1226_1941)">
<path d="M51.563 37.8125V30.9375H44.7551L41.3176 27.5L27.5332 41.25L30.938 44.6875C30.938 48.3072 30.938 51.4267 30.938 55C32.6568 55 36.0943 55 37.813 55C37.813 51.5625 37.813 48.6991 37.813 44.6875H44.688V55C46.4068 55 49.8443 55 51.563 55C51.563 51.5625 51.563 48.6991 51.563 44.6875L55.0005 41.25L51.563 37.8125Z" fill="#EF7605"/>
<path d="M20.6629 0H20.6595H20.6578C9.77635 0.0309375 1.60198 8.17438 0.281975 17.5948C0.106663 18.8375 0.00010004 19.9805 0.00010004 21.1028C-0.0119312 24.5386 1.06057 27.543 3.57682 31.9825C6.10166 36.4581 10.1476 42.6078 16.4829 52.812L16.5224 52.8756L16.5689 52.9375C17.5795 54.2884 19.1263 55 20.644 55H20.6612H20.6784C22.196 55 23.7429 54.2884 24.7518 52.9375L24.7965 52.8773L24.836 52.8138C26.2213 50.5828 27.4967 48.5444 28.6723 46.6744L25.7624 44.8456C24.6057 46.6864 23.3476 48.6956 21.9846 50.8887C21.6409 51.3339 21.1682 51.5453 20.6595 51.5591C20.1507 51.5453 19.6781 51.3339 19.3343 50.8887C13.0248 40.7309 8.97885 34.5658 6.5726 30.2947C4.14744 25.9703 3.44963 23.7909 3.4376 21.1028C3.4376 20.2022 3.52354 19.2191 3.6851 18.0727C4.78338 10.2798 11.5828 3.44438 20.6595 3.4375C29.7362 3.44438 36.5356 10.2798 37.6321 18.0727C37.7937 19.2191 37.8796 20.2022 37.8796 21.1028C37.8779 22.3162 37.7301 23.3888 37.3657 24.6142L40.6589 25.6008C41.1178 24.078 41.3189 22.6119 41.3171 21.1045C41.3171 19.9822 41.2106 18.8392 41.0353 17.5966C39.7153 8.17438 31.5409 0.0309375 20.6629 0Z" fill="#EF7605"/>
<path d="M13.8164 20.625C13.8198 24.42 16.8964 27.4966 20.6914 27.5C24.4864 27.4966 27.563 24.42 27.5664 20.625C27.563 16.83 24.4864 13.7534 20.6914 13.75C16.8964 13.7534 13.8198 16.83 13.8164 20.625ZM24.1289 20.625C24.1255 22.5156 22.582 24.0591 20.6914 24.0625C18.8008 24.0591 17.2573 22.5156 17.2539 20.625C17.2573 18.7344 18.8008 17.1909 20.6914 17.1875C22.5837 17.1909 24.1272 18.7344 24.1289 20.625Z" fill="#EF7605"/>
</g>
<defs>
<clipPath id="clip0_1226_1941">
<rect width="55.0705" height="55" fill="white"/>
</clipPath>
</defs>
</svg>
