<svg width="55" height="55" viewBox="0 0 55 55" fill="none" xmlns="http://www.w3.org/2000/svg">
<g clip-path="url(#clip0_1226_1921)">
<path d="M25.7812 48.125H29.2188V44.6875H25.7812V48.125ZM27.5 6.875C26.5513 6.875 25.7812 7.645 25.7812 8.59375V25.8225H12.0312C11.0825 25.8225 10.3125 26.5925 10.3125 27.5413C10.3125 28.49 11.0825 29.26 12.0312 29.26H27.5C28.4488 29.26 29.2188 28.49 29.2188 27.5413V8.59375C29.2188 7.645 28.4488 6.875 27.5 6.875ZM11.5724 39.2425L13.9511 41.6264L16.3299 39.2425L13.9511 36.8586L11.5724 39.2425ZM16.6598 14.3051L14.2277 11.8749L11.7974 14.3051L14.2277 16.7355L16.6598 14.3051ZM37.9431 14.2192L40.3219 16.6031L42.7007 14.2192L40.3219 11.8353L37.9431 14.2192ZM37.4395 39.1497L39.8699 41.58L42.3002 39.1497L39.8699 36.7194L37.4395 39.1497ZM44.6875 25.7812V29.2188H48.125V25.7812H44.6875ZM27.5 0C12.3114 0 0 12.3132 0 27.5C0 42.6886 12.3114 55 27.5 55C42.6886 55 55 42.6868 55 27.5C55 12.3132 42.6886 0 27.5 0ZM27.5 51.5625C14.2106 51.5625 3.4375 40.7894 3.4375 27.5C3.4375 14.2106 14.2106 3.4375 27.5 3.4375C40.7894 3.4375 51.5625 14.2106 51.5625 27.5C51.5625 40.7894 40.7894 51.5625 27.5 51.5625Z" fill="#EF7605"/>
</g>
<defs>
<clipPath id="clip0_1226_1921">
<rect width="55" height="55" fill="white"/>
</clipPath>
</defs>
</svg>
