<svg width="56" height="55" viewBox="0 0 56 55" fill="none" xmlns="http://www.w3.org/2000/svg">
<path d="M54.4817 21.0801C54.4817 21.0671 54.4688 21.0671 54.4688 21.0542C54.2097 20.5878 53.8728 20.1861 53.4582 19.8492L48.3793 15.7291V9.17314C48.3793 6.85395 46.4876 4.96231 44.1684 4.96231H35.1249L30.1625 0.932862C28.6207 -0.310954 26.3922 -0.310954 24.8504 0.932862L19.8881 4.96231H10.8445C8.52532 4.96231 6.63369 6.85395 6.63369 9.17314V15.7291L1.55477 19.8492C1.14016 20.1861 0.803298 20.5878 0.54417 21.0542C0.54417 21.0671 0.531213 21.0671 0.531213 21.0801C0.18139 21.702 0 22.4146 0 23.1272V50.7892C0 51.9682 0.492344 53.0954 1.36042 53.8858C2.13781 54.5984 3.14841 55 4.21084 55H50.8021C51.8645 55 52.8751 54.6113 53.6525 53.8858C54.5206 53.0954 55.013 51.9552 55.013 50.7892V23.1272C55.013 22.4146 54.8316 21.715 54.4817 21.0801ZM35.3969 37.6254L53.0695 23.2697V50.7892C53.0695 51.1519 52.9918 51.4888 52.8363 51.7998L35.3969 37.6254ZM10.8445 6.90577H20.225H20.2379H44.1684C45.4123 6.90577 46.4358 7.92933 46.4358 9.17314V26.159L33.8551 36.3687L30.1625 33.3628C28.6207 32.119 26.3922 32.119 24.8504 33.3628L21.1578 36.3816L8.57715 26.159V9.17314C8.57715 7.92933 9.60071 6.90577 10.8445 6.90577ZM2.17668 51.7998C2.0212 51.4888 1.94346 51.1519 1.94346 50.7892V23.2697L19.616 37.6254L2.17668 51.7998ZM50.8021 53.0565H4.21084C4.05536 53.0565 3.91284 53.0436 3.75736 53.0177L26.0813 34.8787C26.9105 34.2049 28.1154 34.2049 28.9446 34.8787L51.2556 53.0177C51.1001 53.0436 50.9576 53.0565 50.8021 53.0565Z" fill="#EF7605"/>
<path d="M22.0399 31.9765C22.1954 32.0672 22.3638 32.106 22.5193 32.106C22.8561 32.106 23.18 31.9376 23.3614 31.6266C23.6335 31.1602 23.4651 30.5642 23.0116 30.3051C20.2389 28.6985 18.5157 25.7185 18.5157 22.5312C18.5157 20.0954 19.4745 17.8151 21.2236 16.1048C22.9727 14.4076 25.266 13.4876 27.7148 13.5524C32.405 13.669 36.2531 17.4134 36.4604 22.1037C36.4992 23.0624 36.3956 24.0083 36.1494 24.9152C35.8903 25.874 35.0093 26.5348 34.0116 26.5348C32.7807 26.5348 31.7831 25.5371 31.7831 24.3063V19.2014C31.7831 18.6702 31.3426 18.2297 30.8114 18.2297C30.3579 18.2297 29.9822 18.5407 29.8785 18.9553C29.1918 18.5018 28.3756 18.2297 27.4945 18.2297C25.1235 18.2297 23.206 20.1472 23.206 22.5183C23.206 24.8893 25.1235 26.8068 27.4945 26.8068C28.4922 26.8068 29.425 26.457 30.1506 25.8869C30.7725 27.4028 32.2754 28.4653 34.0116 28.4653C35.8903 28.4653 37.5358 27.2085 38.0281 25.4205C38.3261 24.3192 38.4557 23.1661 38.4038 22.013C38.1447 16.3121 33.4674 11.7385 27.7537 11.609C24.7866 11.5442 21.9751 12.6455 19.8632 14.7185C17.7383 16.7915 16.5723 19.5642 16.5723 22.5312C16.5852 26.4052 18.6712 30.033 22.0399 31.9765ZM27.5075 24.8634C26.2118 24.8634 25.1624 23.8139 25.1624 22.5183C25.1624 21.2226 26.2118 20.1732 27.5075 20.1732C28.8031 20.1732 29.8526 21.2226 29.8526 22.5183C29.8526 23.8139 28.8031 24.8634 27.5075 24.8634Z" fill="#EF7605"/>
</svg>
