<svg width="55" height="48" viewBox="0 0 55 48" fill="none" xmlns="http://www.w3.org/2000/svg">
<path fill-rule="evenodd" clip-rule="evenodd" d="M21.9946 0.0449002C27.173 -0.214914 31.9572 1.01248 36.3382 3.73606C36.9205 4.1213 37.476 4.54238 38.0135 4.99033C37.4401 5.8952 36.8309 6.76424 36.1859 7.60639C30.8821 3.65542 24.9959 2.42802 18.5095 3.91524C13.5462 5.32182 9.59521 8.13498 6.65662 12.3458C2.84899 18.438 2.24873 24.8437 4.85584 31.5541C7.59733 37.5746 12.1486 41.4987 18.5095 43.3443C25.2647 44.8763 31.3211 43.4966 36.6965 39.2052C41.7136 34.7704 44.1236 29.1799 43.9265 22.4337C43.7742 19.8177 43.1381 17.336 42.0093 14.9887C41.9555 14.8991 41.9734 14.8185 42.0362 14.7468C42.7977 13.9584 43.5682 13.179 44.3476 12.4085C46.7397 16.8074 47.6356 21.5109 47.0443 26.5101C45.7631 34.8331 41.409 40.9433 33.9909 44.8494C28.0062 47.6357 21.8871 47.9762 15.6247 45.8708C8.86952 43.2905 4.15703 38.6318 1.49617 31.9125C-0.94967 24.9244 -0.394205 18.205 3.17152 11.7455C7.51669 4.75739 13.7881 0.86018 21.9946 0.0449002Z" fill="white"/>
<path fill-rule="evenodd" clip-rule="evenodd" d="M54.8835 0.0449219C54.9552 0.2689 55 0.519755 55 0.797487C55 1.0573 54.9821 1.31712 54.9373 1.57693C54.0414 1.99801 53.1634 2.46388 52.3033 2.95663C47.1339 6.15504 42.5468 10.0612 38.5242 14.6841C32.8889 21.2959 28.4183 28.6424 25.1124 36.7146C20.4089 31.4466 15.7233 26.1697 11.0645 20.8659C12.8205 19.5937 14.5854 18.3126 16.3504 17.0314C19.1098 20.1671 21.8692 23.3117 24.6286 26.4474C29.153 19.2622 34.7166 12.964 41.3194 7.57954C44.2401 5.31288 47.3579 3.35083 50.6817 1.6934C52.0614 1.09314 53.468 0.537673 54.8835 0.0449219Z" fill="white"/>
</svg>
