<svg width="55" height="58" viewBox="0 0 55 58" fill="none" xmlns="http://www.w3.org/2000/svg">
<path fill-rule="evenodd" clip-rule="evenodd" d="M26.379 0.0897616C28.3677 -0.255204 29.9504 0.394143 31.0868 2.03781C31.9797 3.3365 32.8522 4.67578 33.7045 6.01506C33.9886 6.38032 34.2929 6.74558 34.6176 7.07025C36.7889 6.27886 38.9398 5.52805 41.1111 4.79753C43.7085 4.55403 45.3319 5.6498 46.0218 8.14573C46.0827 10.459 46.0015 12.7723 45.7783 15.0653C45.9406 15.3089 46.1638 15.4712 46.4479 15.5524C48.1728 16.0394 49.8773 16.5264 51.5818 17.0134C54.5242 18.0077 55.5591 19.976 54.6865 22.9184C53.2661 24.9273 51.7848 26.8551 50.2223 28.7422C51.1963 30.0815 52.2312 31.4005 53.327 32.6586C53.7531 33.2065 54.1386 33.7747 54.5039 34.3632C55.5997 37.204 54.7474 39.213 51.9674 40.3696C50.3643 40.8566 48.7612 41.3031 47.1379 41.7292C46.7117 41.8712 46.3059 42.0539 45.9203 42.2568C45.9 42.5409 45.8392 42.825 45.7783 43.0888C45.9203 44.1237 46.0015 45.1789 46.0218 46.234C46.0827 47.2689 46.0827 48.3038 46.0218 49.3387C45.2101 52.1188 43.3838 53.2145 40.5429 52.5855C38.676 51.8955 36.7889 51.2056 34.922 50.5563C34.78 50.4954 34.6582 50.4954 34.5365 50.5563C33.5624 51.7129 32.7102 52.971 31.9594 54.29C31.4723 54.9597 30.965 55.609 30.4577 56.2786C29.991 56.6236 29.504 56.9483 28.9967 57.2324C28.0024 57.4353 27.0081 57.4353 25.9935 57.2324C25.4862 56.9483 24.9992 56.6236 24.5527 56.2786C23.3352 54.7364 22.2394 53.1537 21.2451 51.4694C21.0016 51.1447 20.7581 50.8404 20.474 50.5563C19.7435 50.6577 19.0333 50.8606 18.3433 51.1244C16.6591 51.8753 14.9343 52.4434 13.1486 52.829C10.9164 52.6869 9.51627 51.51 8.98868 49.3387C8.96839 46.9848 9.00897 44.631 9.09014 42.2568C8.70459 42.0539 8.29875 41.8712 7.87261 41.7292C5.8434 41.2828 3.87506 40.6537 1.96761 39.8826C0.10073 38.5636 -0.447157 36.7982 0.364528 34.6067C1.48059 32.9021 2.71841 31.2787 4.0374 29.7568C4.28091 29.4525 4.50412 29.1075 4.66646 28.7422C3.63156 27.3218 2.55608 25.9013 1.41972 24.5215C0.993583 23.933 0.608033 23.3242 0.263067 22.6749C-0.447157 20.2398 0.303651 18.4541 2.53578 17.2975C4.68675 16.6887 6.81742 16.0394 8.9278 15.3697C9.02926 15.2683 9.13072 15.1668 9.23218 15.0653C9.00897 12.7723 8.9278 10.459 8.98868 8.14573C9.67861 5.60922 11.3426 4.49315 13.9805 4.79753C16.1112 5.54834 18.2419 6.29915 20.3726 7.07025C20.6972 6.74558 21.0016 6.38032 21.306 6.01506C22.2394 4.49315 23.254 3.01183 24.3092 1.55079C24.8774 0.881154 25.5673 0.414435 26.379 0.0897616ZM27.353 3.39738C27.7792 3.45825 28.1039 3.68147 28.3271 4.06702C29.5243 5.81214 30.7012 7.55726 31.8579 9.30238C32.9943 10.4185 34.3335 10.7431 35.8757 10.317C37.9049 9.54589 39.9342 8.81537 41.9837 8.14573C42.3083 8.18632 42.5113 8.34865 42.6127 8.63274C42.633 9.07917 42.6533 9.5256 42.6736 9.99232C42.5113 11.9607 42.4504 13.929 42.5316 15.8973C42.6939 16.7293 43.0997 17.4192 43.7288 17.9874C44.0332 18.2715 44.3984 18.515 44.8043 18.657C46.6306 19.2252 48.4771 19.7325 50.3237 20.2195C50.6484 20.3413 50.9731 20.463 51.2977 20.6051C51.4601 20.7066 51.5615 20.8486 51.5818 21.0312C51.4601 21.3762 51.318 21.7009 51.1557 22.0053C49.857 23.588 48.5989 25.2114 47.3611 26.8551C46.7117 28.0523 46.6711 29.2901 47.2799 30.5279C48.6801 32.3948 50.1005 34.2414 51.5413 36.0677C51.6021 36.4329 51.4804 36.7373 51.1963 36.9808C48.9236 37.6302 46.6711 38.2998 44.4187 39.01C43.5259 39.6188 42.8968 40.4102 42.5316 41.3842C42.4504 43.4337 42.5113 45.4629 42.6736 47.4922C42.6736 48.0197 42.633 48.5473 42.5316 49.0546C42.3895 49.2779 42.2069 49.3793 41.9431 49.3387C41.6996 49.3184 41.4561 49.2576 41.2126 49.1967C39.4066 48.5271 37.6006 47.8371 35.7946 47.1675C34.2524 46.7819 32.9131 47.1472 31.8173 48.2835C30.6404 49.9272 29.504 51.6115 28.4285 53.316C28.185 53.661 27.8806 53.9248 27.4951 54.0871C27.0487 53.8842 26.7037 53.5595 26.4399 53.1131C25.4456 51.5303 24.4107 49.9881 23.3352 48.4662C22.2394 47.1675 20.8596 46.7413 19.2159 47.1675C17.3896 47.8371 15.5836 48.5271 13.7776 49.1967C13.2094 49.4808 12.7427 49.3793 12.3775 48.8517C12.3572 48.4053 12.3369 47.9589 12.3369 47.4922C12.4992 45.5238 12.5398 43.5555 12.4789 41.5871C12.1745 40.3899 11.4846 39.4971 10.3888 38.9289C8.19729 38.2998 5.98545 37.6505 3.7939 36.9808C3.30689 36.5344 3.28659 36.0677 3.75331 35.5807C5.11288 33.937 6.45216 32.2528 7.73057 30.5279C8.31904 29.3104 8.29875 28.0726 7.66969 26.8551C6.20866 25.0897 4.8085 23.2634 3.46922 21.4168C3.36776 20.8892 3.57068 20.5645 4.09828 20.4022C6.18837 19.8137 8.29875 19.2049 10.3888 18.5556C11.444 17.9671 12.134 17.0743 12.4789 15.8973C12.5398 13.9493 12.4789 12.0215 12.3369 10.0735C12.3166 9.5256 12.3775 8.97771 12.4789 8.42982C12.8036 8.10515 13.1689 8.06456 13.595 8.28778C15.4213 8.95742 17.2679 9.64735 19.1144 10.317C20.5958 10.7431 21.9148 10.4387 23.0308 9.40384C24.2484 7.67901 25.4253 5.93389 26.5819 4.16848C26.8052 3.8641 27.069 3.62059 27.353 3.39738Z" fill="white"/>
<path fill-rule="evenodd" clip-rule="evenodd" d="M21.5341 16.7613C24.3547 16.4772 26.2825 17.6541 27.3174 20.2515C27.845 23.5997 26.4651 25.6898 23.1981 26.5015C20.9862 26.6232 19.3223 25.7304 18.2062 23.8432C17.1307 21.0835 17.8207 18.9122 20.276 17.2889C20.7022 17.0656 21.108 16.9033 21.5341 16.7613ZM22.1226 20.15C21.7776 20.4341 21.4733 20.7588 21.2095 21.1241C21.0471 21.7937 21.2298 22.3619 21.7371 22.8286C22.4473 23.275 23.1169 23.1939 23.7257 22.5851C24.3547 21.0023 23.8271 20.1906 22.1226 20.15Z" fill="white"/>
<path fill-rule="evenodd" clip-rule="evenodd" d="M33.1818 18.1208C34.9269 17.9585 35.6574 18.7296 35.3531 20.4544C31.1323 26.6029 26.8507 32.6703 22.569 38.6768C22.0009 39.3667 21.3109 39.5696 20.4789 39.3058C19.6064 38.7173 19.3629 37.9259 19.7484 36.9316C23.9083 30.8237 28.1494 24.7969 32.4513 18.7905C32.6745 18.547 32.918 18.3238 33.1818 18.1208Z" fill="white"/>
<path fill-rule="evenodd" clip-rule="evenodd" d="M32.0048 30.9049C35.1907 31.0672 36.9764 32.7109 37.3417 35.8562C37.017 38.8188 35.3733 40.4828 32.3904 40.8075C30.0974 40.6045 28.5146 39.4479 27.7029 37.3172C27.1347 33.8067 28.5755 31.676 32.0048 30.9049ZM32.3092 34.314C31.944 34.456 31.6193 34.659 31.2946 34.8822C30.8279 35.6736 30.9091 36.4041 31.5178 37.0737C32.431 37.5201 33.1412 37.3578 33.7094 36.5461C34.0341 35.3083 33.5673 34.5575 32.3092 34.314Z" fill="white"/>
</svg>
