<svg width="49" height="55" viewBox="0 0 49 55" fill="none" xmlns="http://www.w3.org/2000/svg">
<g clip-path="url(#clip0_1215_2218)">
<path opacity="0.994" fill-rule="evenodd" clip-rule="evenodd" d="M6.24453 -0.0114441C15.1056 -0.0114441 23.9667 -0.0114441 32.8279 -0.0114441C33.1366 0.0804508 33.3925 0.256145 33.5956 0.515639C37.1257 4.54219 40.6473 8.57552 44.1602 12.6156C44.2417 12.7738 44.2876 12.9419 44.2977 13.1198C44.3091 15.2969 44.313 17.4739 44.3091 19.6511C44.9056 19.6416 45.5015 19.653 46.0966 19.6854C47.5912 20.0075 48.4621 20.9203 48.7091 22.424C48.7091 27.9852 48.7091 33.5461 48.7091 39.1073C48.5281 40.29 47.894 41.1341 46.807 41.6396C46.4319 41.7895 46.0423 41.8658 45.6383 41.8688C45.1953 41.8802 44.7523 41.8841 44.3091 41.8802C44.313 45.6156 44.3091 49.3511 44.2977 53.0865C44.1109 54.1402 43.496 54.7741 42.4529 54.9886C30.3833 54.9886 18.314 54.9886 6.24453 54.9886C5.20134 54.7741 4.58642 54.1402 4.39974 53.0865C4.38828 49.3511 4.38445 45.6156 4.38828 41.8802C3.94516 41.8841 3.50209 41.8802 3.05911 41.8688C1.69236 41.795 0.733676 41.1343 0.183073 39.8865C0.0958163 39.6291 0.0308859 39.3695 -0.0117188 39.1073C-0.0117188 33.5461 -0.0117188 27.9852 -0.0117188 22.424C0.235309 20.9203 1.10614 20.0074 2.60078 19.6854C3.19597 19.653 3.79181 19.6416 4.38828 19.6511C4.38445 13.7309 4.38828 7.81077 4.39974 1.89064C4.58642 0.836997 5.20134 0.20297 6.24453 -0.0114441ZM6.56536 2.16564C14.8841 2.16564 23.2029 2.16564 31.5216 2.16564C31.5177 5.87814 31.5216 9.59064 31.5331 13.3031C31.6126 13.8182 31.9068 14.1352 32.4154 14.2542C35.6542 14.2656 38.8932 14.2695 42.132 14.2656C42.132 16.0608 42.132 17.8559 42.132 19.6511C30.2766 19.6511 18.4209 19.6511 6.56536 19.6511C6.56536 13.8226 6.56536 7.9941 6.56536 2.16564ZM8.9487 23.0656C9.67525 23.0551 10.4009 23.0741 11.1258 23.1229C12.1203 23.1882 13.0675 23.4328 13.9674 23.8563C15.424 24.6577 16.2451 25.8915 16.431 27.5573C16.5504 28.8015 16.2983 29.9624 15.6747 31.0406C15.0981 31.9005 14.3304 32.5307 13.3716 32.9313C12.3723 33.3328 11.3334 33.5466 10.2549 33.5729C9.67282 33.5961 9.09227 33.5771 8.51328 33.5156C8.51328 35.4331 8.51328 37.3503 8.51328 39.2677C7.31398 39.2677 6.11466 39.2677 4.91536 39.2677C4.91154 33.9815 4.91536 28.6956 4.92682 23.4094C5.40026 23.323 5.8777 23.2581 6.35911 23.2146C7.22454 23.1399 8.08774 23.0904 8.9487 23.0656ZM22.9049 23.0656C24.1885 23.0274 25.4643 23.1076 26.732 23.3063C28.5221 23.5881 30.0382 24.3788 31.281 25.6781C32.1085 26.6537 32.6356 27.7766 32.8622 29.0469C33.1769 30.883 33.024 32.678 32.4039 34.4323C31.4756 36.702 29.8294 38.1725 27.4654 38.8438C26.2673 39.1864 25.0449 39.3773 23.7987 39.4167C22.1275 39.4715 20.4622 39.3988 18.8029 39.199C18.799 33.9357 18.8029 28.6727 18.8143 23.4094C19.4019 23.3097 19.9939 23.2371 20.5904 23.1917C21.3647 23.1344 22.1363 23.0922 22.9049 23.0656ZM35.4404 23.1802C38.7099 23.1802 41.9792 23.1802 45.2487 23.1802C45.2487 24.1732 45.2487 25.1664 45.2487 26.1594C43.1862 26.1594 41.1237 26.1594 39.0612 26.1594C39.0612 27.3893 39.0612 28.619 39.0612 29.849C40.9938 29.849 42.9266 29.849 44.8591 29.849C44.8591 30.8344 44.8591 31.8198 44.8591 32.8052C42.9266 32.8052 40.9938 32.8052 39.0612 32.8052C39.0612 34.9594 39.0612 37.1136 39.0612 39.2677C37.8542 39.2677 36.6474 39.2677 35.4404 39.2677C35.4404 33.9052 35.4404 28.5427 35.4404 23.1802ZM6.56536 41.8802C18.4209 41.8802 30.2766 41.8802 42.132 41.8802C42.132 45.3331 42.132 48.7857 42.132 52.2386C30.2766 52.2386 18.4209 52.2386 6.56536 52.2386C6.56536 48.7857 6.56536 45.3331 6.56536 41.8802Z" fill="#D20100"/>
<path opacity="0.992" fill-rule="evenodd" clip-rule="evenodd" d="M9.54492 25.7927C10.2467 25.7407 10.9265 25.836 11.5845 26.0792C12.4582 26.5006 12.886 27.1996 12.8678 28.176C12.8222 29.5627 12.1194 30.4067 10.7595 30.7083C10.0115 30.841 9.26286 30.8449 8.51367 30.7198C8.51367 29.1232 8.51367 27.5268 8.51367 25.9302C8.85783 25.864 9.20158 25.8181 9.54492 25.7927Z" fill="#D20100"/>
<path opacity="0.996" fill-rule="evenodd" clip-rule="evenodd" d="M23.6384 25.8385C24.6337 25.7838 25.5962 25.9327 26.5259 26.2854C27.7655 26.8453 28.5712 27.7809 28.9436 29.0927C29.223 30.2821 29.2459 31.4737 29.0124 32.6677C28.48 35.0102 27.0172 36.3126 24.6238 36.575C24.0285 36.6105 23.4326 36.6181 22.8363 36.5979C22.7074 36.5915 22.5813 36.5725 22.4582 36.5406C22.4467 33.019 22.4429 29.4976 22.4467 25.976C22.8448 25.9089 23.242 25.863 23.6384 25.8385Z" fill="#D20100"/>
</g>
<defs>
<clipPath id="clip0_1215_2218">
<rect width="48.7208" height="55" fill="white"/>
</clipPath>
</defs>
</svg>
