<svg width="90" height="31" viewBox="0 0 90 31" fill="none" xmlns="http://www.w3.org/2000/svg">
<g clip-path="url(#clip0_1270_3193)">
<path d="M83.5649 3.68091H5.10114C3.63005 3.68091 2.4375 4.87346 2.4375 6.34455V15.8882C2.4375 17.3593 3.63005 18.5518 5.10114 18.5518H83.5649C85.036 18.5518 86.2285 17.3593 86.2285 15.8882V6.34455C86.2285 4.87346 85.036 3.68091 83.5649 3.68091Z" fill="#B2B3B3"/>
<path d="M76.3634 0.227554H70.059C69.2015 0.227554 68.5063 0.922712 68.5063 1.78023V4.47065C68.5063 5.32817 69.2015 6.02332 70.059 6.02332H76.3634C77.2209 6.02332 77.9161 5.32817 77.9161 4.47065V1.78023C77.9161 0.922712 77.2209 0.227554 76.3634 0.227554Z" fill="#B2B3B3"/>
<path d="M76.3771 0H70.0593C69.5775 0 69.1357 0.200777 68.8145 0.522021C68.4933 0.843264 68.2925 1.28497 68.2925 1.78022V4.45725C68.2925 4.9525 68.4933 5.39421 68.8145 5.71546C69.1357 6.0367 69.5775 6.23748 70.0593 6.23748H76.3771C76.859 6.23748 77.3007 6.0367 77.6219 5.71546C77.9432 5.39421 78.1439 4.9525 78.1439 4.45725V1.78022C78.1439 1.28497 77.9432 0.843264 77.6219 0.522021C77.3007 0.200777 76.859 0 76.3771 0ZM70.0593 0.44171H76.3771C76.7385 0.44171 77.0731 0.588946 77.3141 0.829879C77.555 1.07081 77.7022 1.40544 77.7022 1.78022V4.45725C77.7022 4.83204 77.555 5.16667 77.3141 5.4076C77.0731 5.64853 76.7385 5.79577 76.3771 5.79577H70.0593C69.6979 5.79577 69.3633 5.64853 69.1224 5.4076C68.8814 5.16667 68.7342 4.83204 68.7342 4.45725V1.78022C68.7342 1.40544 68.8814 1.07081 69.1224 0.829879C69.3633 0.588946 69.6979 0.44171 70.0593 0.44171Z" fill="#FEFEFE"/>
<path d="M65.923 0.227554H59.6186C58.7611 0.227554 58.0659 0.922712 58.0659 1.78023V4.47065C58.0659 5.32817 58.7611 6.02332 59.6186 6.02332H65.923C66.7805 6.02332 67.4757 5.32817 67.4757 4.47065V1.78023C67.4757 0.922712 66.7805 0.227554 65.923 0.227554Z" fill="#B2B3B3"/>
<path d="M65.923 0H59.6186C59.1234 0 58.6816 0.200777 58.3604 0.522021C58.0392 0.843264 57.8384 1.28497 57.8384 1.78022V4.45725C57.8384 4.9525 58.0392 5.39421 58.3604 5.71546C58.6816 6.0367 59.1234 6.23748 59.6186 6.23748H65.923C66.4183 6.23748 66.86 6.0367 67.1812 5.71546C67.5025 5.39421 67.7032 4.9525 67.7032 4.45725V1.78022C67.7032 1.28497 67.5025 0.843264 67.1812 0.522021C66.86 0.200777 66.4183 0 65.923 0ZM59.6186 0.44171H65.923C66.2978 0.44171 66.619 0.588946 66.86 0.829879C67.1009 1.07081 67.2615 1.40544 67.2615 1.78022V4.45725C67.2615 4.83204 67.1009 5.16667 66.86 5.4076C66.619 5.64853 66.2978 5.79577 65.923 5.79577H59.6186C59.2572 5.79577 58.9226 5.64853 58.6816 5.4076C58.4407 5.16667 58.2801 4.83204 58.2801 4.45725V1.78022C58.2801 1.40544 58.4407 1.07081 58.6816 0.829879C58.9226 0.588946 59.2572 0.44171 59.6186 0.44171Z" fill="#FEFEFE"/>
<path d="M76.3771 0H70.0593C69.5775 0 69.1357 0.200777 68.8145 0.522021C68.4933 0.843264 68.2925 1.28497 68.2925 1.78022V4.45725C68.2925 4.9525 68.4933 5.39421 68.8145 5.71546C69.1357 6.0367 69.5775 6.23748 70.0593 6.23748H76.3771C76.859 6.23748 77.3007 6.0367 77.6219 5.71546C77.9432 5.39421 78.1439 4.9525 78.1439 4.45725V1.78022C78.1439 1.28497 77.9432 0.843264 77.6219 0.522021C77.3007 0.200777 76.859 0 76.3771 0ZM70.0593 0.44171H76.3771C76.7385 0.44171 77.0731 0.588946 77.3141 0.829879C77.555 1.07081 77.7022 1.40544 77.7022 1.78022V4.45725C77.7022 4.83204 77.555 5.16667 77.3141 5.4076C77.0731 5.64853 76.7385 5.79577 76.3771 5.79577H70.0593C69.6979 5.79577 69.3633 5.64853 69.1224 5.4076C68.8814 5.16667 68.7342 4.83204 68.7342 4.45725V1.78022C68.7342 1.40544 68.8814 1.07081 69.1224 0.829879C69.3633 0.588946 69.6979 0.44171 70.0593 0.44171Z" fill="#FEFEFE"/>
<path d="M55.4826 0.227554H49.1782C48.3206 0.227554 47.6255 0.922712 47.6255 1.78023V4.47065C47.6255 5.32817 48.3206 6.02332 49.1782 6.02332H55.4826C56.3401 6.02332 57.0352 5.32817 57.0352 4.47065V1.78023C57.0352 0.922712 56.3401 0.227554 55.4826 0.227554Z" fill="#B2B3B3"/>
<path d="M55.4826 0H49.1782C48.6829 0 48.2412 0.200777 47.92 0.522021C47.5987 0.843264 47.3979 1.28497 47.3979 1.78022V4.45725C47.3979 4.9525 47.5987 5.39421 47.92 5.71546C48.2412 6.0367 48.6829 6.23748 49.1782 6.23748H55.4826C55.9644 6.23748 56.4062 6.0367 56.7408 5.71546C57.062 5.39421 57.2494 4.9525 57.2494 4.45725V1.78022C57.2494 1.28497 57.062 0.843264 56.7408 0.522021C56.4062 0.200777 55.9644 0 55.4826 0ZM49.1782 0.44171H55.4826C55.844 0.44171 56.1786 0.588946 56.4195 0.829879C56.6605 1.07081 56.8077 1.40544 56.8077 1.78022V4.45725C56.8077 4.83204 56.6605 5.16667 56.4195 5.4076C56.1786 5.64853 55.844 5.79577 55.4826 5.79577H49.1782C48.8034 5.79577 48.4688 5.64853 48.2278 5.4076C47.9869 5.16667 47.8397 4.83204 47.8397 4.45725V1.78022C47.8397 1.40544 47.9869 1.07081 48.2278 0.829879C48.4688 0.588946 48.8034 0.44171 49.1782 0.44171Z" fill="#FEFEFE"/>
<path d="M74.436 30.8795C77.7108 30.8795 80.3656 28.2248 80.3656 24.9499C80.3656 21.6751 77.7108 19.0203 74.436 19.0203C71.1611 19.0203 68.5063 21.6751 68.5063 24.9499C68.5063 28.2248 71.1611 30.8795 74.436 30.8795Z" fill="#2B2A29"/>
<path d="M60.1542 30.8795C63.4291 30.8795 66.0839 28.2248 66.0839 24.9499C66.0839 21.6751 63.4291 19.0203 60.1542 19.0203C56.8794 19.0203 54.2246 21.6751 54.2246 24.9499C54.2246 28.2248 56.8794 30.8795 60.1542 30.8795Z" fill="#2B2A29"/>
<path d="M45.1093 30.8795C48.3841 30.8795 51.0389 28.2248 51.0389 24.9499C51.0389 21.6751 48.3841 19.0203 45.1093 19.0203C41.8345 19.0203 39.1797 21.6751 39.1797 24.9499C39.1797 28.2248 41.8345 30.8795 45.1093 30.8795Z" fill="#2B2A29"/>
<path d="M87.6205 26.275C87.8882 26.6097 88.3835 26.6632 88.7181 26.3955C89.0527 26.1278 89.1063 25.6459 88.8386 25.3113C88.3433 24.6956 80.9012 18.4447 80.8744 18.418C80.7272 18.2975 80.5532 18.244 80.3792 18.244H0.817842C0.389518 18.244 0.0415039 18.592 0.0415039 19.0203C0.0415039 19.462 0.389518 19.81 0.817842 19.81H80.0981C81.3161 20.8273 87.2591 25.8199 87.6205 26.275Z" fill="#2B2A29"/>
<path d="M20.9355 30.2237C20.9355 30.652 21.2836 31 21.7119 31C22.1402 31 22.5016 30.652 22.5016 30.2237V19.0203C22.5016 18.592 22.1402 18.244 21.7119 18.244C21.2836 18.244 20.9355 18.592 20.9355 19.0203V30.2237Z" fill="#2B2A29"/>
<path d="M24.5497 31C24.9914 31 25.3394 30.652 25.3394 30.2237C25.3394 29.7953 24.9914 29.4339 24.5497 29.4339H18.5397C18.1114 29.4339 17.75 29.7953 17.75 30.2237C17.75 30.652 18.1114 31 18.5397 31H24.5497Z" fill="#2B2A29"/>
<path fill-rule="evenodd" clip-rule="evenodd" d="M44.1319 19.0471C46.916 18.8597 49.0309 19.9439 50.4497 22.3264C51.4402 24.6822 51.1591 26.8774 49.5797 28.8985C47.853 30.652 45.7649 31.2543 43.3556 30.6788C40.2636 29.4206 38.8983 27.1183 39.2464 23.772C39.9424 21.2288 41.5754 19.6494 44.1319 19.0471Z" fill="#151716"/>
<path fill-rule="evenodd" clip-rule="evenodd" d="M44.1317 21.1619C46.541 20.8942 48.1339 21.8847 48.9102 24.1602C49.0441 27.3592 47.5048 28.8851 44.3191 28.7513C42.0972 28.082 41.0799 26.5829 41.2807 24.2539C41.709 22.7414 42.6594 21.7107 44.1317 21.1619Z" fill="#F2F2F2"/>
<path fill-rule="evenodd" clip-rule="evenodd" d="M44.5069 21.7509C47.0233 21.7107 48.2949 22.9288 48.3216 25.4184C47.813 27.4396 46.5013 28.3631 44.4132 28.1757C42.4456 27.5065 41.6291 26.1278 41.9503 24.0665C42.4322 22.8618 43.2888 22.0855 44.5069 21.7509Z" fill="#161716"/>
<path fill-rule="evenodd" clip-rule="evenodd" d="M45.3769 22.6209C46.0462 22.6209 46.2871 22.9422 46.0997 23.5846C45.7383 23.9594 45.3903 23.9594 45.0423 23.5846C44.9085 23.1563 45.0155 22.8351 45.3769 22.6209Z" fill="#F1F1F1"/>
<path fill-rule="evenodd" clip-rule="evenodd" d="M43.1547 23.8791C44.0916 23.9862 44.2523 24.3877 43.6499 25.0838C42.9941 25.1908 42.713 24.9231 42.82 24.2539C42.9539 24.1468 43.0744 24.013 43.1547 23.8791Z" fill="#EFF0EF"/>
<path fill-rule="evenodd" clip-rule="evenodd" d="M46.5411 24.8428C47.3576 24.8295 47.5851 25.1775 47.2103 25.9003C46.4474 26.1814 46.1395 25.927 46.3002 25.1239C46.3671 25.0168 46.4474 24.9232 46.5411 24.8428Z" fill="#F5F5F5"/>
<path fill-rule="evenodd" clip-rule="evenodd" d="M44.3195 26.0877C45.2297 26.0743 45.4573 26.4491 45.0022 27.1986C44.0251 27.2789 43.7975 26.9042 44.3195 26.0877Z" fill="#F2F2F2"/>
<path fill-rule="evenodd" clip-rule="evenodd" d="M59.1635 19.0471C61.961 18.8597 64.0758 19.9439 65.4947 22.3264C66.4852 24.6822 66.1907 26.8774 64.6246 28.8985C62.8846 30.652 60.8099 31.2543 58.4005 30.6788C55.3086 29.4206 53.9433 27.1183 54.2913 23.772C54.9873 21.2288 56.6203 19.6494 59.1635 19.0471Z" fill="#151716"/>
<path fill-rule="evenodd" clip-rule="evenodd" d="M59.1636 21.1619C61.5864 20.8942 63.1792 21.8847 63.9422 24.1602C64.076 27.3592 62.5501 28.8851 59.3644 28.7513C57.1291 28.082 56.1252 26.5829 56.3126 24.2539C56.7543 22.7414 57.7047 21.7107 59.1636 21.1619Z" fill="#F2F2F2"/>
<path fill-rule="evenodd" clip-rule="evenodd" d="M59.5518 21.7509C62.0682 21.7107 63.3398 22.9288 63.3666 25.4184C62.8445 27.4396 61.5462 28.3631 59.4581 28.1757C57.4905 27.5065 56.674 26.1278 56.9952 24.0665C57.4771 22.8618 58.3204 22.0855 59.5518 21.7509Z" fill="#161716"/>
<path fill-rule="evenodd" clip-rule="evenodd" d="M60.4219 22.6209C61.0911 22.6209 61.332 22.9422 61.1447 23.5846C60.7833 23.9594 60.4352 23.9594 60.0872 23.5846C59.9534 23.1563 60.0605 22.8351 60.4219 22.6209Z" fill="#F1F1F1"/>
<path fill-rule="evenodd" clip-rule="evenodd" d="M58.1998 23.8791C59.1368 23.9862 59.2974 24.3877 58.6817 25.0838C58.0258 25.1908 57.7581 24.9231 57.8652 24.2539C57.999 24.1468 58.1061 24.013 58.1998 23.8791Z" fill="#EFF0EF"/>
<path fill-rule="evenodd" clip-rule="evenodd" d="M61.586 24.8428C62.4025 24.8295 62.6301 25.1775 62.2553 25.9003C61.4923 26.1814 61.1845 25.927 61.3451 25.1239C61.412 25.0168 61.4923 24.9232 61.586 24.8428Z" fill="#F5F5F5"/>
<path fill-rule="evenodd" clip-rule="evenodd" d="M59.3643 26.0877C60.2745 26.0743 60.5021 26.4491 60.0336 27.1986C59.0565 27.2789 58.8423 26.9042 59.3643 26.0877Z" fill="#F2F2F2"/>
<path fill-rule="evenodd" clip-rule="evenodd" d="M73.4588 19.0471C76.2563 18.8597 78.3578 19.9439 79.7766 22.3264C80.7671 24.6822 80.486 26.8774 78.9066 28.8985C77.1799 30.652 75.1052 31.2543 72.6825 30.6788C69.6039 29.4206 68.2252 27.1183 68.5866 23.772C69.2826 21.2288 70.9022 19.6494 73.4588 19.0471Z" fill="#151716"/>
<path fill-rule="evenodd" clip-rule="evenodd" d="M73.4589 21.1619C75.8682 20.8942 77.4744 21.8847 78.2374 24.1602C78.3712 27.3592 76.8453 28.8851 73.6463 28.7513C71.4243 28.082 70.4071 26.5829 70.6078 24.2539C71.0495 22.7414 71.9865 21.7107 73.4589 21.1619Z" fill="#F2F2F2"/>
<path fill-rule="evenodd" clip-rule="evenodd" d="M73.8468 21.7509C76.3632 21.7107 77.6348 22.9288 77.6616 25.4184C77.1396 27.4396 75.8278 28.3631 73.7397 28.1757C71.7721 27.5065 70.9556 26.1278 71.2902 24.0665C71.7587 22.8618 72.6154 22.0855 73.8468 21.7509Z" fill="#161716"/>
<path fill-rule="evenodd" clip-rule="evenodd" d="M74.717 22.6209C75.3729 22.6209 75.6138 22.9422 75.4398 23.5846C75.0784 23.9594 74.717 23.9594 74.369 23.5846C74.2351 23.1563 74.3556 22.8351 74.717 22.6209Z" fill="#F1F1F1"/>
<path fill-rule="evenodd" clip-rule="evenodd" d="M72.4952 23.8791C73.4188 23.9862 73.5794 24.3877 72.9771 25.0838C72.3212 25.1908 72.0401 24.9231 72.1472 24.2539C72.281 24.1468 72.4015 24.013 72.4952 23.8791Z" fill="#EFF0EF"/>
<path fill-rule="evenodd" clip-rule="evenodd" d="M75.8684 24.8428C76.6983 24.8295 76.9258 25.1775 76.551 25.9003C75.7747 26.1814 75.4802 25.927 75.6274 25.1239C75.6944 25.0168 75.7747 24.9232 75.8684 24.8428Z" fill="#F5F5F5"/>
<path fill-rule="evenodd" clip-rule="evenodd" d="M73.6462 26.0877C74.5698 26.0743 74.7839 26.4491 74.3288 27.1986C73.3517 27.2789 73.1242 26.9042 73.6462 26.0877Z" fill="#F2F2F2"/>
</g>
<defs>
<clipPath id="clip0_1270_3193">
<rect width="89.0545" height="31" fill="white"/>
</clipPath>
</defs>
</svg>
