<svg width="96" height="25" viewBox="0 0 96 25" fill="none" xmlns="http://www.w3.org/2000/svg">
<g clip-path="url(#clip0_1270_3272)">
<path d="M82.7747 24.8847C86.2344 24.8847 89.0391 22.08 89.0391 18.6203C89.0391 15.1606 86.2344 12.3559 82.7747 12.3559C79.3149 12.3559 76.5103 15.1606 76.5103 18.6203C76.5103 22.08 79.3149 24.8847 82.7747 24.8847Z" fill="#2B2A29"/>
<path d="M67.6897 24.8847C71.1494 24.8847 73.9541 22.08 73.9541 18.6203C73.9541 15.1606 71.1494 12.3559 67.6897 12.3559C64.23 12.3559 61.4253 15.1606 61.4253 18.6203C61.4253 22.08 64.23 24.8847 67.6897 24.8847Z" fill="#2B2A29"/>
<path d="M51.8176 24.8847C55.2774 24.8847 58.082 22.08 58.082 18.6203C58.082 15.1606 55.2774 12.3559 51.8176 12.3559C48.3579 12.3559 45.5532 15.1606 45.5532 18.6203C45.5532 22.08 48.3579 24.8847 51.8176 24.8847Z" fill="#2B2A29"/>
<path d="M93.1703 16.5065C93.4586 16.8524 93.9774 16.9101 94.3425 16.6218C94.6884 16.3528 94.746 15.834 94.4578 15.4689C93.939 14.8347 89.5962 11.741 89.5769 11.7217C89.4232 11.5872 89.2311 11.5296 89.0389 11.5296H0.837518C0.376334 11.5296 0.0112305 11.8947 0.0112305 12.3559C0.0112305 12.8171 0.376334 13.1822 0.837518 13.1822H88.7507C90.0381 14.2583 92.8052 16.0261 93.1703 16.5065Z" fill="#2B2A29"/>
<path d="M26.2793 24.1737C26.2793 24.6349 26.6444 25 27.1056 25C27.5668 25 27.9319 24.6349 27.9319 24.1737V12.3559C27.9319 11.8947 27.5668 11.5296 27.1056 11.5296C26.6444 11.5296 26.2793 11.8947 26.2793 12.3559V24.1737Z" fill="#2B2A29"/>
<path d="M30.1036 25C30.5648 25 30.9299 24.6349 30.9299 24.1737C30.9299 23.7317 30.5648 23.3474 30.1036 23.3474H23.7623C23.3011 23.3474 22.936 23.7317 22.936 24.1737C22.936 24.6349 23.3011 25 23.7623 25H30.1036Z" fill="#2B2A29"/>
<path fill-rule="evenodd" clip-rule="evenodd" d="M50.7798 12.3751C53.7199 12.1829 55.9489 13.3359 57.4478 15.834C58.5046 18.3321 58.1972 20.638 56.5254 22.7709C54.6999 24.6349 52.5093 25.269 49.9535 24.6541C46.706 23.3282 45.2456 20.907 45.6299 17.3713C46.3601 14.681 48.0704 13.0092 50.7798 12.3751Z" fill="#151716"/>
<path fill-rule="evenodd" clip-rule="evenodd" d="M50.7798 14.6234C53.3163 14.3159 55.0073 15.3728 55.8144 17.7748C55.9681 21.1568 54.3539 22.771 50.9719 22.6172C48.6276 21.9254 47.5515 20.3305 47.7629 17.8901C48.224 16.2759 49.2233 15.1999 50.7798 14.6234Z" fill="#F2F2F2"/>
<path fill-rule="evenodd" clip-rule="evenodd" d="M51.1834 15.2383C53.8352 15.1806 55.1803 16.4873 55.1996 19.1007C54.6615 21.2337 53.278 22.2137 51.0873 22.0023C48.9928 21.3105 48.1281 19.8693 48.474 17.6787C48.9928 16.4105 49.8767 15.5842 51.1834 15.2383Z" fill="#161716"/>
<path fill-rule="evenodd" clip-rule="evenodd" d="M52.1056 16.1414C52.7973 16.1606 53.0471 16.4873 52.855 17.1599C52.4707 17.5634 52.1056 17.5634 51.7405 17.1599C51.5867 16.7179 51.7212 16.372 52.1056 16.1414Z" fill="#F1F1F1"/>
<path fill-rule="evenodd" clip-rule="evenodd" d="M49.7614 17.4673C50.7414 17.6018 50.9143 18.0246 50.261 18.7548C49.5692 18.8701 49.281 18.5819 49.3963 17.8901C49.5308 17.7556 49.6461 17.6211 49.7614 17.4673Z" fill="#EFF0EF"/>
<path fill-rule="evenodd" clip-rule="evenodd" d="M53.3163 18.4858C54.181 18.4858 54.4308 18.8509 54.0273 19.6195C53.2202 19.9078 52.8935 19.6387 53.0665 18.7932C53.1433 18.6779 53.2202 18.5819 53.3163 18.4858Z" fill="#F5F5F5"/>
<path fill-rule="evenodd" clip-rule="evenodd" d="M50.9718 19.8117C51.9326 19.7925 52.1824 20.196 51.6828 20.9839C50.6644 21.0607 50.4146 20.6764 50.9718 19.8117Z" fill="#F2F2F2"/>
<path fill-rule="evenodd" clip-rule="evenodd" d="M66.6525 12.3751C69.6117 12.1829 71.8216 13.3359 73.3396 15.834C74.3773 18.3321 74.0699 20.638 72.4173 22.7709C70.5725 24.6349 68.3819 25.269 65.8454 24.6541C62.5787 23.3282 61.1375 20.907 61.5026 17.3713C62.2328 14.681 63.9622 13.0092 66.6525 12.3751Z" fill="#151716"/>
<path fill-rule="evenodd" clip-rule="evenodd" d="M66.6523 14.6234C69.2081 14.3159 70.8799 15.3728 71.7061 17.7748C71.8407 21.1568 70.2265 22.771 66.8637 22.6172C64.5001 21.9254 63.4433 20.3305 63.6354 17.8901C64.0966 16.2759 65.1151 15.1999 66.6523 14.6234Z" fill="#F2F2F2"/>
<path fill-rule="evenodd" clip-rule="evenodd" d="M67.0559 15.2383C69.7077 15.1806 71.0528 16.4873 71.0912 19.1007C70.534 21.2337 69.1696 22.2137 66.9598 22.0023C64.8845 21.3105 64.0197 19.8693 64.3656 17.6787C64.8652 16.4105 65.7684 15.5842 67.0559 15.2383Z" fill="#161716"/>
<path fill-rule="evenodd" clip-rule="evenodd" d="M67.9786 16.1414C68.6704 16.1606 68.9394 16.4873 68.7473 17.1599C68.3629 17.5634 67.9786 17.5634 67.6135 17.1599C67.479 16.7179 67.5943 16.372 67.9786 16.1414Z" fill="#F1F1F1"/>
<path fill-rule="evenodd" clip-rule="evenodd" d="M65.6341 17.4673C66.6141 17.6018 66.787 18.0246 66.1529 18.7548C65.4611 18.8701 65.1729 18.5819 65.269 17.8901C65.4227 17.7556 65.538 17.6211 65.6341 17.4673Z" fill="#EFF0EF"/>
<path fill-rule="evenodd" clip-rule="evenodd" d="M69.2083 18.4858C70.073 18.4858 70.3036 18.8509 69.9193 19.6195C69.1122 19.9078 68.7855 19.6387 68.9392 18.7932C69.0161 18.6779 69.1122 18.5819 69.2083 18.4858Z" fill="#F5F5F5"/>
<path fill-rule="evenodd" clip-rule="evenodd" d="M66.8636 19.8117C67.8244 19.7925 68.055 20.196 67.5746 20.9839C66.537 21.0607 66.3064 20.6764 66.8636 19.8117Z" fill="#F2F2F2"/>
<path fill-rule="evenodd" clip-rule="evenodd" d="M81.737 12.3751C84.6962 12.1829 86.9253 13.3359 88.4241 15.834C89.4618 18.3321 89.1543 20.638 87.5017 22.7709C85.6762 24.6349 83.4664 25.269 80.9299 24.6541C77.6632 23.3282 76.222 20.907 76.5871 17.3713C77.3365 14.681 79.0467 13.0092 81.737 12.3751Z" fill="#151716"/>
<path fill-rule="evenodd" clip-rule="evenodd" d="M81.737 14.6234C84.2927 14.3159 85.9645 15.3728 86.7908 17.7748C86.9253 21.1568 85.3112 22.771 81.9484 22.6172C79.5848 21.9254 78.5279 20.3305 78.7393 17.8901C79.2005 16.2759 80.1997 15.1999 81.737 14.6234Z" fill="#F2F2F2"/>
<path fill-rule="evenodd" clip-rule="evenodd" d="M82.1403 15.2383C84.7921 15.1806 86.1373 16.4873 86.1757 19.1007C85.6184 21.2337 84.2541 22.2137 82.0443 22.0023C79.9689 21.3105 79.1042 19.8693 79.4501 17.6787C79.9497 16.4105 80.8529 15.5842 82.1403 15.2383Z" fill="#161716"/>
<path fill-rule="evenodd" clip-rule="evenodd" d="M83.0631 16.1414C83.7741 16.1606 84.0239 16.4873 83.8317 17.1599C83.4474 17.5634 83.0823 17.5634 82.698 17.1599C82.5635 16.7179 82.6788 16.372 83.0631 16.1414Z" fill="#F1F1F1"/>
<path fill-rule="evenodd" clip-rule="evenodd" d="M80.7187 17.4673C81.6988 17.6018 81.8717 18.0246 81.2376 18.7548C80.5458 18.8701 80.2576 18.5819 80.3729 17.8901C80.5074 17.7556 80.6227 17.6211 80.7187 17.4673Z" fill="#EFF0EF"/>
<path fill-rule="evenodd" clip-rule="evenodd" d="M84.2927 18.4858C85.1575 18.4858 85.388 18.8509 85.0037 19.6195C84.1967 19.9078 83.87 19.6387 84.0237 18.7932C84.1006 18.6779 84.1967 18.5819 84.2927 18.4858Z" fill="#F5F5F5"/>
<path fill-rule="evenodd" clip-rule="evenodd" d="M81.9481 19.8117C82.9089 19.7925 83.1395 20.196 82.6591 20.9839C81.6214 21.0607 81.3908 20.6764 81.9481 19.8117Z" fill="#F2F2F2"/>
<path d="M95.2263 0H2.62451V11.8563H95.2263V0Z" fill="#048AC4"/>
</g>
<defs>
<clipPath id="clip0_1270_3272">
<rect width="95.2381" height="25" fill="white"/>
</clipPath>
</defs>
</svg>
