<svg width="89" height="31" viewBox="0 0 89 31" fill="none" xmlns="http://www.w3.org/2000/svg">
<path d="M5.06061 3.67855H83.5191C84.988 3.67855 86.1787 4.8693 86.1787 6.33816V15.8886C86.1787 17.3574 84.988 18.5482 83.5191 18.5482H5.06061C3.59174 18.5482 2.401 17.3574 2.401 15.8886V6.33816C2.401 4.8693 3.59174 3.67855 5.06061 3.67855Z" fill="#EF7605"/>
<path d="M70.0136 0.224514H76.3173C77.1757 0.224514 77.8716 0.920406 77.8716 1.77883V4.46435C77.8716 5.32277 77.1757 6.01866 76.3173 6.01866H70.0136C69.1552 6.01866 68.4593 5.32277 68.4593 4.46435V1.77883C68.4593 0.920406 69.1552 0.224514 70.0136 0.224514Z" fill="#EF7605"/>
<path d="M76.326 0H70.0137C69.5302 0 69.0812 0.198607 68.7617 0.518106C68.4422 0.84624 68.2435 1.28663 68.2435 1.77883V4.46434C68.2435 4.94791 68.4422 5.39694 68.7617 5.71643C69.0812 6.03593 69.5302 6.23454 70.0137 6.23454H76.326C76.8096 6.23454 77.25 6.03593 77.5781 5.71643C77.8976 5.39694 78.0962 4.94791 78.0962 4.46434V1.77883C78.0962 1.28663 77.8976 0.84624 77.5781 0.518106C77.25 0.198607 76.8096 0 76.326 0ZM70.0137 0.44039H76.326C76.6887 0.44039 77.0254 0.595822 77.2586 0.837604C77.5004 1.07939 77.6558 1.40752 77.6558 1.77883V4.46434C77.6558 4.82702 77.5004 5.16379 77.2586 5.40557C77.0168 5.64735 76.6887 5.79415 76.326 5.79415H70.0137C69.6511 5.79415 69.3143 5.64735 69.0725 5.40557C68.8307 5.16379 68.6839 4.82702 68.6839 4.46434V1.77883C68.6839 1.40752 68.8307 1.07939 69.0725 0.837604C69.3143 0.595822 69.6511 0.44039 70.0137 0.44039Z" fill="#FEFEFE"/>
<path d="M59.5737 0.224514H65.8773C66.7357 0.224514 67.4316 0.920406 67.4316 1.77883V4.46435C67.4316 5.32277 66.7357 6.01866 65.8773 6.01866H59.5737C58.7153 6.01866 58.0194 5.32277 58.0194 4.46435V1.77883C58.0194 0.920406 58.7153 0.224514 59.5737 0.224514Z" fill="#EF7605"/>
<path d="M65.8774 0H59.5738C59.0816 0 58.6412 0.198607 58.3131 0.518106C57.9936 0.84624 57.795 1.28663 57.795 1.77883V4.46434C57.795 4.94791 57.9936 5.39694 58.3131 5.71643C58.6412 6.03593 59.0816 6.23454 59.5738 6.23454H65.8774C66.3696 6.23454 66.81 6.03593 67.1295 5.71643C67.449 5.39694 67.6562 4.94791 67.6562 4.46434V1.77883C67.6562 1.28663 67.449 0.84624 67.1295 0.518106C66.81 0.198607 66.361 0 65.8774 0ZM59.5738 0.44039H65.8774C66.2401 0.44039 66.5769 0.595822 66.8186 0.837604C67.0604 1.07939 67.2072 1.40752 67.2072 1.77883V4.46434C67.2072 4.82702 67.0604 5.16379 66.8186 5.40557C66.5769 5.64735 66.2401 5.79415 65.8774 5.79415H59.5738C59.2025 5.79415 58.8744 5.64735 58.6326 5.40557C58.3908 5.16379 58.2354 4.82702 58.2354 4.46434V1.77883C58.2354 1.40752 58.3908 1.07939 58.6326 0.837604C58.8744 0.595822 59.2025 0.44039 59.5738 0.44039Z" fill="#FEFEFE"/>
<path d="M76.326 0H70.0137C69.5302 0 69.0812 0.198607 68.7617 0.518106C68.4422 0.84624 68.2435 1.28663 68.2435 1.77883V4.46434C68.2435 4.94791 68.4422 5.39694 68.7617 5.71643C69.0812 6.03593 69.5302 6.23454 70.0137 6.23454H76.326C76.8096 6.23454 77.25 6.03593 77.5781 5.71643C77.8976 5.39694 78.0962 4.94791 78.0962 4.46434V1.77883C78.0962 1.28663 77.8976 0.84624 77.5781 0.518106C77.25 0.198607 76.8096 0 76.326 0ZM70.0137 0.44039H76.326C76.6887 0.44039 77.0254 0.595822 77.2586 0.837604C77.5004 1.07939 77.6558 1.40752 77.6558 1.77883V4.46434C77.6558 4.82702 77.5004 5.16379 77.2586 5.40557C77.0168 5.64735 76.6887 5.79415 76.326 5.79415H70.0137C69.6511 5.79415 69.3143 5.64735 69.0725 5.40557C68.8307 5.16379 68.6839 4.82702 68.6839 4.46434V1.77883C68.6839 1.40752 68.8307 1.07939 69.0725 0.837604C69.3143 0.595822 69.6511 0.44039 70.0137 0.44039Z" fill="#FEFEFE"/>
<path d="M49.125 0.224514H55.4286C56.287 0.224514 56.9829 0.920406 56.9829 1.77883V4.46435C56.9829 5.32277 56.287 6.01866 55.4286 6.01866H49.125C48.2665 6.01866 47.5707 5.32277 47.5707 4.46435V1.77883C47.5707 0.920406 48.2665 0.224514 49.125 0.224514Z" fill="#EF7605"/>
<path d="M55.4373 0H49.1251C48.6415 0 48.1925 0.198607 47.873 0.518106C47.5535 0.84624 47.3549 1.28663 47.3549 1.77883V4.46434C47.3549 4.94791 47.5535 5.39694 47.873 5.71643C48.1925 6.03593 48.6415 6.23454 49.1251 6.23454H55.4373C55.9209 6.23454 56.3613 6.03593 56.6894 5.71643C57.0089 5.39694 57.2075 4.94791 57.2075 4.46434V1.77883C57.2075 1.28663 57.0089 0.84624 56.6894 0.518106C56.3613 0.198607 55.9209 0 55.4373 0ZM49.1251 0.44039H55.4373C55.8 0.44039 56.1368 0.595822 56.3699 0.837604C56.6117 1.07939 56.7671 1.40752 56.7671 1.77883V4.46434C56.7671 4.82702 56.6117 5.16379 56.3699 5.40557C56.1281 5.64735 55.8 5.79415 55.4373 5.79415H49.1251C48.7624 5.79415 48.4256 5.64735 48.1838 5.40557C47.9421 5.16379 47.7953 4.82702 47.7953 4.46434V1.77883C47.7953 1.40752 47.9421 1.07939 48.1838 0.837604C48.4256 0.595822 48.7624 0.44039 49.1251 0.44039Z" fill="#FEFEFE"/>
<path d="M74.3914 30.8877C71.1151 30.8877 68.4591 28.2318 68.4591 24.9554C68.4591 21.6791 71.1151 19.0231 74.3914 19.0231C77.6677 19.0231 80.3237 21.6791 80.3237 24.9554C80.3237 28.2318 77.6677 30.8877 74.3914 30.8877Z" fill="#2B2A29"/>
<path d="M60.1092 30.8877C56.8329 30.8877 54.1769 28.2318 54.1769 24.9554C54.1769 21.6791 56.8329 19.0231 60.1092 19.0231C63.3855 19.0231 66.0415 21.6791 66.0415 24.9554C66.0415 28.2318 63.3855 30.8877 60.1092 30.8877Z" fill="#2B2A29"/>
<path d="M45.0667 30.8877C41.7904 30.8877 39.1344 28.2318 39.1344 24.9554C39.1344 21.6791 41.7904 19.0231 45.0667 19.0231C48.343 19.0231 50.999 21.6791 50.999 24.9554C50.999 28.2318 48.343 30.8877 45.0667 30.8877Z" fill="#2B2A29"/>
<path d="M87.5686 26.2766C87.8363 26.6134 88.3285 26.6652 88.6653 26.3975C89.0021 26.1298 89.0539 25.6376 88.7862 25.3008C88.3026 24.6964 80.8419 18.4446 80.8246 18.4187C80.6778 18.2978 80.5051 18.246 80.3238 18.246V18.2373H0.777283C0.345528 18.2373 0.0001297 18.5914 0.0001297 19.0231C0.0001297 19.4549 0.345528 19.8089 0.777283 19.8089H80.0475C81.265 20.8279 87.206 25.8276 87.5686 26.2766Z" fill="#2B2A29"/>
<path d="M20.8887 30.2228C20.8887 30.6546 21.2341 31 21.6745 31C22.1063 31 22.4517 30.6546 22.4517 30.2228V19.0231C22.4517 18.5914 22.1063 18.2373 21.6745 18.2373C21.2341 18.2373 20.8887 18.5914 20.8887 19.0231V30.2228Z" fill="#2B2A29"/>
<path d="M24.5153 31C24.9471 31 25.2925 30.6546 25.2925 30.2228C25.2925 29.7911 24.9471 29.437 24.5153 29.437H18.4967C18.0649 29.437 17.7109 29.7911 17.7109 30.2228C17.7109 30.6546 18.0649 31 18.4967 31H24.5153Z" fill="#2B2A29"/>
<path fill-rule="evenodd" clip-rule="evenodd" d="M44.0818 19.0404C46.8709 18.8504 48.9865 19.9471 50.4027 22.3217C51.3957 24.6877 51.1021 26.8724 49.5392 28.893C47.8035 30.646 45.7225 31.2418 43.3046 30.6805C40.2219 29.4111 38.8489 27.1142 39.203 23.7724C39.9024 21.2251 41.5258 19.6448 44.0818 19.0404Z" fill="#151716"/>
<path fill-rule="evenodd" clip-rule="evenodd" d="M44.0819 21.1646C46.4997 20.8883 48.0886 21.8813 48.8571 24.161C48.9953 27.356 47.4669 28.8844 44.2719 28.7462C42.044 28.0813 41.0337 26.5788 41.2323 24.256C41.6641 22.7448 42.614 21.7173 44.0819 21.1646Z" fill="#F2F2F2"/>
<path fill-rule="evenodd" clip-rule="evenodd" d="M44.4702 21.7432C46.9831 21.7 48.2524 22.9262 48.2783 25.4131C47.7602 27.4423 46.4563 28.3577 44.3666 28.1677C42.3978 27.5028 41.5775 26.1298 41.9056 24.066C42.3892 22.8571 43.2354 22.0886 44.4702 21.7432Z" fill="#161716"/>
<path fill-rule="evenodd" clip-rule="evenodd" d="M45.334 22.6153C45.9989 22.6153 46.2407 22.9435 46.0594 23.5824C45.6967 23.9538 45.3427 23.9538 44.9973 23.5824C44.8591 23.1507 44.9714 22.8312 45.334 22.6153Z" fill="#F1F1F1"/>
<path fill-rule="evenodd" clip-rule="evenodd" d="M43.1146 23.8674C44.0472 23.9883 44.2112 24.3942 43.5981 25.0763C42.9419 25.1972 42.6656 24.9209 42.7778 24.256C42.9073 24.1437 43.0196 24.0142 43.1146 23.8674Z" fill="#EFF0EF"/>
<path fill-rule="evenodd" clip-rule="evenodd" d="M46.4912 24.8345C47.3202 24.8173 47.5447 25.1713 47.1734 25.8967C46.4049 26.173 46.094 25.9226 46.2494 25.1281C46.3185 25.0072 46.3962 24.9123 46.4912 24.8345Z" fill="#F5F5F5"/>
<path fill-rule="evenodd" clip-rule="evenodd" d="M44.272 26.0953C45.1874 26.0694 45.4119 26.4407 44.9456 27.2006C43.9784 27.2783 43.7539 26.907 44.272 26.0953Z" fill="#F2F2F2"/>
<path fill-rule="evenodd" clip-rule="evenodd" d="M59.1248 19.0404C61.9139 18.8504 64.0209 19.9471 65.4457 22.3217C66.4387 24.6877 66.1451 26.8724 64.5735 28.893C62.8379 30.646 60.7654 31.2418 58.3476 30.6805C55.2649 29.4111 53.8919 27.1142 54.2459 23.7724C54.9454 21.2251 56.5688 19.6448 59.1248 19.0404Z" fill="#151716"/>
<path fill-rule="evenodd" clip-rule="evenodd" d="M59.1163 21.1646C61.5341 20.8883 63.1316 21.8813 63.9001 24.161C64.0297 27.356 62.5012 28.8844 59.3149 28.7462C57.087 28.0813 56.0767 26.5788 56.2753 24.256C56.7071 22.7448 57.6569 21.7173 59.1163 21.1646Z" fill="#F2F2F2"/>
<path fill-rule="evenodd" clip-rule="evenodd" d="M59.5046 21.7432C62.0174 21.7 63.2954 22.9262 63.3213 25.4131C62.8032 27.4423 61.4993 28.3577 59.4096 28.1677C57.4408 27.5028 56.6205 26.1298 56.9486 24.066C57.4235 22.8571 58.2784 22.0886 59.5046 21.7432Z" fill="#161716"/>
<path fill-rule="evenodd" clip-rule="evenodd" d="M60.377 22.6153C61.0419 22.6153 61.2837 22.9435 61.1024 23.5824C60.7397 23.9538 60.3856 23.9538 60.0402 23.5824C59.9021 23.1507 60.0143 22.8312 60.377 22.6153Z" fill="#F1F1F1"/>
<path fill-rule="evenodd" clip-rule="evenodd" d="M58.1574 23.8674C59.09 23.9883 59.2454 24.3942 58.641 25.0763C57.9847 25.1972 57.7084 24.9209 57.8206 24.256C57.9501 24.1437 58.0624 24.0142 58.1574 23.8674Z" fill="#EFF0EF"/>
<path fill-rule="evenodd" clip-rule="evenodd" d="M61.5338 24.8345C62.3541 24.8173 62.5786 25.1713 62.2073 25.8967C61.4388 26.173 61.1366 25.9226 61.292 25.1281C61.3611 25.0072 61.4388 24.9123 61.5338 24.8345Z" fill="#F5F5F5"/>
<path fill-rule="evenodd" clip-rule="evenodd" d="M59.3145 26.0953C60.2298 26.0694 60.4544 26.4407 59.9881 27.2006C59.0123 27.2783 58.7878 26.907 59.3145 26.0953Z" fill="#F2F2F2"/>
<path fill-rule="evenodd" clip-rule="evenodd" d="M73.4065 19.0404C76.2043 18.8504 78.3113 19.9471 79.7361 22.3217C80.7205 24.6877 80.4355 26.8724 78.8639 28.893C77.1283 30.646 75.0558 31.2418 72.638 30.6805C69.5466 29.4111 68.1823 27.1142 68.5277 23.7724C69.2271 21.2251 70.8592 19.6448 73.4065 19.0404Z" fill="#151716"/>
<path fill-rule="evenodd" clip-rule="evenodd" d="M73.4068 21.1646C75.8246 20.8883 77.4221 21.8813 78.1907 24.161C78.3202 27.356 76.7918 28.8844 73.5968 28.7462C71.3776 28.0813 70.3586 26.5788 70.5572 24.256C70.9976 22.7448 71.9475 21.7173 73.4068 21.1646Z" fill="#F2F2F2"/>
<path fill-rule="evenodd" clip-rule="evenodd" d="M73.7951 21.7432C76.3079 21.7 77.5773 22.9262 77.6118 25.4131C77.0851 27.4423 75.7812 28.3577 73.7001 28.1677C71.7313 27.5028 70.911 26.1298 71.2391 24.066C71.714 22.8571 72.5689 22.0886 73.7951 21.7432Z" fill="#161716"/>
<path fill-rule="evenodd" clip-rule="evenodd" d="M74.6587 22.6153C75.3237 22.6153 75.5654 22.9435 75.3841 23.5824C75.0214 23.9538 74.6674 23.9538 74.322 23.5824C74.1838 23.1507 74.3047 22.8312 74.6587 22.6153Z" fill="#F1F1F1"/>
<path fill-rule="evenodd" clip-rule="evenodd" d="M72.4393 23.8674C73.3719 23.9883 73.5359 24.3942 72.9229 25.0763C72.2666 25.1972 71.9989 24.9209 72.1025 24.256C72.2407 24.1437 72.3529 24.0142 72.4393 23.8674Z" fill="#EFF0EF"/>
<path fill-rule="evenodd" clip-rule="evenodd" d="M75.8243 24.8345C76.6446 24.8173 76.8691 25.1713 76.4978 25.8967C75.7293 26.173 75.4271 25.9226 75.5825 25.1281C75.6516 25.0072 75.7293 24.9123 75.8243 24.8345Z" fill="#F5F5F5"/>
<path fill-rule="evenodd" clip-rule="evenodd" d="M73.605 26.0953C74.5117 26.0694 74.7449 26.4407 74.2786 27.2006C73.3028 27.2783 73.0783 26.907 73.605 26.0953Z" fill="#F2F2F2"/>
</svg>
