<svg width="88" height="89" viewBox="0 0 88 89" fill="none" xmlns="http://www.w3.org/2000/svg">
<g clip-path="url(#clip0_256_689)" filter="url(#filter0_d_256_689)">
<path fill-rule="evenodd" clip-rule="evenodd" d="M40.4308 0.129342C49.9419 -0.588758 58.6437 1.68328 66.5362 6.94539C67.133 6.09267 67.7464 5.252 68.3765 4.42344C69.1357 3.93386 69.7945 4.0474 70.3532 4.76423C71.9743 8.80027 73.4966 12.8673 74.9199 16.965C74.9748 17.5375 74.7475 17.9464 74.2384 18.1919C69.7813 18.1409 65.3281 17.959 60.8789 17.6466C60.1061 17.2629 59.8562 16.6495 60.1291 15.8063C60.7234 15.053 61.2914 14.2805 61.8331 13.4889C53.5266 8.12107 44.5749 6.73526 34.978 9.33106C26.4656 11.9605 20.0585 17.1634 15.7568 24.9398C19.2212 25.0104 22.6747 25.124 26.1172 25.2806C26.323 25.4648 26.4593 25.692 26.5261 25.9622C25.0428 28.5394 25.3609 30.857 27.4803 32.9146C30.4229 34.5369 33.422 34.6279 36.4774 33.1872C39.0411 31.7006 41.6312 30.2464 44.2477 28.825C44.4749 28.734 44.702 28.734 44.9293 28.825C50.9467 36.2467 57.013 43.6306 63.1281 50.9771C64.2338 53.3878 63.575 55.0918 61.1515 56.0891C59.8972 56.3222 58.8293 55.9813 57.9479 55.0667C57.9071 57.3334 56.7711 58.6057 54.5399 58.8836C53.5492 58.7973 52.7312 58.3882 52.0861 57.6568C52.008 60.28 50.6676 61.5295 48.0647 61.4056C47.339 61.2587 46.7256 60.918 46.2243 60.3831C46.2055 62.6528 45.0468 63.925 42.7482 64.2002C42.0604 64.1058 41.4697 63.8331 40.976 63.3822C42.8099 60.2001 42.31 57.4509 39.4765 55.1348C38.8361 54.8001 38.1544 54.5729 37.4317 54.4532C36.7045 53.1357 35.6139 52.2722 34.1601 51.8631C33.5239 49.9546 32.2516 48.6824 30.3431 48.0461C28.8684 44.4778 26.2783 43.2964 22.5729 44.5018C22.05 44.7859 21.5501 45.1039 21.0733 45.456C20.21 46.5011 19.3466 47.5462 18.4833 48.5914C14.8026 48.6823 11.1219 48.6823 7.44132 48.5914C5.07222 47.882 3.95882 46.2689 4.10144 43.752C3.17416 28.7952 8.60424 16.7762 20.3918 7.69527C26.4053 3.41638 33.0849 0.894428 40.4309 0.129421L40.4308 0.129342Z" fill="#EF7605" fill-opacity="0.984314"/>
<path fill-rule="evenodd" clip-rule="evenodd" d="M44.2479 17.4421C45.8671 17.3379 47.4574 17.497 49.0191 17.9191C54.9581 20.2299 60.9108 22.5018 66.8771 24.7352C67.6371 24.9417 68.4097 25.078 69.1946 25.1441C72.648 25.1895 76.1016 25.2351 79.555 25.2805C80.41 25.5888 81.1143 26.1114 81.668 26.8481C85.6328 38.6044 84.5423 49.8736 78.3963 60.6556C69.6594 74.1925 57.186 80.6678 40.9763 80.0814C33.0523 79.4107 25.9411 76.707 19.6422 71.9703C18.941 72.7627 18.2367 73.5578 17.5291 74.3559C16.6279 74.7343 15.9691 74.4844 15.5525 73.6061C14.3072 69.6429 13.0347 65.6896 11.7355 61.7462C11.6851 60.7958 12.1395 60.2505 13.0987 60.1104C17.2538 60.562 21.4116 60.9936 25.5721 61.4054C26.418 61.6653 26.7588 62.2334 26.5944 63.1094C26.0317 63.9897 25.4183 64.8303 24.7541 65.6313C29.2503 69.1008 34.3396 71.1911 40.022 71.9021C51.3268 72.9526 60.7556 69.2946 68.3085 60.9283C71.2578 57.3165 73.4163 53.2722 74.7838 48.7957C72.5586 48.6368 70.3321 48.614 68.1041 48.7276C67.4875 48.98 66.9422 49.3434 66.4682 49.8181C66.1956 49.909 65.9229 49.909 65.6503 49.8181C59.0939 41.7954 52.5051 33.7982 45.8838 25.8257C45.3612 25.4537 44.8159 25.4083 44.2479 25.6894C40.8968 27.6603 37.4887 29.5232 34.0239 31.2785C32.3373 31.7701 30.7015 31.6338 29.1164 30.8695C27.8584 29.6852 27.8584 28.5036 29.1164 27.3252C32.8948 24.41 36.7118 21.5472 40.5673 18.737C41.7474 18.1242 42.9744 17.6926 44.248 17.442L44.2479 17.4421Z" fill="#EF7605" fill-opacity="0.980392"/>
<path fill-rule="evenodd" clip-rule="evenodd" d="M24.2087 46.6146C26.222 46.4472 27.4035 47.3561 27.7531 49.3411C27.6903 49.8426 27.5539 50.3197 27.3441 50.7724C29.1932 50.0592 30.5791 50.5817 31.5019 52.3401C31.5529 53.0907 31.5757 53.8177 31.57 54.5212C33.8304 54.028 35.1708 54.9367 35.5915 57.2476C37.56 56.7328 38.8323 57.4599 39.4085 59.4287C39.4347 61.2629 38.6396 62.6034 37.0229 63.4502C35.0311 63.7721 33.7135 62.9769 33.0696 61.0646C31.4432 61.681 30.1482 61.2721 29.1845 59.8377C28.9268 59.2773 28.7904 58.6867 28.7756 58.0656C27.2755 58.6599 26.0031 58.3419 24.9586 57.1113C24.4937 56.3891 24.312 55.6166 24.4133 54.7939C22.8718 55.4652 21.5541 55.1471 20.46 53.8397C19.7228 52.7792 19.6775 51.6887 20.3236 50.568C21.2551 49.4547 22.1867 48.3415 23.1182 47.2281C23.4851 47.0094 23.8486 46.8049 24.2087 46.6147V46.6146Z" fill="#EF7605" fill-opacity="0.960784"/>
</g>
<defs>
<filter id="filter0_d_256_689" x="0" y="0" width="88" height="88.118" filterUnits="userSpaceOnUse" color-interpolation-filters="sRGB">
<feFlood flood-opacity="0" result="BackgroundImageFix"/>
<feColorMatrix in="SourceAlpha" type="matrix" values="0 0 0 0 0 0 0 0 0 0 0 0 0 0 0 0 0 0 127 0" result="hardAlpha"/>
<feOffset dy="4"/>
<feGaussianBlur stdDeviation="2"/>
<feColorMatrix type="matrix" values="0 0 0 0 0 0 0 0 0 0 0 0 0 0 0 0 0 0 0.33 0"/>
<feBlend mode="normal" in2="BackgroundImageFix" result="effect1_dropShadow_256_689"/>
<feBlend mode="normal" in="SourceGraphic" in2="effect1_dropShadow_256_689" result="shape"/>
</filter>
<clipPath id="clip0_256_689">
<rect width="80" height="80.118" fill="white" transform="translate(4)"/>
</clipPath>
</defs>
</svg>
