<svg width="85" height="98" viewBox="0 0 85 98" fill="none" xmlns="http://www.w3.org/2000/svg">
<g clip-path="url(#clip0_255_676)" filter="url(#filter0_d_255_676)">
<path fill-rule="evenodd" clip-rule="evenodd" d="M18.9063 0.000323025C19.1689 0.000323025 19.4315 0.000323025 19.6941 0.000323025C20.1665 0.182588 20.4759 0.520737 20.6222 1.01237C20.6414 6.48751 20.6594 11.9626 20.6785 17.4378C21.0503 16.3598 21.4436 15.2914 21.8597 14.2314C23.5288 10.8775 26.2388 9.02962 29.9872 8.69028C38.1808 8.6531 46.3743 8.6531 54.5678 8.69028C58.369 9.00684 61.097 10.8727 62.7517 14.2865C63.157 15.3321 63.5503 16.3826 63.9329 17.4366C63.9508 11.9614 63.97 6.48631 63.9892 1.01117C64.1343 0.518339 64.4437 0.181389 64.9173 -0.000876085C65.1799 -0.000876085 65.4425 -0.000876085 65.7051 -0.000876085C67.0122 0.803727 68.306 1.63831 69.5867 2.50167C69.9044 2.75348 70.0831 3.08084 70.1215 3.48614C70.149 20.4176 70.1586 37.349 70.149 54.2793C72.3434 53.9507 74.19 54.5886 75.6901 56.1918C76.4336 57.108 76.8461 58.1584 76.9276 59.3419C76.9552 64.0664 76.9648 68.7921 76.9552 73.5166C77.8581 73.4914 78.7587 73.5202 79.6556 73.6005C80.1208 73.7564 80.4206 74.0658 80.5561 74.5286C80.5561 77.2854 80.5561 80.0409 80.5561 82.7977C80.3691 83.2929 80.0129 83.6023 79.4877 83.7258C77.4624 83.7534 75.4383 83.763 73.413 83.7534C73.4226 85.0664 73.413 86.3782 73.3854 87.6913C73.1696 88.9 72.4669 89.6602 71.2762 89.9696C68.5015 90.0079 65.7255 90.0079 62.9508 89.9696C61.7601 89.6602 61.0574 88.9012 60.8415 87.6913C60.814 86.3794 60.8044 85.0664 60.814 83.7534C48.4763 83.7534 36.1387 83.7534 23.8022 83.7534C23.8118 85.0664 23.8022 86.3782 23.7746 87.6913C23.5588 88.9 22.8561 89.6602 21.6654 89.9696C18.8907 90.0079 16.1159 90.0079 13.34 89.9696C12.1493 89.6602 11.4466 88.9012 11.2308 87.6913C11.2032 86.3794 11.1936 85.0664 11.2032 83.7534C9.17788 83.763 7.15378 83.7534 5.12848 83.7258C4.48696 83.5711 4.12123 83.1682 4.0313 82.5159C3.99412 79.9282 3.99412 77.3405 4.0313 74.7529C4.12843 74.0742 4.51214 73.6713 5.18484 73.543C6.00983 73.5154 6.83482 73.5058 7.65981 73.5154C7.65021 68.7909 7.65981 64.0652 7.68738 59.3407C7.99556 56.7075 9.42969 55.0479 11.991 54.362C12.8136 54.2852 13.6386 54.2565 14.466 54.2781C14.4564 37.3466 14.466 20.4152 14.4935 3.48494C14.5319 3.07964 14.7106 2.75228 15.0283 2.50047C16.309 1.63591 17.6016 0.801329 18.9099 -0.0020752L18.9063 0.000323025ZM22.4496 25.1433C35.6866 25.1433 48.9248 25.1433 62.1618 25.1433C62.1618 29.568 62.1618 33.9927 62.1618 38.4186C48.9248 38.4186 35.6866 38.4186 22.4496 38.4186C22.4496 33.9939 22.4496 29.5692 22.4496 25.1433ZM33.0246 48.0367C39.212 48.0271 45.3994 48.0367 51.5868 48.0643C53.1145 48.2429 53.9682 49.0955 54.1457 50.6232C54.1829 56.3981 54.1829 62.173 54.1457 67.9479C54.0786 68.8808 53.6565 69.6027 52.8807 70.1135C52.5977 70.2706 52.2979 70.3833 51.9801 70.4517C45.5301 70.4888 39.0801 70.4888 32.6301 70.4517C31.6924 70.2262 31.0257 69.6722 30.6336 68.7921C30.5364 68.5187 30.4801 68.2381 30.4645 67.9479C30.4273 62.173 30.4273 56.3981 30.4645 50.6232C30.6527 49.0943 31.5053 48.2321 33.0234 48.0355L33.0246 48.0367ZM16.6555 64.63C18.3619 64.6204 20.0682 64.63 21.7745 64.6576C22.8897 64.835 23.6116 65.4634 23.9401 66.5414C24.1835 67.8951 23.7051 68.8976 22.506 69.5511C22.3057 69.6303 22.0995 69.6866 21.8872 69.7202C20.0874 69.7574 18.2875 69.7574 16.4877 69.7202C15.1698 69.3916 14.4576 68.5475 14.3496 67.1889C14.5019 65.7703 15.2718 64.9178 16.6555 64.63ZM62.8369 64.63C64.5432 64.6204 66.2495 64.63 67.9559 64.6576C69.4787 64.9621 70.239 65.8902 70.2342 67.4419C70.0567 68.6878 69.354 69.4468 68.1249 69.7202C66.3251 69.7574 64.5252 69.7574 62.7253 69.7202C61.2337 69.3329 60.5298 68.3676 60.6161 66.8232C60.8667 65.5881 61.6078 64.8566 62.8381 64.6288L62.8369 64.63Z" fill="#EF7605" fill-opacity="0.992157"/>
<path fill-rule="evenodd" clip-rule="evenodd" d="M33.2499 49.7814C39.2874 49.7719 45.3249 49.7814 51.3624 49.809C52.275 50.1256 52.6035 50.7539 52.3469 51.6928C52.1479 52.1161 51.8193 52.3883 51.3624 52.5082C45.3057 52.5454 39.2502 52.5454 33.1935 52.5082C32.3278 52.1929 31.9992 51.5837 32.2091 50.6796C32.4117 50.2047 32.7594 49.9038 33.2499 49.7803V49.7814Z" fill="#EF7605" fill-opacity="0.972549"/>
<path fill-rule="evenodd" clip-rule="evenodd" d="M33.2498 55.1811C39.2873 55.1715 45.3248 55.1811 51.3623 55.2087C52.3192 55.566 52.6286 56.2315 52.2904 57.2052C52.0794 57.5649 51.77 57.8 51.3623 57.9079C45.3056 57.9463 39.2501 57.9463 33.1934 57.9079C32.1574 57.4774 31.8864 56.7555 32.378 55.7423C32.6142 55.4605 32.9056 55.2734 33.2498 55.1799V55.1811Z" fill="#EF7605" fill-opacity="0.972549"/>
<path fill-rule="evenodd" clip-rule="evenodd" d="M33.1934 60.5819C39.2501 60.5723 45.3056 60.5819 51.3623 60.6094C52.3192 60.9668 52.6286 61.6323 52.2904 62.606C52.0794 62.9657 51.77 63.2007 51.3623 63.3086C45.3056 63.3458 39.2501 63.3458 33.1934 63.3086C32.1574 62.8782 31.8864 62.1563 32.378 61.143C32.6022 60.8768 32.8732 60.6898 33.1934 60.5807V60.5819Z" fill="#EF7605" fill-opacity="0.972549"/>
<path fill-rule="evenodd" clip-rule="evenodd" d="M33.1934 65.9814C39.2501 65.9718 45.3056 65.9814 51.3623 66.009C52.3192 66.3663 52.6286 67.0318 52.2904 68.0055C52.0794 68.3652 51.77 68.6003 51.3623 68.7082C45.3056 68.7453 39.2501 68.7453 33.1934 68.7082C32.1574 68.2777 31.8864 67.5558 32.378 66.5426C32.6022 66.2764 32.8732 66.0893 33.1934 65.9802V65.9814Z" fill="#EF7605" fill-opacity="0.972549"/>
</g>
<defs>
<filter id="filter0_d_255_676" x="0" y="0" width="84.5559" height="98" filterUnits="userSpaceOnUse" color-interpolation-filters="sRGB">
<feFlood flood-opacity="0" result="BackgroundImageFix"/>
<feColorMatrix in="SourceAlpha" type="matrix" values="0 0 0 0 0 0 0 0 0 0 0 0 0 0 0 0 0 0 127 0" result="hardAlpha"/>
<feOffset dy="4"/>
<feGaussianBlur stdDeviation="2"/>
<feColorMatrix type="matrix" values="0 0 0 0 0 0 0 0 0 0 0 0 0 0 0 0 0 0 0.33 0"/>
<feBlend mode="normal" in2="BackgroundImageFix" result="effect1_dropShadow_255_676"/>
<feBlend mode="normal" in="SourceGraphic" in2="effect1_dropShadow_255_676" result="shape"/>
</filter>
<clipPath id="clip0_255_676">
<rect width="76.556" height="90" fill="white" transform="translate(4)"/>
</clipPath>
</defs>
</svg>
