<svg width="80" height="80" viewBox="0 0 80 80" fill="none" xmlns="http://www.w3.org/2000/svg">
<g clip-path="url(#clip0_100_193)">
<path fill-rule="evenodd" clip-rule="evenodd" d="M24.2857 0C28.4774 0.279447 32.2282 1.58043 35.7616 3.79737C39.3665 6.30618 42.0523 9.40182 43.9742 13.3327C44.6356 14.8728 45.002 15.8974 45.4739 17.4809C46.6631 22.3899 46.3092 27.187 44.4151 31.8724C44.2164 32.2388 44.0394 32.6207 43.8842 33.0213C43.1111 34.5023 42.2261 35.9151 41.2357 37.2595C39.9968 38.8213 38.584 40.2061 36.9974 41.4078C34.5538 43.2335 31.8804 44.5283 28.9649 45.3821C27.7601 45.6833 26.5523 45.9193 25.3445 46.0869C22.5935 46.3198 19.886 46.0838 17.2219 45.3821C16.7562 45.2455 16.2873 45.1275 15.8091 45.0282C14.9894 44.6773 14.1635 44.3233 13.3376 43.9694C12.4092 43.4881 11.4963 42.9882 10.599 42.4666C7.92564 40.6471 5.65902 38.4084 3.80225 35.7567C3.24957 34.8035 2.72172 33.8317 2.21251 32.8443C0.948791 30.1461 0.212915 27.3206 0.00488281 24.3677C0.00488281 23.5139 0.00488281 22.66 0.00488281 21.8061C0.343324 18.192 1.37107 14.407 3.13779 11.212C3.74326 10.3271 0.939476 8.58522 0.315379 8.03564C0.150816 7.09173 0.548251 6.62288 1.50458 6.62288C4.63749 6.37138 8.76708 5.7597 11.8348 6.26892C13.2289 7.10415 12.0025 15.9378 11.6143 17.571C11.3597 17.8659 11.0492 17.956 10.6891 17.8349C9.66752 17.0649 8.68015 16.2389 7.73003 15.3633C7.51268 15.5341 7.35122 15.739 7.24565 15.9812C3.49796 20.2878 5.05355 29.0221 8.12746 33.2852C9.45018 35.2568 11.0989 36.9025 13.0706 38.2283C15.1478 39.6131 18.7371 41.0724 21.2832 41.1438C24.4751 41.4264 27.5428 40.9948 30.4646 39.641C34.2495 38.1476 38.3108 34.1359 39.6459 30.3727C40.4563 28.6495 40.9593 26.8238 41.1487 24.8987C41.2667 23.6505 41.3319 21.3528 40.9717 20.1295C40.624 17.6176 39.7422 15.3199 38.3232 13.2427C37.0005 11.1841 35.3238 9.47945 33.2901 8.12258C29.6945 5.63551 25.6922 4.59224 21.2832 4.98967C19.9853 5.1294 18.3335 5.45231 17.1319 6.005C16.5481 6.16956 15.9892 6.40554 15.4552 6.70982C15.3744 6.6353 15.3154 6.54526 15.2782 6.4459C14.9894 5.2598 14.3436 4.33453 13.3376 3.66385C12.9308 3.47445 12.5179 3.31299 12.1018 3.17948C11.8658 3.13912 11.6299 3.09565 11.3939 3.04597C11.99 2.6889 12.6079 2.38151 13.2475 2.11758C14.1635 1.76362 15.0764 1.41276 15.9861 1.05879C19.119 0.217347 21.1124 0 24.2857 0ZM22.7829 19.6265C23.0375 19.6265 23.2859 19.6513 23.525 19.701C25.8568 17.4685 28.201 15.2578 30.5546 13.0657C30.7999 12.8639 31.0359 12.6434 31.2594 12.4043C31.4954 12.3546 31.7283 12.3112 31.9674 12.2708C32.6442 12.2739 33.0541 12.5968 33.2031 13.2427C33.2435 13.6215 33.169 13.9754 32.9827 14.3015C30.7067 16.8693 28.4494 19.5085 26.2232 22.1135C26.3256 22.4396 26.3784 22.7873 26.3784 23.1444C26.3784 24.2156 25.8878 25.1781 25.1147 25.824L24.5931 33.7261C24.4192 34.0925 24.1677 34.3874 23.8417 34.611C23.5094 34.7538 23.1555 34.8128 22.7829 34.7849C22.2271 34.7507 21.8297 34.4868 21.5906 33.9931L20.8423 26.1345C20.8081 26.1034 20.774 26.0724 20.7429 26.0444C19.8021 25.4079 19.1842 24.346 19.1842 23.1444C19.1842 22.1384 19.6158 21.2317 20.3082 20.589C20.51 20.3872 20.7491 20.2164 21.0224 20.0736C21.5409 19.7879 22.1433 19.6265 22.7829 19.6265ZM58.4527 67.7192C58.4527 67.6602 58.4527 67.6012 58.4527 67.5422C58.4527 65.5395 58.4527 63.5399 58.4527 61.5372C60.5144 61.5372 62.573 61.5372 64.6347 61.5372C64.6347 63.5989 64.6347 65.6575 64.6347 67.7192C62.573 67.7192 60.5144 67.7192 58.4527 67.7192ZM46.2688 67.7192C46.1819 66.7629 46.1508 65.791 46.1819 64.8037C46.1819 63.7169 46.1819 62.6271 46.1819 61.5372C48.2125 61.5372 50.2432 61.5372 52.2738 61.5372C52.2738 63.5989 52.2738 65.6575 52.2738 67.7192C50.2711 67.7192 48.2715 67.7192 46.2688 67.7192ZM33.908 61.5372C34.0849 61.5372 34.2619 61.5372 34.4389 61.5372C36.2926 61.5372 38.1462 61.5372 39.9999 61.5372C39.9999 63.5399 39.9999 65.5395 39.9999 67.5422C39.9999 67.5702 39.9999 67.6012 39.9999 67.6292C37.9692 67.6292 35.9386 67.6292 33.908 67.6292C33.908 65.5985 33.908 63.5679 33.908 61.5372ZM23.8417 61.5372C25.1395 61.5372 26.4343 61.5372 27.7291 61.5372C27.7291 63.5679 27.7291 65.5985 27.7291 67.6292C27.6701 67.6292 27.639 67.6602 27.639 67.7192C25.6394 67.7192 23.6367 67.7192 21.6371 67.7192C21.5471 65.673 21.5192 63.6145 21.5471 61.5372C22.314 61.5372 23.0779 61.5372 23.8417 61.5372ZM46.1819 54.2095C46.1819 53.7966 46.1819 53.3867 46.1819 52.9737C46.1663 51.7069 46.1819 50.4432 46.2253 49.1764C48.2342 49.2664 50.2494 49.2944 52.2738 49.2664C52.2738 51.2971 52.2738 53.3277 52.2738 55.3584C50.2432 55.3584 48.2125 55.3584 46.1819 55.3584C46.1819 54.9764 46.1819 54.5914 46.1819 54.2095ZM33.821 49.2664C35.8796 49.2664 37.9413 49.2664 39.9999 49.2664C39.9999 51.2971 39.9999 53.3277 39.9999 55.3584C37.9413 55.3584 35.8796 55.3584 33.821 55.3584C33.821 53.3277 33.821 51.2971 33.821 49.2664ZM21.5471 49.2664C23.5777 49.2664 25.6084 49.2664 27.639 49.2664C27.639 51.2971 27.639 53.3277 27.639 55.3584C25.6084 55.3584 23.5777 55.3584 21.5471 55.3584C21.5471 54.9764 21.5471 54.5914 21.5471 54.2095C21.5471 52.5608 21.5471 50.9152 21.5471 49.2664ZM64.6347 55.2683C62.5885 55.3584 60.5268 55.3863 58.4527 55.3584C58.4527 55.0044 58.4527 54.6504 58.4527 54.2996C58.4092 52.5794 58.4527 50.8717 58.5862 49.1764C60.5951 49.2664 62.6102 49.2944 64.6347 49.2664C64.6347 51.266 64.6347 53.2687 64.6347 55.2683ZM58.6297 36.9056C60.6293 36.9056 62.632 36.9056 64.6347 36.9056C64.6347 38.9642 64.6347 41.0259 64.6347 43.0844C63.8398 43.0844 63.0449 43.0844 62.25 43.0844C61.8091 43.0844 61.3651 43.0844 60.9242 43.0844C60.4833 43.0844 60.0424 43.0844 59.6015 43.0844C59.2196 43.0844 58.8346 43.0844 58.4527 43.0844C58.4527 41.0849 58.4527 39.0821 58.4527 37.0826C58.4527 36.9646 58.5117 36.9056 58.6297 36.9056ZM46.2688 36.9056C48.2715 36.9056 50.2711 36.9056 52.2738 36.9056C52.2738 38.9642 52.2738 41.0259 52.2738 43.0844C52.0658 43.0844 51.8608 43.0844 51.6559 43.0844C51.2119 43.0844 50.771 43.0844 50.3301 43.0844C49.8892 43.0844 49.4483 43.0844 49.0074 43.0844C48.5634 43.0844 48.1225 43.0844 47.6816 43.0844C47.2407 43.0844 46.7998 43.0844 46.3557 43.0844C46.1819 42.0008 46.1229 40.883 46.1819 39.7311C46.1508 38.7717 46.1819 37.8309 46.2688 36.9056ZM74.4339 12.9787C75.2474 13.3575 76.0143 13.8295 76.7285 14.3915C77.3495 14.9255 77.9084 15.5124 78.4052 16.1582C79.2311 17.4778 79.7465 18.9216 79.9514 20.4834C80.0104 37.4924 80.0104 54.5045 79.9514 71.5135C79.8086 72.8362 79.4143 74.072 78.7591 75.2239C77.3774 77.5029 75.3747 78.9157 72.7572 79.4622C72.4436 79.3939 72.1176 79.4094 71.7854 79.5056C52.6247 79.5646 33.4671 79.5646 14.3063 79.5056C13.8996 79.4187 13.4866 79.3721 13.0706 79.3721C12.2446 79.1952 11.4529 78.9312 10.6891 78.5773C9.42534 77.7265 8.36654 76.6677 7.50957 75.4009C7.00657 74.5315 6.62156 73.6186 6.36074 72.6623C6.31106 72.1904 6.25207 71.7184 6.18376 71.2495C6.18376 70.8366 6.18376 70.4267 6.18376 70.0138C6.17134 60.9504 6.18376 51.8839 6.23033 42.8205C6.47562 43.0813 6.75507 43.2894 7.06867 43.4384C7.73934 44.0097 8.44727 44.5407 9.18625 45.0282C10.1457 45.6771 11.161 46.236 12.2322 46.7048C12.2633 54.8274 12.2912 62.95 12.3223 71.0726C12.4651 72.4822 13.2165 73.3796 14.5734 73.7677C33.5881 73.8391 52.5998 73.8236 71.6084 73.7211C72.7169 73.4665 73.4217 72.7896 73.726 71.6905C73.816 58.069 73.844 44.4413 73.816 30.8136C65.2463 30.6956 56.6673 30.6956 48.079 30.8136C48.0386 30.7609 48.0231 30.7019 48.0355 30.6367C48.2094 30.143 48.3553 29.6431 48.4764 29.137C48.5975 28.8296 48.6845 28.5067 48.7404 28.1651C49.7898 22.8028 49.0726 17.3909 46.7998 12.4478C49.6377 12.3609 52.4943 12.3298 55.3632 12.3609C55.3477 14.5685 55.3632 16.7761 55.4067 18.9837C55.4688 19.6544 55.6551 20.5548 56.0681 21.1013C56.5214 22.2315 57.2883 23.0854 58.3657 23.6629C59.1544 24.2032 60.0362 24.5137 61.0143 24.5882C64.1068 24.6565 66.2275 23.2593 67.3701 20.3965C67.5564 19.8842 67.6589 19.3532 67.6806 18.8068C67.7241 16.6271 67.7396 14.4505 67.7241 12.2708C68.9599 12.2584 70.1956 12.2708 71.4314 12.3174C72.4592 12.4261 73.459 12.6465 74.4339 12.9787ZM60.8373 6.17887C61.3061 6.17887 61.7781 6.17887 62.25 6.17887C63.2809 6.4459 64.0168 7.06379 64.4577 8.03564C64.5074 8.23746 64.5508 8.44239 64.5881 8.65353C64.6471 12.1249 64.6471 15.5993 64.5881 19.0707C64.5136 19.3781 64.4111 19.673 64.2807 19.9525C63.8087 20.8529 63.0729 21.3808 62.0731 21.5422C61.7191 21.5422 61.3651 21.5422 61.0143 21.5422C59.9679 21.3714 59.2041 20.8126 58.7166 19.8655C58.6359 19.6047 58.5614 19.3408 58.4962 19.0707C58.4372 15.5683 58.4372 12.0659 58.4962 8.56348C58.5427 8.3865 58.5862 8.20952 58.6297 8.03564C58.847 7.52022 59.173 7.07931 59.6015 6.70982C59.6605 6.68188 59.7195 6.65083 59.7785 6.62288C60.1169 6.42106 60.4709 6.27513 60.8373 6.17887Z" fill="#EF7605"/>
</g>
<defs>
<clipPath id="clip0_100_193">
<rect width="80" height="79.5491" fill="white"/>
</clipPath>
</defs>
</svg>
