<svg width="102" height="41" viewBox="0 0 102 41" fill="none" xmlns="http://www.w3.org/2000/svg">
<g clip-path="url(#clip0_1274_3355)">
<path d="M45.1534 8.02405H33.1816V23.0209H45.1534V8.02405Z" fill="#048AC4"/>
<path d="M30.7144 9.48297H28.6118V23.0209H30.7144V9.48297Z" fill="#2B2A29"/>
<path d="M95.2075 6.60808L95.2719 2.38149L98.0824 0.278931L98.3614 0.643661L95.7224 2.6175L95.6581 6.62953L95.2075 6.60808Z" fill="#FFED00"/>
<path fill-rule="evenodd" clip-rule="evenodd" d="M98.3398 10.8347C98.3398 11.7572 98.3398 12.6798 98.3398 13.6023C95.5078 13.6023 92.6757 13.6023 89.8223 13.6023C89.8223 12.6798 89.8223 11.7572 89.8223 10.8347C92.6757 10.8347 95.5078 10.8347 98.3398 10.8347Z" fill="#121413"/>
<path d="M97.4174 6.62952H90.2944V10.7917H97.4174V6.62952Z" fill="#B2B3B3"/>
<path d="M31.0753 23.5473L29.5322 23.1181L34.1954 6.3541L35.7385 6.78332L31.0753 23.5473Z" fill="#048AC4"/>
<path fill-rule="evenodd" clip-rule="evenodd" d="M21.682 7.93823C15.7819 7.91677 9.90334 7.93823 4.00328 7.98114C3.87456 8.47459 3.87456 8.9466 4.00328 9.44006C9.90334 9.50442 15.7819 9.50442 21.682 9.44006C21.8107 8.9466 21.8107 8.43169 21.682 7.93823Z" fill="#EF7605"/>
<path fill-rule="evenodd" clip-rule="evenodd" d="M1.94385 36.4302C2.58749 36.4945 3.16677 36.4302 3.70314 36.2371C3.70314 35.9367 3.70314 35.6578 3.70314 35.3574C4.38969 35.3574 5.07624 35.3574 5.76279 35.3574C5.78425 31.9676 7.4148 29.7363 10.633 28.6635C14.4949 28.0414 17.1338 29.5217 18.5927 33.1047C18.7644 33.8556 18.8502 34.6065 18.8502 35.3574C18.8502 35.5505 18.8502 35.7436 18.8502 35.9367C28.6121 35.9367 38.374 35.9367 48.1359 35.9367C48.0501 34.8854 48.1574 33.8341 48.4148 32.8258C39.1464 32.8258 29.8779 32.8258 20.6095 32.8258C20.6095 32.4396 20.6095 32.0319 20.6095 31.6458C20.9313 31.6458 21.2531 31.6458 21.5749 31.6458C21.5749 24.4584 21.5749 17.2711 21.5749 10.0837C15.9109 10.0837 10.2468 10.0837 4.58278 10.0837C3.7675 12.9372 2.88786 15.8122 2.00821 18.6656C1.94385 20.1246 1.94385 21.6049 1.94385 23.0639C3.46713 23.3642 4.28241 24.2868 4.38969 25.8315C4.28241 27.3977 3.46713 28.3203 1.94385 28.6206C1.94385 31.2167 1.94385 33.8341 1.94385 36.4302Z" fill="#EF7605"/>
<path fill-rule="evenodd" clip-rule="evenodd" d="M23.0336 11.0492C22.7761 11.0492 22.5187 11.0492 22.2612 11.0492C22.2612 17.5929 22.2612 24.1366 22.2612 30.6803C22.5187 30.6803 22.7761 30.6803 23.0336 30.6803C23.0336 24.1366 23.0336 17.5929 23.0336 11.0492Z" fill="#141615"/>
<path fill-rule="evenodd" clip-rule="evenodd" d="M28.1614 12.5295C26.5737 12.5295 24.9861 12.5295 23.3984 12.5295C23.3984 18.022 23.3984 23.5144 23.3984 29.0068C24.9861 29.0068 26.5737 29.0068 28.1614 29.0068C28.1614 23.5144 28.1614 18.022 28.1614 12.5295Z" fill="#121413"/>
<path fill-rule="evenodd" clip-rule="evenodd" d="M0.871003 23.5573C0.613546 23.5573 0.35609 23.5573 0.0986328 23.5573C0.0986328 25.0806 0.0986328 26.6039 0.0986328 28.1272C0.35609 28.1272 0.613546 28.1272 0.871003 28.1272C0.871003 26.6039 0.871003 25.0806 0.871003 23.5573Z" fill="#EF7605"/>
<path fill-rule="evenodd" clip-rule="evenodd" d="M1.47168 23.5573C1.47168 25.0377 1.47168 26.5395 1.47168 28.0414C1.66477 28.0414 1.85787 28.0414 2.05096 28.0414C2.90915 27.8483 3.48842 27.3333 3.76734 26.4752C4.00334 24.7159 3.23097 23.7289 1.47168 23.5573Z" fill="#EF7605"/>
<path fill-rule="evenodd" clip-rule="evenodd" d="M18.5499 31.6457C19.0862 31.6886 19.6011 31.6457 20.1161 31.5599C18.7644 28.685 16.5117 26.99 13.3793 26.4322C9.0025 26.1962 5.93448 28.0628 4.15373 32.0319C3.83191 32.933 3.68173 33.8341 3.70318 34.7781C4.19664 34.7781 4.6901 34.7781 5.18356 34.7781C5.46247 31.1308 7.37194 28.8566 10.9334 27.9984C14.3018 27.505 16.8335 28.7279 18.5499 31.6457Z" fill="#F8F8F8"/>
<path fill-rule="evenodd" clip-rule="evenodd" d="M9.28125 20.9184C9.28125 21.3046 9.28125 21.6908 9.28125 22.077C10.354 22.077 11.4267 22.077 12.4995 22.077C12.4995 21.6908 12.4995 21.3046 12.4995 20.9184C11.4267 20.9184 10.354 20.9184 9.28125 20.9184Z" fill="#FDFDFD"/>
<path fill-rule="evenodd" clip-rule="evenodd" d="M2.63037 18.4725C6.5995 18.5584 10.5686 18.6013 14.5377 18.5584C15.0098 18.4511 15.2887 18.1507 15.3745 17.7002C15.4388 15.7049 15.4388 13.7096 15.3745 11.7358C15.2243 11.3281 14.9454 11.0492 14.5377 10.899C11.3195 10.8132 8.10133 10.8347 4.88312 10.9634C4.11075 13.4521 3.35983 15.9623 2.63037 18.4725Z" fill="#F6F6F6"/>
<path fill-rule="evenodd" clip-rule="evenodd" d="M3.42432 17.786C7.05017 17.8932 10.6975 17.9147 14.3448 17.8932C14.5379 17.8718 14.6451 17.786 14.6881 17.5929C14.7524 15.7048 14.7524 13.8168 14.6881 11.9288C14.6666 11.843 14.6022 11.7572 14.5379 11.6928C11.4698 11.5426 8.38036 11.4997 5.26942 11.5426C4.62578 13.6237 4.00359 15.7048 3.42432 17.786Z" fill="#A2D9F7"/>
<path fill-rule="evenodd" clip-rule="evenodd" d="M12.3921 11.9289C12.0488 11.9074 11.7055 11.9289 11.3837 12.0361C10.9975 13.8598 10.6328 15.7049 10.2466 17.55C10.6113 17.5929 10.976 17.6144 11.3193 17.5929C11.6197 15.6834 11.9844 13.7954 12.3921 11.9289Z" fill="#FEFEFE"/>
<path fill-rule="evenodd" clip-rule="evenodd" d="M9.96805 11.9288C9.79641 11.9288 9.62478 11.9288 9.47459 11.9288C9.06695 13.8168 8.72368 15.7049 8.40186 17.5929C8.55204 17.5929 8.72368 17.5929 8.89531 17.5929C9.23859 15.7049 9.60332 13.8168 9.96805 11.9288Z" fill="#FEFEFE"/>
<path fill-rule="evenodd" clip-rule="evenodd" d="M6.94287 17.2925C6.94287 17.3998 6.94287 17.4856 6.94287 17.5929C7.0716 17.5929 7.20033 17.5929 7.32906 17.5929C7.7367 15.7048 8.12288 13.8168 8.48761 11.9288C8.29452 11.9074 8.12288 11.9503 7.95124 12.0361C7.62942 13.7954 7.28615 15.5547 6.94287 17.2925Z" fill="#FEFEFE"/>
<path d="M89.3289 2.89636H72.916V17.8932H89.3289V2.89636Z" fill="#048AC4"/>
<path fill-rule="evenodd" clip-rule="evenodd" d="M13.2719 29.0068C9.58168 28.8566 7.26457 30.5515 6.2991 34.0916C6.14892 37.7818 7.8653 40.0774 11.4268 40.9785C14.409 41.1931 16.533 39.9916 17.8203 37.3098C18.8716 34.2847 18.0992 31.8174 15.5246 29.9508C14.8166 29.5217 14.0657 29.1999 13.2719 29.0068Z" fill="#151716"/>
<path fill-rule="evenodd" clip-rule="evenodd" d="M13.2718 31.1523C10.8903 30.8733 9.28121 31.8603 8.44448 34.0916C8.16557 36.1941 8.95939 37.7174 10.8474 38.64C13.3576 39.3051 15.0954 38.4469 16.0609 36.0439C16.4685 33.641 15.546 32.0319 13.2718 31.1523Z" fill="#F1F1F1"/>
<path fill-rule="evenodd" clip-rule="evenodd" d="M12.9929 31.753C10.9762 31.6243 9.66741 32.5039 9.02377 34.3919C8.87359 36.237 9.66741 37.5029 11.4267 38.1465C13.5078 38.5112 14.8595 37.696 15.4816 35.6578C15.6533 33.7054 14.8165 32.3966 12.9929 31.753Z" fill="#151716"/>
<path fill-rule="evenodd" clip-rule="evenodd" d="M12.0061 32.6326C11.341 32.6326 11.105 32.9545 11.2767 33.5981C11.6414 33.9843 11.9847 33.9843 12.3494 33.5981C12.4996 33.169 12.3709 32.8472 12.0061 32.6326Z" fill="#F1F1F1"/>
<path fill-rule="evenodd" clip-rule="evenodd" d="M14.2586 33.8985C13.4648 33.9414 13.2288 34.3276 13.5721 35.0141C14.323 35.336 14.6663 35.1 14.6019 34.2847C14.4517 34.1774 14.3444 34.0487 14.2586 33.8985Z" fill="#EEEEEE"/>
<path fill-rule="evenodd" clip-rule="evenodd" d="M10.8474 34.864C10.0107 34.864 9.77471 35.2072 10.1609 35.9367C10.4398 36.0654 10.7187 36.0654 10.9762 35.9367C11.2122 35.5505 11.1693 35.1858 10.8474 34.864Z" fill="#F7F8F7"/>
<path fill-rule="evenodd" clip-rule="evenodd" d="M13.0786 36.1512C12.1561 36.1298 11.9201 36.4945 12.3921 37.2669C13.379 37.3312 13.615 36.9665 13.0786 36.1512Z" fill="#F3F3F3"/>
<path fill-rule="evenodd" clip-rule="evenodd" d="M72.916 17.8932C72.916 19.4809 72.916 21.0686 72.916 22.6562C78.387 22.6562 83.8579 22.6562 89.3289 22.6562C89.3289 21.0686 89.3289 19.4809 89.3289 17.8932C83.8579 17.8932 78.387 17.8932 72.916 17.8932Z" fill="#121413"/>
<path fill-rule="evenodd" clip-rule="evenodd" d="M101.15 14.2889C101.15 17.078 101.15 19.8671 101.15 22.6562C97.3743 22.6562 93.5983 22.6562 89.8223 22.6562C89.8223 19.8671 89.8223 17.078 89.8223 14.2889C93.5983 14.2889 97.3743 14.2889 101.15 14.2889Z" fill="#121413"/>
<path fill-rule="evenodd" clip-rule="evenodd" d="M79.0947 23.0209C79.0947 25.574 79.0947 28.1272 79.0947 30.6803C82.506 30.6803 85.9173 30.6803 89.3286 30.6803C89.3286 28.1272 89.3286 25.574 89.3286 23.0209C85.9173 23.0209 82.506 23.0209 79.0947 23.0209Z" fill="#121413"/>
<path fill-rule="evenodd" clip-rule="evenodd" d="M28.6118 23.0209C28.6118 25.574 28.6118 28.1272 28.6118 30.6803C33.7824 30.6803 38.9745 30.6803 44.1665 30.6803C44.1665 28.1272 44.1665 25.574 44.1665 23.0209C38.9745 23.0209 33.7824 23.0209 28.6118 23.0209Z" fill="#121413"/>
<path fill-rule="evenodd" clip-rule="evenodd" d="M49.7878 30.4872C44.1881 30.4872 38.5885 30.4872 32.9888 30.4872C32.9888 31.0665 32.9888 31.6457 32.9888 32.2465C38.2452 32.2679 43.4801 32.2465 48.7151 32.1392C49.0584 31.5599 49.4016 31.0021 49.7878 30.4872Z" fill="#EF7605"/>
<path fill-rule="evenodd" clip-rule="evenodd" d="M60.8154 32.8257C61.2016 33.8341 61.3089 34.8639 61.1158 35.9367C61.9525 35.9367 62.8107 35.9367 63.6475 35.9367C63.5831 34.9068 63.6904 33.8985 63.9478 32.9116C62.918 32.8257 61.8882 32.7828 60.8154 32.8257Z" fill="#EF7605"/>
<path fill-rule="evenodd" clip-rule="evenodd" d="M65.4067 30.573C63.4114 30.4657 61.3946 30.4442 59.3564 30.5301C59.8499 31.0021 60.2361 31.5384 60.5365 32.1392C61.8023 32.2464 63.0681 32.2679 64.3339 32.2464C64.527 31.5599 64.8703 31.0235 65.4067 30.573Z" fill="#EF7605"/>
<path fill-rule="evenodd" clip-rule="evenodd" d="M81.8197 32.8257C79.9961 32.7828 78.2153 32.8257 76.4346 32.9116C76.6706 33.7697 76.7778 34.6494 76.7349 35.5505C76.7349 35.6792 76.7349 35.8079 76.7349 35.9367C78.4299 35.9367 80.1248 35.9367 81.8197 35.9367C81.8197 34.9068 81.8197 33.8556 81.8197 32.8257Z" fill="#EF7605"/>
<path fill-rule="evenodd" clip-rule="evenodd" d="M78.58 30.4872C77.3785 30.4657 76.1771 30.4872 74.9756 30.5301C75.4476 31.0235 75.8123 31.6028 76.0483 32.2465C76.9065 32.2465 77.7432 32.2465 78.58 32.2465C78.58 31.6457 78.58 31.0665 78.58 30.4872Z" fill="#EF7605"/>
<path fill-rule="evenodd" clip-rule="evenodd" d="M55.3448 29.0068C52.427 28.8566 50.3244 30.101 49.0586 32.7185C48.1146 35.6578 48.844 38.0822 51.247 39.9916C54.6583 41.7938 57.5117 41.1717 59.7859 38.1036C61.4165 34.7352 60.7085 31.989 57.7048 29.8436C56.9539 29.4359 56.1601 29.157 55.3448 29.0068Z" fill="#151716"/>
<path fill-rule="evenodd" clip-rule="evenodd" d="M55.5593 31.1523C53.328 30.8734 51.7833 31.753 50.9036 33.7912C50.3673 36.1941 51.2469 37.8247 53.4997 38.7258C55.967 39.2407 57.5975 38.2967 58.4343 35.9367C58.7775 33.5552 57.8121 31.9676 55.5593 31.1523Z" fill="#F2F2F2"/>
<path fill-rule="evenodd" clip-rule="evenodd" d="M55.3447 31.753C52.4268 31.7315 51.1395 33.169 51.5043 36.0439C52.3196 37.8461 53.6927 38.5327 55.645 38.1465C57.4043 37.3956 58.1338 36.0868 57.8334 34.1988C57.4043 32.9544 56.589 32.1392 55.3447 31.753Z" fill="#151716"/>
<path fill-rule="evenodd" clip-rule="evenodd" d="M54.3789 32.6326C53.7138 32.6326 53.4563 32.9544 53.6494 33.5981C53.864 33.877 54.1429 33.9628 54.4647 33.8555C54.8723 33.405 54.8509 32.9974 54.3789 32.6326Z" fill="#F2F2F2"/>
<path fill-rule="evenodd" clip-rule="evenodd" d="M56.6317 33.8985C55.8378 33.9414 55.6018 34.3276 55.9451 35.0141C56.6746 35.2931 56.9964 35.0571 56.9749 34.2847C56.8248 34.1774 56.7175 34.0487 56.6317 33.8985Z" fill="#EFF0F0"/>
<path fill-rule="evenodd" clip-rule="evenodd" d="M53.199 34.864C52.3408 34.864 52.1262 35.2501 52.5124 36.0011C53.5208 36.0869 53.7354 35.7007 53.199 34.864Z" fill="#F6F6F6"/>
<path fill-rule="evenodd" clip-rule="evenodd" d="M55.3445 36.1512C54.4434 36.1512 54.2503 36.5374 54.7652 37.2669C55.4303 37.4385 55.7522 37.2025 55.6878 36.5374C55.6234 36.3443 55.5162 36.2156 55.3445 36.1512Z" fill="#F2F2F2"/>
<path fill-rule="evenodd" clip-rule="evenodd" d="M70.8992 29.0068C67.9599 28.8566 65.8574 30.101 64.5916 32.7185C63.6475 35.6578 64.3985 38.0822 66.8014 39.9916C70.1912 41.7938 73.0447 41.1717 75.3404 38.1036C76.9495 34.7352 76.2629 31.989 73.2378 29.8436C72.4869 29.4359 71.7145 29.157 70.8992 29.0068Z" fill="#151716"/>
<path fill-rule="evenodd" clip-rule="evenodd" d="M71.0922 31.1523C68.8609 30.8734 67.3161 31.753 66.4579 33.7912C65.9216 36.1941 66.7798 37.8247 69.0325 38.7258C71.4998 39.2407 73.1518 38.2967 73.9671 35.9367C74.3104 33.5552 73.3449 31.9676 71.0922 31.1523Z" fill="#F2F2F2"/>
<path fill-rule="evenodd" clip-rule="evenodd" d="M70.8991 31.753C67.9598 31.7315 66.694 33.169 67.0373 36.0439C67.8525 37.8461 69.2471 38.5327 71.178 38.1465C72.9373 37.3956 73.6882 36.0868 73.3879 34.1988C72.9588 32.9544 72.122 32.1392 70.8991 31.753Z" fill="#151716"/>
<path fill-rule="evenodd" clip-rule="evenodd" d="M69.9124 32.6326C69.2473 32.6326 69.0113 32.9544 69.1829 33.5981C69.3975 33.877 69.6764 33.9628 70.0196 33.8555C70.4273 33.405 70.3844 32.9974 69.9124 32.6326Z" fill="#F2F2F2"/>
<path fill-rule="evenodd" clip-rule="evenodd" d="M72.1652 33.8985C71.3714 33.9414 71.1568 34.3276 71.4786 35.0141C72.2081 35.2931 72.5514 35.0571 72.5085 34.2847C72.3797 34.1774 72.251 34.0487 72.1652 33.8985Z" fill="#EFF0F0"/>
<path fill-rule="evenodd" clip-rule="evenodd" d="M68.7539 34.864C67.8957 34.864 67.6597 35.2501 68.0674 36.0011C69.0543 36.0869 69.2903 35.7007 68.7539 34.864Z" fill="#F6F6F6"/>
<path fill-rule="evenodd" clip-rule="evenodd" d="M70.8995 36.1512C69.9769 36.1512 69.7838 36.5374 70.3202 37.2669C70.9853 37.4385 71.2857 37.2025 71.2428 36.5374C71.1784 36.3443 71.0497 36.2156 70.8995 36.1512Z" fill="#F2F2F2"/>
<path fill-rule="evenodd" clip-rule="evenodd" d="M28.6118 23.0209C28.6118 24.3082 28.6118 25.5741 28.6118 26.8613C46.1189 26.8613 63.6259 26.8613 81.1116 26.8613C81.1116 25.5741 81.1116 24.3082 81.1116 23.0209C63.6259 23.0209 46.1189 23.0209 28.6118 23.0209Z" fill="#121413"/>
<path d="M28.6118 15.2972H49.7876V16.1125H28.6118V15.2972Z" fill="#E31E24"/>
<path d="M28.6118 16.9063H49.7876V17.7001H28.6118V16.9063Z" fill="#E31E24"/>
<path d="M28.6118 18.5154H49.7876V19.3093H28.6118V18.5154Z" fill="#E31E24"/>
<path d="M28.6118 20.1031H49.7876V20.9184H28.6118V20.1031Z" fill="#E31E24"/>
<path d="M28.6118 21.7122H49.7876V22.506H28.6118V21.7122Z" fill="#E31E24"/>
<path d="M30.7144 4.99896H29.6631V9.50446H30.7144V4.99896Z" fill="#B2B3B3"/>
<path d="M45.1534 3.86188H33.1816V8.0241H45.1534V3.86188Z" fill="#B2B3B3"/>
<path fill-rule="evenodd" clip-rule="evenodd" d="M37.301 1.13708H40.9697L45.1748 3.86184H33.1816L37.301 1.13708Z" fill="#B2B3B3"/>
<path d="M72.9158 16.9063H63.9478V17.8932H72.9158V16.9063Z" fill="#FFED00"/>
<path d="M72.83 20.5966H67.123V23.0424H72.83V20.5966Z" fill="#FFED00"/>
<path d="M67.1019 17.7001H50.7534V23.0209H67.1019V17.7001Z" fill="#EF7605"/>
<path d="M72.916 4.99895H64.1625V17.7002H63.7119V4.5484H72.916V4.99895Z" fill="#FFED00"/>
<path d="M72.9158 8.02407H62.6175V17.7002H62.1455V7.55206H72.9158V8.02407Z" fill="#FFED00"/>
<path d="M72.9159 9.78337H50.9891V23.0209H50.5386V9.33282H72.9159V9.78337Z" fill="#FFED00"/>
<path d="M52.3623 17.7002V9.54736H52.8129V17.7002H52.3623Z" fill="#FFED00"/>
<path d="M58.0049 17.7002V9.54736H58.4554V17.7002H58.0049Z" fill="#FFED00"/>
<path d="M72.9156 14.3961H62.3813V13.9456H72.9156V14.3961Z" fill="#FFED00"/>
<path d="M67.4021 7.78809L67.3378 18.1507V23.0209H66.8872V18.1507L66.9516 7.78809H67.4021Z" fill="#FFED00"/>
<path d="M52.5981 12.7441H58.2193V13.1947H52.5981V12.7441Z" fill="#FFED00"/>
<path d="M52.5981 15.7048H58.2193V16.1554H52.5981V15.7048Z" fill="#FFED00"/>
<path d="M62.3813 10.5343H72.9156V10.9849H62.3813V10.5343Z" fill="#FFED00"/>
<path d="M89.6079 10.8347L89.6294 0.236023H98.4473V10.8347H97.9967V0.686572H90.0799L90.0585 10.8347H89.6079Z" fill="#FFED00"/>
<path d="M98.2325 5.21355H89.8223V4.763H98.2325V5.21355Z" fill="#FFED00"/>
<path d="M94.2635 0.472046V10.8347H93.813V0.472046H94.2635Z" fill="#FFED00"/>
<path fill-rule="evenodd" clip-rule="evenodd" d="M34.2117 12.2506L35.735 6.77968L34.1903 6.35059L32.667 11.8215L34.2117 12.2506Z" fill="#B2B3B3"/>
<path d="M40.9915 0H37.3013V1.1371H40.9915V0Z" fill="#B2B3B3"/>
</g>
<defs>
<clipPath id="clip0_1274_3355">
<rect width="101.249" height="41" fill="white"/>
</clipPath>
</defs>
</svg>
