<svg width="92" height="35" viewBox="0 0 92 35" fill="none" xmlns="http://www.w3.org/2000/svg">
<g clip-path="url(#clip0_1271_3305)">
<path fill-rule="evenodd" clip-rule="evenodd" d="M21.7456 1.77761C15.8362 1.75359 9.92683 1.77761 3.9934 1.82566C3.87329 2.33012 3.87329 2.81056 3.9934 3.291C9.92683 3.36306 15.8362 3.36306 21.7456 3.291C21.8898 2.78653 21.8898 2.28207 21.7456 1.77761Z" fill="#EF7605"/>
<path fill-rule="evenodd" clip-rule="evenodd" d="M1.95132 30.4118C2.57589 30.4838 3.15242 30.4118 3.70492 30.2196C3.70492 29.9313 3.70492 29.6431 3.70492 29.3308C4.40156 29.3308 5.07417 29.3308 5.77081 29.3308C5.79483 25.9197 7.42833 23.6856 10.6713 22.6287C14.5388 21.9801 17.2053 23.4694 18.6706 27.0967C18.8388 27.8414 18.9108 28.5861 18.9108 29.3308C18.9108 29.547 18.9108 29.7392 18.9108 29.9313C28.7118 29.9313 38.5368 29.9313 48.3377 29.9313C48.2657 28.8744 48.3618 27.8174 48.626 26.7845C39.3055 26.7845 29.985 26.7845 20.6644 26.7845C20.6644 26.4001 20.6644 26.0158 20.6644 25.6074C21.0007 25.6074 21.337 25.6074 21.6493 25.6074C21.6493 18.4008 21.6493 11.1702 21.6493 3.93958C15.9561 3.93958 10.2869 3.93958 4.59373 3.93958C3.75297 6.82221 2.88818 9.70485 1.99936 12.5635C1.95132 14.0528 1.9273 15.5182 1.95132 16.9835C3.4647 17.2958 4.28145 18.2086 4.40156 19.77C4.28145 21.3315 3.4647 22.2683 1.95132 22.5806C1.95132 25.199 1.95132 27.8174 1.95132 30.4118Z" fill="#EF7605"/>
<path fill-rule="evenodd" clip-rule="evenodd" d="M23.1389 4.9245C22.8747 4.9245 22.6104 4.9245 22.3462 4.9245C22.3462 11.4825 22.3462 18.0645 22.3462 24.6465C22.6104 24.6465 22.8747 24.6465 23.1389 24.6465C23.1389 18.0645 23.1389 11.4825 23.1389 4.9245Z" fill="#141615"/>
<path fill-rule="evenodd" clip-rule="evenodd" d="M28.7119 6.41388C27.1265 6.41388 25.541 6.41388 23.9556 6.41388C23.9556 11.9149 23.9556 17.44 23.9556 22.965C25.541 22.965 27.1265 22.965 28.7119 22.965C28.7119 17.44 28.7119 11.9149 28.7119 6.41388Z" fill="#121413"/>
<path fill-rule="evenodd" clip-rule="evenodd" d="M0.870362 17.464C0.60612 17.464 0.341878 17.464 0.0776367 17.464C0.0776367 19.0014 0.0776367 20.5388 0.0776367 22.0762C0.341878 22.0762 0.60612 22.0762 0.870362 22.0762C0.870362 20.5388 0.870362 19.0014 0.870362 17.464Z" fill="#EF7605"/>
<path fill-rule="evenodd" clip-rule="evenodd" d="M1.44678 17.464C1.44678 18.9774 1.44678 20.4908 1.44678 21.9801C1.63895 21.9801 1.85515 21.9801 2.04733 21.9801C2.91212 21.7879 3.46462 21.2595 3.75289 20.4187C3.99311 18.6411 3.2244 17.6562 1.44678 17.464Z" fill="#EF7605"/>
<path fill-rule="evenodd" clip-rule="evenodd" d="M18.6224 25.6074C19.1508 25.6555 19.6793 25.6074 20.1838 25.5113C18.8145 22.6287 16.5805 20.9231 13.4096 20.3706C9.0376 20.1304 5.93877 22.0041 4.13712 26.0158C3.82483 26.9046 3.6807 27.8174 3.70472 28.7543C4.20918 28.7543 4.68962 28.7543 5.17006 28.7543C5.45833 25.103 7.38008 22.8209 10.9594 21.9321C14.3465 21.4516 16.8928 22.6767 18.6224 25.6074Z" fill="#F8F8F8"/>
<path fill-rule="evenodd" clip-rule="evenodd" d="M9.30225 14.8215C9.30225 15.2299 9.30225 15.6143 9.30225 15.9986C10.3832 15.9986 11.4642 15.9986 12.5452 15.9986C12.5452 15.6143 12.5452 15.2299 12.5452 14.8215C11.4642 14.8215 10.3832 14.8215 9.30225 14.8215Z" fill="#FDFDFD"/>
<path fill-rule="evenodd" clip-rule="evenodd" d="M2.62402 12.3713C6.61167 12.4674 10.5993 12.5154 14.587 12.4674C15.0434 12.3473 15.3316 12.059 15.4277 11.5786C15.4998 9.58475 15.4998 7.59093 15.4277 5.59711C15.2836 5.18873 14.9953 4.92449 14.587 4.78036C11.368 4.68427 8.12505 4.70829 4.88209 4.8284C4.11339 7.32669 3.3687 9.84899 2.62402 12.3713Z" fill="#F6F6F6"/>
<path fill-rule="evenodd" clip-rule="evenodd" d="M3.4165 11.6987C7.06784 11.7948 10.7192 11.8188 14.3945 11.7948C14.5867 11.7707 14.7068 11.6747 14.7308 11.4825C14.8029 9.58474 14.8029 7.68701 14.7308 5.81329C14.7068 5.7172 14.6588 5.62112 14.5867 5.54905C11.4879 5.40492 8.38905 5.35687 5.2662 5.40492C4.6176 7.49483 3.99303 9.58474 3.4165 11.6987Z" fill="#A2D9F7"/>
<path fill-rule="evenodd" clip-rule="evenodd" d="M12.4251 5.81334C12.0888 5.7653 11.7284 5.81334 11.4161 5.90943C11.0318 7.75912 10.6474 9.60881 10.2871 11.4345C10.6474 11.4825 11.0078 11.5065 11.3681 11.4825C11.6564 9.58479 12.0167 7.68706 12.4251 5.81334Z" fill="#FEFEFE"/>
<path fill-rule="evenodd" clip-rule="evenodd" d="M9.97451 5.81329C9.83038 5.81329 9.66223 5.81329 9.49407 5.81329C9.0857 7.68701 8.72537 9.58474 8.41309 11.4825C8.58124 11.4825 8.74939 11.4825 8.91755 11.4825C9.25385 9.58474 9.61418 7.71103 9.97451 5.81329Z" fill="#FEFEFE"/>
<path fill-rule="evenodd" clip-rule="evenodd" d="M6.94775 11.1942C6.94775 11.2903 6.94775 11.3864 6.94775 11.4825C7.06786 11.4825 7.212 11.4825 7.33211 11.4825C7.74048 9.60876 8.14885 7.71103 8.50918 5.81329C8.31701 5.78927 8.14885 5.81329 7.9807 5.90938C7.64439 7.66298 7.28406 9.44061 6.94775 11.1942Z" fill="#FEFEFE"/>
<path d="M91.193 2.25806H69.0928V23.9499H91.193V2.25806Z" fill="#048AC4"/>
<path fill-rule="evenodd" clip-rule="evenodd" d="M41.8521 23.8538H66.4746L59.1719 9.6568L57.4423 10.7138L61.0936 20.3466H51.8452C47.9536 17.4639 41.8521 16.2148 41.8521 23.8538Z" fill="#048AC4"/>
<path fill-rule="evenodd" clip-rule="evenodd" d="M13.3138 22.965C9.61447 22.7968 7.28434 24.5024 6.29944 28.0577C6.1553 31.7811 7.86086 34.0872 11.4642 34.976C14.4429 35.2162 16.5808 33.9911 17.878 31.3006C18.935 28.2498 18.1663 25.7996 15.5719 23.9018C14.8513 23.4695 14.1066 23.1572 13.3138 22.965Z" fill="#151716"/>
<path fill-rule="evenodd" clip-rule="evenodd" d="M13.3138 25.127C10.9116 24.8387 9.30217 25.8236 8.4614 28.0577C8.17314 30.1716 8.96587 31.709 10.8636 32.6218C13.3859 33.3185 15.1395 32.4537 16.1244 30.0275C16.5328 27.6253 15.5959 25.9918 13.3138 25.127Z" fill="#F1F1F1"/>
<path fill-rule="evenodd" clip-rule="evenodd" d="M13.0257 25.7035C11.0079 25.5834 9.68666 26.4722 9.06209 28.3699C8.89394 30.2436 9.71068 31.4928 11.4643 32.1414C13.5542 32.5257 14.9234 31.6849 15.524 29.6431C15.7162 27.6733 14.8754 26.3761 13.0257 25.7035Z" fill="#151716"/>
<path fill-rule="evenodd" clip-rule="evenodd" d="M12.0406 26.5923C11.368 26.5923 11.1277 26.9286 11.3199 27.5772C11.6802 27.9615 12.0166 27.9615 12.3769 27.5772C12.521 27.1448 12.4009 26.8085 12.0406 26.5923Z" fill="#F1F1F1"/>
<path fill-rule="evenodd" clip-rule="evenodd" d="M14.2985 27.8655C13.5057 27.9375 13.2655 28.2979 13.6018 28.9945C14.3705 29.3308 14.7068 29.0666 14.6348 28.2739C14.5147 28.1537 14.3946 28.0096 14.2985 27.8655Z" fill="#EEEEEE"/>
<path fill-rule="evenodd" clip-rule="evenodd" d="M10.8636 28.8504C10.0229 28.8263 9.80668 29.1867 10.191 29.9314C10.4553 30.0515 10.7435 30.0515 11.0078 29.9314C11.248 29.523 11.2 29.1627 10.8636 28.8504Z" fill="#F7F8F7"/>
<path fill-rule="evenodd" clip-rule="evenodd" d="M13.1214 30.1236C12.1846 30.0995 11.9684 30.4839 12.4248 31.2526C13.4337 31.3247 13.6499 30.9643 13.1214 30.1236Z" fill="#F3F3F3"/>
<path d="M69.0927 24.07H29.8408V0H30.2972V23.6136H69.0927V24.07Z" fill="#2B2A29"/>
<path d="M69.0928 8.02331H30.0571V7.56689H69.0928V8.02331Z" fill="#2B2A29"/>
<path d="M69.0928 13.3322H30.0571V12.8758H69.0928V13.3322Z" fill="#2B2A29"/>
<path d="M69.0928 18.9293H30.0571V18.4729H69.0928V18.9293Z" fill="#2B2A29"/>
<path d="M42.7645 7.78314V23.8538H42.3081V7.78314H42.7645Z" fill="#2B2A29"/>
<path d="M56.7933 7.78314V23.8538H56.3369V7.78314H56.7933Z" fill="#2B2A29"/>
<path fill-rule="evenodd" clip-rule="evenodd" d="M49.9953 24.4304C44.3741 24.4304 38.753 24.4304 33.1318 24.4304C33.1318 25.0309 33.1318 25.6074 33.1318 26.208C38.3926 26.232 43.6535 26.208 48.9143 26.1119C49.2506 25.5354 49.6109 24.9829 49.9953 24.4304Z" fill="#EF7605"/>
<path fill-rule="evenodd" clip-rule="evenodd" d="M61.0933 26.7845C61.4776 27.8174 61.5737 28.8504 61.3815 29.9314C62.2223 29.9314 63.0871 29.9314 63.9279 29.9314C63.8558 28.8984 63.9519 27.8895 64.2161 26.8806C63.1832 26.7845 62.1502 26.7605 61.0933 26.7845Z" fill="#EF7605"/>
<path fill-rule="evenodd" clip-rule="evenodd" d="M65.7056 24.5264C63.6877 24.4303 61.6459 24.4063 59.604 24.4784C60.1085 24.9588 60.4928 25.4873 60.7811 26.1119C62.0542 26.2079 63.3274 26.232 64.6246 26.2079C64.7927 25.5353 65.1531 24.9828 65.7056 24.5264Z" fill="#EF7605"/>
<path fill-rule="evenodd" clip-rule="evenodd" d="M82.1847 26.7845C80.3591 26.7605 78.5574 26.7845 76.7798 26.8806C77.02 27.7454 77.1161 28.6342 77.068 29.547C77.068 29.6671 77.068 29.8113 77.068 29.9314C78.7736 29.9314 80.4792 29.9314 82.1847 29.9314C82.1847 28.8744 82.1847 27.8414 82.1847 26.7845Z" fill="#EF7605"/>
<path fill-rule="evenodd" clip-rule="evenodd" d="M78.9418 24.4304C77.7167 24.4304 76.5156 24.4304 75.3145 24.4784C75.7709 25.0069 76.1312 25.5594 76.3954 26.208C77.2362 26.208 78.077 26.208 78.9418 26.208C78.9418 25.6074 78.9418 25.0309 78.9418 24.4304Z" fill="#EF7605"/>
<path fill-rule="evenodd" clip-rule="evenodd" d="M55.5925 22.965C52.6378 22.8209 50.5479 24.046 49.2747 26.6884C48.3138 29.6431 49.0585 32.0693 51.4847 33.9911C54.8958 35.8167 57.7545 35.1681 60.0606 32.0933C61.67 28.7062 60.9734 25.9437 57.9466 23.8058C57.202 23.3974 56.4092 23.1091 55.5925 22.965Z" fill="#151716"/>
<path fill-rule="evenodd" clip-rule="evenodd" d="M55.7847 25.127C53.5507 24.8387 51.9893 25.7275 51.1245 27.7694C50.596 30.1716 51.4608 31.8291 53.7188 32.7179C56.1931 33.2224 57.8506 32.3095 58.6914 29.9314C59.0277 27.5292 58.0668 25.9437 55.7847 25.127Z" fill="#F2F2F2"/>
<path fill-rule="evenodd" clip-rule="evenodd" d="M55.5923 25.7035C52.6617 25.7035 51.3645 27.1208 51.7248 30.0274C52.5415 31.8291 53.9348 32.5498 55.8806 32.1414C57.6582 31.3967 58.3789 30.0755 58.0906 28.1537C57.6582 26.9286 56.8175 26.1119 55.5923 25.7035Z" fill="#151716"/>
<path fill-rule="evenodd" clip-rule="evenodd" d="M54.6075 26.5923C53.9349 26.5923 53.6946 26.9286 53.8868 27.5772C54.079 27.8414 54.3673 27.9375 54.7036 27.8174C55.1119 27.361 55.0879 26.9526 54.6075 26.5923Z" fill="#F2F2F2"/>
<path fill-rule="evenodd" clip-rule="evenodd" d="M56.8655 27.8655C56.0728 27.9375 55.8566 28.2979 56.1929 28.9945C56.9136 29.2828 57.2499 29.0426 57.2018 28.2739C57.0817 28.1537 56.9616 28.0096 56.8655 27.8655Z" fill="#EFF0F0"/>
<path fill-rule="evenodd" clip-rule="evenodd" d="M53.4306 28.8504C52.5658 28.8504 52.3496 29.2348 52.758 29.9794C53.7429 30.0755 53.9831 29.6912 53.4306 28.8504Z" fill="#F6F6F6"/>
<path fill-rule="evenodd" clip-rule="evenodd" d="M55.5923 30.1235C54.6795 30.1476 54.4873 30.5079 55.0158 31.2526C55.6644 31.4447 55.9766 31.1805 55.9286 30.5079C55.8806 30.3397 55.7604 30.1956 55.5923 30.1235Z" fill="#F2F2F2"/>
<path fill-rule="evenodd" clip-rule="evenodd" d="M71.2067 22.965C68.252 22.8209 66.1621 24.046 64.889 26.6884C63.9281 29.6431 64.6728 32.0693 67.099 33.9911C70.5101 35.8167 73.3687 35.1681 75.6748 32.0933C77.2843 28.7062 76.5877 25.9437 73.5609 23.8058C72.8162 23.3974 72.0235 23.1091 71.2067 22.965Z" fill="#151716"/>
<path fill-rule="evenodd" clip-rule="evenodd" d="M71.3988 25.127C69.1648 24.8387 67.6034 25.7275 66.7386 27.7694C66.2101 30.1716 67.0749 31.8291 69.357 32.7179C71.8072 33.2224 73.4647 32.3095 74.3055 29.9314C74.6418 27.5292 73.6809 25.9437 71.3988 25.127Z" fill="#F2F2F2"/>
<path fill-rule="evenodd" clip-rule="evenodd" d="M71.2066 25.7035C68.2759 25.7035 66.9787 27.1208 67.3391 30.0274C68.1558 31.8291 69.5491 32.5498 71.4949 32.1414C73.2725 31.3967 74.0172 30.0755 73.7049 28.1537C73.2725 26.9286 72.4317 26.1119 71.2066 25.7035Z" fill="#151716"/>
<path fill-rule="evenodd" clip-rule="evenodd" d="M70.2217 26.5923C69.5491 26.5923 69.3089 26.9286 69.5011 27.5772C69.6932 27.8414 69.9815 27.9375 70.3178 27.8174C70.7262 27.361 70.7022 26.9526 70.2217 26.5923Z" fill="#F2F2F2"/>
<path fill-rule="evenodd" clip-rule="evenodd" d="M72.4798 27.8655C71.687 27.9375 71.4709 28.2979 71.8072 28.9945C72.5278 29.2828 72.8641 29.0426 72.8161 28.2739C72.696 28.1537 72.5759 28.0096 72.4798 27.8655Z" fill="#EFF0F0"/>
<path fill-rule="evenodd" clip-rule="evenodd" d="M69.0449 28.8504C68.1801 28.8504 67.9639 29.2348 68.3723 29.9794C69.3572 30.0755 69.5974 29.6912 69.0449 28.8504Z" fill="#F6F6F6"/>
<path fill-rule="evenodd" clip-rule="evenodd" d="M71.2065 30.1235C70.2937 30.1476 70.1015 30.5079 70.63 31.2526C71.2786 31.4447 71.5909 31.1805 71.5429 30.5079C71.4948 30.3397 71.3747 30.1956 71.2065 30.1235Z" fill="#F2F2F2"/>
</g>
<defs>
<clipPath id="clip0_1271_3305">
<rect width="91.2707" height="35" fill="white"/>
</clipPath>
</defs>
</svg>
