<svg width="709" height="200" viewBox="0 0 709 200" fill="none" xmlns="http://www.w3.org/2000/svg">
<g opacity="0.33" filter="url(#filter0_f_69_9)">
<path d="M19.4999 52.5003C9.03073 52.0923 32.193 47.4896 19.4999 47.5C12.0188 47.5061 16.3503 43.2501 24 44C81.5845 49.6448 50.0552 43.8177 40.4216 41.9003C38.7332 41.5642 38.8492 41.1567 40.5342 40.8039L156.466 16.5306C158.151 16.1778 159.805 15.9781 161.508 16.2271C184.412 19.574 297.744 58.8311 320.5 61.0003C344.271 63.2663 391.925 61.0003 426.5 61.0003C461.075 61.0003 487.086 83 519.5 83C549.693 83 559.969 89.0734 573.461 89.9059C575.476 90.0302 577.491 90.2446 579.451 90.7285L652.549 108.772C654.509 109.255 656.517 109.487 658.535 109.551C674.066 110.047 703.668 114.251 690 127C682.5 133.996 664.437 143.189 651 148C631.437 155.005 605.65 156.777 597 159.785C580.997 165.349 548 171.5 514 178C497.556 181.144 491.343 183.623 474.963 183.961C472.342 184.015 469.73 183.588 467.237 182.778L432.5 171.5C424.292 169.106 416.922 167.782 412.03 166.724C408.663 165.996 405.222 165.349 401.777 165.349H399.223C395.778 165.349 392.401 164.572 389.364 162.947C388.048 162.243 386.667 161.529 385.344 160.959C382.596 159.773 379.568 159.248 376.765 158.199L353.756 149.587C350.954 148.538 347.759 148.213 345.367 146.415C343.055 144.677 341.057 141.944 338.5 140.5L325 133.496C317.797 130.475 316.415 123.474 309.5 118.036C300.856 111.238 255 99.5003 241 97.0003C230.947 95.2051 190.067 90.2769 173.5 86.5003L153.205 83.7329C140.666 82.023 117.952 82.2693 105.408 80.5898C104.006 80.402 103.802 80.3566 102.416 80.0713L87.5001 77.0003C73.8981 72.1738 46.1562 68.3673 37.107 66.2742C35.3397 65.8654 33.6128 65.2759 31.8541 64.8317L19.0059 61.5868C17.2472 61.1426 15.535 60.0744 16.4541 58.5106C17.9294 56.0006 21.5128 52.5788 19.4999 52.5003Z" fill="black"/>
<path d="M19.4999 52.5003C9.03073 52.0923 32.193 47.4896 19.4999 47.5C12.0188 47.5061 16.3503 43.2501 24 44C81.5845 49.6448 50.0552 43.8177 40.4216 41.9003C38.7332 41.5642 38.8492 41.1567 40.5342 40.8039L156.466 16.5306C158.151 16.1778 159.805 15.9781 161.508 16.2271C184.412 19.574 297.744 58.8311 320.5 61.0003C344.271 63.2663 391.925 61.0003 426.5 61.0003C461.075 61.0003 487.086 83 519.5 83C549.693 83 559.969 89.0734 573.461 89.9059C575.476 90.0302 577.491 90.2446 579.451 90.7285L652.549 108.772C654.509 109.255 656.517 109.487 658.535 109.551C674.066 110.047 703.668 114.251 690 127C682.5 133.996 664.437 143.189 651 148C631.437 155.005 605.65 156.777 597 159.785C580.997 165.349 548 171.5 514 178C497.556 181.144 491.343 183.623 474.963 183.961C472.342 184.015 469.73 183.588 467.237 182.778L432.5 171.5C424.292 169.106 416.922 167.782 412.03 166.724C408.663 165.996 405.222 165.349 401.777 165.349H399.223C395.778 165.349 392.401 164.572 389.364 162.947C388.048 162.243 386.667 161.529 385.344 160.959C382.596 159.773 379.568 159.248 376.765 158.199L353.756 149.587C350.954 148.538 347.759 148.213 345.367 146.415C343.055 144.677 341.057 141.944 338.5 140.5L325 133.496C317.797 130.475 316.415 123.474 309.5 118.036C300.856 111.238 255 99.5003 241 97.0003C230.947 95.2051 190.067 90.2769 173.5 86.5003L153.205 83.7329C140.666 82.023 117.952 82.2693 105.408 80.5898C104.006 80.402 103.802 80.3566 102.416 80.0713L87.5001 77.0003C73.8981 72.1738 46.1562 68.3673 37.107 66.2742C35.3397 65.8654 33.6128 65.2759 31.8541 64.8317L19.0059 61.5868C17.2472 61.1426 15.535 60.0744 16.4541 58.5106C17.9294 56.0006 21.5128 52.5788 19.4999 52.5003Z" stroke="black"/>
</g>
<defs>
<filter id="filter0_f_69_9" x="0.115967" y="0.616108" width="708.893" height="198.849" filterUnits="userSpaceOnUse" color-interpolation-filters="sRGB">
<feFlood flood-opacity="0" result="BackgroundImageFix"/>
<feBlend mode="normal" in="SourceGraphic" in2="BackgroundImageFix" result="shape"/>
<feGaussianBlur stdDeviation="7.5" result="effect1_foregroundBlur_69_9"/>
</filter>
</defs>
</svg>
