<svg width="80" height="100" viewBox="0 0 80 100" fill="none" xmlns="http://www.w3.org/2000/svg">
<g clip-path="url(#clip0_100_182)">
<path d="M78.8176 45.2618L77.5901 43.5837C76.2404 41.7426 76.2195 39.247 77.5494 37.386L78.7559 35.6881C80.597 33.09 79.7376 29.4485 76.9357 27.9346L75.0945 26.9529C73.0903 25.8687 71.9852 23.6397 72.3741 21.3887L72.7212 19.3228C73.2534 16.1727 70.901 13.2683 67.7101 13.1449L65.6233 13.0633C63.3525 12.9609 61.389 11.4271 60.7544 9.23784L60.1825 7.2336C59.3022 4.16505 55.9273 2.5696 52.981 3.8378L51.0584 4.65539C48.9715 5.55557 46.5376 5.02445 45.0038 3.32655L43.6123 1.77188C41.4847 -0.601413 37.7418 -0.580503 35.6549 1.83252L34.2843 3.4081C32.7913 5.12586 30.3574 5.6988 28.2496 4.84044L26.3269 4.04272C23.3818 2.8153 20.0267 4.47138 19.1882 7.53994L18.6352 9.54522C18.0424 11.7335 16.0988 13.309 13.8279 13.4523L11.7421 13.5746C8.55021 13.7586 6.2386 16.7048 6.83245 19.834L7.20047 21.8801C7.60926 24.13 6.54598 26.3799 4.56161 27.485L2.74139 28.5075C-0.0616122 30.0622 -0.859333 33.7037 1.02258 36.2809L2.25 37.9589C3.59975 39.8 3.62066 42.2957 2.29077 44.1567L1.08426 45.8546C-0.756873 48.4526 0.102532 52.0941 2.90449 53.608L4.74562 54.5898C6.7509 55.6739 7.85495 57.903 7.46603 60.1539L7.11892 62.2199C6.58675 65.37 8.93914 68.2744 12.13 68.3977L14.2169 68.4793C16.4877 68.5817 18.4511 70.1155 19.0858 72.3048L19.6587 74.309C20.538 77.3776 23.9129 78.973 26.8591 77.7048L28.7818 76.8872C30.8686 75.9871 33.3026 76.5182 34.8363 78.2161L36.2279 79.7707C38.3555 82.144 42.0984 82.1231 44.1852 79.7101L45.5559 78.1345C47.0489 76.4168 49.4838 75.8438 51.5905 76.7022L53.5132 77.501C56.4594 78.7273 59.8134 77.0713 60.653 74.0027L61.205 71.9974C61.7978 69.8092 63.7414 68.2336 66.0122 68.0904L68.099 67.968C71.2899 67.784 73.6015 64.8378 73.0077 61.7086L72.6397 59.6626C72.2309 57.4126 73.2942 55.1627 75.2785 54.0576L77.0998 53.0351C79.9018 51.5003 80.6995 47.8389 78.8176 45.2618ZM39.8892 67.3543C25.2218 67.3543 13.2968 55.4283 13.2968 40.7609C13.2968 26.0945 25.2218 14.1684 39.8892 14.1684C54.5566 14.1684 66.4827 26.0945 66.4827 40.7609C66.4827 55.4283 54.5566 67.3543 39.8892 67.3543Z" fill="#EF7605"/>
<path d="M67.6694 73.8794L66.7483 73.9411L66.2987 75.5773C64.9689 80.4253 60.5297 83.8012 55.5185 83.8012C54.0454 83.8012 52.6131 83.5148 51.2633 82.9627L49.7087 82.3083L49.2173 82.8801L56.8066 96.6881C57.2572 97.4859 58.034 98.0588 58.9342 98.2229L68.0782 99.9208C69.5105 100.186 70.9418 99.4096 71.4939 98.0389L74.9513 89.4062C75.2995 88.5468 75.2378 87.5849 74.7882 86.7872L67.6694 73.8794Z" fill="#EF7605"/>
<path d="M29.1498 83.1058C27.7383 83.7195 26.2652 84.0259 24.7315 84.0259C19.781 84.0259 15.3627 80.7116 13.992 75.9661L13.5215 74.3497L11.8853 74.2891L5.01114 86.8079C4.56157 87.6057 4.49988 88.5675 4.84804 89.4259L8.30552 98.0586C8.85755 99.4293 10.2888 100.207 11.7212 99.9405L20.8652 98.2426C21.7654 98.0795 22.5422 97.5066 22.9928 96.7089L30.786 82.5329L30.7253 82.4712L29.1498 83.1058Z" fill="#EF7605"/>
<path d="M55.2111 39.2679C55.2111 39.2679 56.7448 36.8747 54.7615 35.0534C52.2858 32.7836 45.5558 34.2965 45.5558 34.2965C45.0854 34.3791 44.594 34.4805 44.0629 34.6039C44.0629 34.6039 41.7303 35.688 44.0629 28.6309C46.3943 21.5727 42.5082 20.4686 40.8709 20.4686C39.2347 20.4686 39.7867 23.9669 39.7867 23.9669C39.7867 23.9669 36.2895 33.6012 32.9544 36.1585C32.0751 37.0995 31.5837 38.1429 31.3391 38.8789C30.8069 38.4294 30.1315 38.1628 29.3955 38.1628H24.9155C23.2583 38.1628 21.9285 39.5135 21.9285 41.1498V53.0957C21.9285 54.7528 23.2793 56.0827 24.9155 56.0827H29.3955C30.0092 56.0827 30.5821 55.8987 31.0526 55.5715C31.1551 55.469 31.7479 54.8762 31.7479 53.2191V45.7929C31.7479 46.0793 31.7886 54.9985 36.9231 55.5506C38.7642 55.6739 41.0351 55.7764 43.3059 55.7346C45.3718 55.8987 47.581 55.9186 49.3197 55.5506C55.2519 54.2824 53.7787 50.1505 53.7787 50.1505C56.9905 47.7364 55.1703 44.7296 55.1703 44.7296C57.9932 41.7635 55.2111 39.2679 55.2111 39.2679Z" fill="#EF7605"/>
</g>
<defs>
<clipPath id="clip0_100_182">
<rect width="79.84" height="100" fill="white"/>
</clipPath>
</defs>
</svg>
