<svg width="57" height="18" viewBox="0 0 57 18" fill="none" xmlns="http://www.w3.org/2000/svg">
<path d="M0.36 4H1.82V15.6L10.78 4H12.12V18H10.66V6.42L1.7 18H0.36V4ZM28.2644 7.48V18H26.9644V9.68L22.7044 16.72H22.0644L17.8044 9.66V18H16.5044V7.48H17.9444L22.4044 15.06L26.9444 7.48H28.2644ZM40.3852 7.48V18H39.0852V14.52H35.7852H35.3852L32.9452 18H31.4052L34.0252 14.32C33.2118 14.0933 32.5852 13.7067 32.1452 13.16C31.7052 12.6133 31.4852 11.92 31.4852 11.08C31.4852 9.90667 31.8852 9.01333 32.6852 8.4C33.4852 7.78667 34.5785 7.48 35.9652 7.48H40.3852ZM32.9252 11.12C32.9252 12.68 33.9185 13.46 35.9052 13.46H39.0852V8.74H36.0052C33.9518 8.74 32.9252 9.53333 32.9252 11.12Z" fill="#6D6D6E"/>
<path d="M53.4084 4.536L56.3844 6.216L55.8324 7.224L52.8324 5.472V8.88H51.7284L51.7524 5.472L48.7524 7.224L48.1764 6.216L51.1764 4.536L48.1764 2.856L48.7524 1.824L51.7524 3.6L51.7284 0.191999H52.8324V3.6L55.8324 1.824L56.3844 2.856L53.4084 4.536Z" fill="#EF7605"/>
</svg>
