<svg width="78" height="98" viewBox="0 0 78 98" fill="none" xmlns="http://www.w3.org/2000/svg">
<g clip-path="url(#clip0_257_815)" filter="url(#filter0_d_257_815)">
<path fill-rule="evenodd" clip-rule="evenodd" d="M9.81908 0C22.4356 0 35.0522 0 47.6686 0C47.6686 3.05082 47.6686 6.10168 47.6686 9.15254C37.4991 9.13662 27.3296 9.15254 17.1602 9.20022C16.175 9.23197 15.1898 9.26378 14.2047 9.29556C13.9767 9.32292 13.7543 9.37057 13.5373 9.43853C13.4585 9.81598 13.4108 10.1973 13.3943 10.5826C13.1208 29.777 13.089 48.9718 13.2989 68.1673C13.3142 70.1397 13.3778 72.1101 13.4896 74.0783C13.8011 74.2309 14.1348 74.3104 14.4907 74.3167C16.6197 74.3644 18.7489 74.3803 20.8784 74.3644C20.8784 77.4469 20.8784 80.5296 20.8784 83.6122C17.4143 83.6281 13.9503 83.6122 10.4864 83.5646C9.30205 83.5616 8.12623 83.4663 6.95889 83.2785C6.56659 83.1619 6.21696 82.9713 5.91017 82.7065C5.48116 82.2775 5.05213 81.8485 4.62309 81.4194C4.46905 81.0527 4.37371 80.6713 4.3371 80.2754C4.24632 79.2284 4.18283 78.1796 4.1464 77.1292C4.04641 66.6739 3.99873 56.2185 4.00339 45.7627C3.98205 31.6517 4.06147 17.5415 4.24176 3.43221C4.77538 1.7227 5.90363 0.626313 7.62629 0.143015C8.37413 0.126685 9.10511 0.0790258 9.81908 0Z" fill="#EF7605" fill-opacity="0.988235"/>
<path fill-rule="evenodd" clip-rule="evenodd" d="M50.5287 0.0953554C57.9777 7.4967 65.4141 14.9172 72.838 22.357C68.0864 22.3777 63.3354 22.4253 58.5848 22.5C57.2981 22.4428 56.011 22.3951 54.7236 22.357C53.9768 22.3349 53.2777 22.1442 52.6261 21.785C52.0986 21.2894 51.606 20.765 51.1484 20.2118C50.8565 19.6114 50.6977 18.9758 50.6717 18.3051C50.5357 12.2364 50.488 6.16641 50.5287 0.0953369V0.0953554Z" fill="#EF7605" fill-opacity="0.988235"/>
<path fill-rule="evenodd" clip-rule="evenodd" d="M21.0691 16.875C27.6157 16.8591 34.1624 16.875 40.7089 16.9227C41.6976 16.9414 42.6828 17.0049 43.6644 17.1134C44.1082 17.1829 44.41 17.4213 44.5701 17.8284C44.974 18.9929 45.0057 20.1688 44.6654 21.3559C44.5643 21.6479 44.3895 21.8862 44.1411 22.071C43.6474 22.2424 43.139 22.3377 42.6157 22.357C36.4829 22.5023 30.3495 22.5341 24.2153 22.4523C22.846 22.4354 21.4795 22.3718 20.1157 22.2617C19.444 22.1939 19.0469 21.8283 18.924 21.1653C18.7392 20.1814 18.7392 19.1963 18.924 18.2097C19.0516 17.7962 19.29 17.4626 19.639 17.2087C20.1168 17.0458 20.5935 16.9347 21.0691 16.875L21.0691 16.875Z" fill="#EF7605" fill-opacity="0.976471"/>
<path fill-rule="evenodd" clip-rule="evenodd" d="M63.8763 25.9321C66.9271 25.9321 69.978 25.9321 73.0289 25.9321C72.9952 43.6654 72.9157 61.3985 72.7905 79.1312C72.843 80.6945 72.2233 81.9181 70.9314 82.8018C70.3731 83.2316 69.7375 83.4541 69.0246 83.4692C58.6015 83.5924 48.1778 83.6719 37.7534 83.7075C37.7534 80.6249 37.7534 77.5422 37.7534 74.4597C46.0804 74.4966 54.4067 74.4489 62.7322 74.3166C62.9919 74.2909 63.2462 74.2433 63.4949 74.1736C63.571 74.0232 63.6187 73.8644 63.638 73.6969C63.8183 57.7762 63.8978 41.8546 63.8763 25.9321V25.9321Z" fill="#EF7605" fill-opacity="0.988235"/>
<path fill-rule="evenodd" clip-rule="evenodd" d="M23.4526 26.5996C33.1136 26.5837 42.7746 26.5996 52.4356 26.6473C53.8046 26.6666 55.1712 26.7301 56.5352 26.838C57.199 26.8433 57.6598 27.1452 57.9176 27.7437C58.4236 29.0538 58.36 30.325 57.7269 31.5573C57.485 31.831 57.2149 32.0694 56.9165 32.2723C44.6495 32.3359 32.3827 32.3359 20.1157 32.2723C19.1249 31.6095 18.6482 30.672 18.6856 29.4598C18.685 28.6195 18.9393 27.8727 19.4483 27.2193C19.6552 27.0681 19.8778 26.9409 20.1157 26.838C21.2407 26.74 22.353 26.6605 23.4526 26.5996Z" fill="#EF7605" fill-opacity="0.984314"/>
<path fill-rule="evenodd" clip-rule="evenodd" d="M21.6412 36.5148C33.3374 36.4696 45.0323 36.5173 56.7259 36.6578C57.4002 36.8553 57.861 37.2843 58.1083 37.9448C58.2548 38.7333 58.2866 39.5278 58.2036 40.3283C58.0296 41.4561 57.3782 42.044 56.2492 42.0921C44.4272 42.2828 32.6051 42.2828 20.7831 42.0921C19.6541 42.044 19.0027 41.4561 18.8287 40.3283C18.7651 39.6609 18.7651 38.9936 18.8287 38.3262C18.9867 37.4693 19.4792 36.9132 20.3064 36.6578C20.7689 36.6412 21.2139 36.5935 21.6412 36.5148H21.6412Z" fill="#EF7605" fill-opacity="0.980392"/>
<path fill-rule="evenodd" clip-rule="evenodd" d="M29.5542 45.9534C30.0015 45.9938 30.4146 46.1368 30.7936 46.3824C31.6475 47.0137 32.4738 47.6811 33.2724 48.3845C34.0244 48.8895 34.8506 49.2073 35.7512 49.3379C36.6398 49.4437 37.5296 49.5391 38.4207 49.6239C39.2955 49.6546 39.8516 50.0836 40.0891 50.911C40.2453 51.9878 40.3723 53.0683 40.4705 54.1525C40.8325 55.7979 41.6588 57.1644 42.9493 58.2521C43.2777 58.6864 43.532 59.1631 43.712 59.6822C43.8112 60.1532 43.7476 60.598 43.5213 61.0169C42.89 61.8708 42.2227 62.6971 41.5192 63.4958C41.2233 63.9504 40.9692 64.4271 40.7565 64.9258C40.4686 66.2456 40.2779 67.5804 40.1844 68.9301C40.0327 69.9237 39.4448 70.4799 38.4206 70.5985C37.534 70.7138 36.6442 70.7932 35.7512 70.8369C35.7458 77.2251 35.6822 83.6128 35.5605 90C34.0669 89.0625 32.5733 88.125 31.0796 87.1875C30.5399 86.8699 29.9678 86.6316 29.3635 86.4725C28.823 86.5996 28.3146 86.8062 27.8381 87.0922C26.3508 87.976 24.8889 88.8977 23.4524 89.857C23.3071 89.9532 23.1481 90.0008 22.9758 90C22.9758 83.6123 22.9758 77.2246 22.9758 70.8369C22.2409 70.7941 21.5099 70.7147 20.783 70.5985C19.9726 70.4238 19.48 69.9311 19.3052 69.1208C19.1612 67.6773 18.9387 66.2472 18.6379 64.8305C18.4002 64.2912 18.1141 63.7827 17.7798 63.3051C17.0039 62.5616 16.3366 61.7353 15.7777 60.8262C15.5554 59.8736 15.7778 59.0473 16.4451 58.3475C17.3965 57.5235 18.1274 56.5383 18.6379 55.3919C18.7782 54.9893 18.8735 54.5761 18.9239 54.1525C19.0143 52.9665 19.1732 51.7907 19.4006 50.625C19.7739 50.0622 20.2983 49.7285 20.9737 49.6239C23.937 49.813 26.3841 48.796 28.3148 46.5731C28.7101 46.3119 29.1233 46.1053 29.5542 45.9534L29.5542 45.9534ZM28.7915 52.8178C32.4764 52.649 35.0664 54.238 36.5616 57.5847C37.6274 61.2204 36.6263 64.1282 33.5585 66.3083C29.999 68.1488 26.837 67.6244 24.0722 64.7352C21.8901 61.7066 21.8583 58.6558 23.9769 55.5826C25.2301 54.0271 26.8351 53.1054 28.7915 52.8178L28.7915 52.8178Z" fill="#EF7605" fill-opacity="0.984314"/>
</g>
<defs>
<filter id="filter0_d_257_815" x="0" y="0" width="77.0288" height="98" filterUnits="userSpaceOnUse" color-interpolation-filters="sRGB">
<feFlood flood-opacity="0" result="BackgroundImageFix"/>
<feColorMatrix in="SourceAlpha" type="matrix" values="0 0 0 0 0 0 0 0 0 0 0 0 0 0 0 0 0 0 127 0" result="hardAlpha"/>
<feOffset dy="4"/>
<feGaussianBlur stdDeviation="2"/>
<feColorMatrix type="matrix" values="0 0 0 0 0 0 0 0 0 0 0 0 0 0 0 0 0 0 0.33 0"/>
<feBlend mode="normal" in2="BackgroundImageFix" result="effect1_dropShadow_257_815"/>
<feBlend mode="normal" in="SourceGraphic" in2="effect1_dropShadow_257_815" result="shape"/>
</filter>
<clipPath id="clip0_257_815">
<rect width="69.0288" height="90" fill="white" transform="translate(4)"/>
</clipPath>
</defs>
</svg>
