<svg width="84" height="35" viewBox="0 0 84 35" fill="none" xmlns="http://www.w3.org/2000/svg">
<g clip-path="url(#clip0_124_397)">
<path fill-rule="evenodd" clip-rule="evenodd" d="M57.6149 27.2364C57.9858 28.1943 58.0784 29.1825 57.893 30.2005C58.6958 30.2005 59.4985 30.2005 60.3013 30.2005C60.2387 29.2224 60.3313 28.2652 60.5791 27.329C59.6078 27.2368 58.6196 27.2059 57.6149 27.2364Z" fill="#EF7605"/>
<path fill-rule="evenodd" clip-rule="evenodd" d="M61.9688 25.1059C60.07 24.9982 58.1557 24.9828 56.2257 25.0596C56.6858 25.5042 57.0563 26.0136 57.3372 26.5879C58.5398 26.6805 59.7439 26.7115 60.9498 26.6805C61.1265 26.0487 61.4662 25.5238 61.9688 25.1059Z" fill="#EF7605"/>
<path fill-rule="evenodd" clip-rule="evenodd" d="M47.1479 25.0133C41.8372 25.0133 36.5264 25.0133 31.2156 25.0133C31.2156 25.569 31.2156 26.1249 31.2156 26.6805C36.1871 26.7115 41.1582 26.6805 46.129 26.5879C46.4475 26.0421 46.7872 25.5172 47.1479 25.0133Z" fill="#EF7605"/>
<path fill-rule="evenodd" clip-rule="evenodd" d="M77.5303 27.2364C75.8159 27.2059 74.1178 27.2366 72.4359 27.329C72.6632 28.1454 72.7558 28.9791 72.7137 29.8299C72.7137 29.9534 72.7137 30.077 72.7137 30.2005C74.3192 30.2005 75.9248 30.2005 77.5303 30.2005C77.5303 29.2123 77.5303 28.2244 77.5303 27.2364Z" fill="#EF7605"/>
<path fill-rule="evenodd" clip-rule="evenodd" d="M45.9438 0.00351763C42.6093 0.00351763 39.2747 0.00351763 35.9401 0.00351763C35.9401 0.404898 35.9401 0.806279 35.9401 1.20766C39.2747 1.20766 42.6093 1.20766 45.9438 1.20766C45.9438 0.806279 45.9438 0.404898 45.9438 0.00351763Z" fill="#161717"/>
<path fill-rule="evenodd" clip-rule="evenodd" d="M36.6808 3.52333C39.5214 3.52333 42.362 3.52333 45.2026 3.52333C45.2026 2.93673 45.2026 2.35013 45.2026 1.76354C42.362 1.76354 39.5214 1.76354 36.6808 1.76354C36.6808 2.35013 36.6808 2.93673 36.6808 3.52333Z" fill="#131514"/>
<path fill-rule="evenodd" clip-rule="evenodd" d="M78.0859 4.07921C61.9993 4.06363 45.913 4.07921 29.8264 4.12551C26.8677 4.6759 25.0614 6.42034 24.4076 9.35904C24.3457 12.5703 24.3457 15.7813 24.4076 18.9924C24.9898 22.0755 26.8269 23.8818 29.919 24.4111C35.909 24.473 41.8989 24.473 47.8889 24.4111C49.8421 23.0687 51.9416 22.7907 54.1877 23.5774C54.6663 23.832 55.1293 24.11 55.5773 24.4111C57.9546 24.473 60.3322 24.473 62.7095 24.4111C64.4028 23.1897 66.2708 22.8344 68.3137 23.3459C69.0394 23.593 69.703 23.9479 70.3052 24.4111C73.0872 24.4994 75.8662 24.4684 78.6416 24.3185C81.3606 23.4655 82.9201 21.6285 83.3195 18.8072C83.3811 15.6578 83.3811 12.5084 83.3195 9.35904C82.6659 6.49781 80.9215 4.73801 78.0859 4.07921Z" fill="#EF7605"/>
<path fill-rule="evenodd" clip-rule="evenodd" d="M20.471 3.61616C14.8824 3.60058 9.29379 3.61616 3.70518 3.66247C3.58185 4.12551 3.58185 4.58856 3.70518 5.05183C9.29379 5.11349 14.8824 5.11349 20.471 5.05183C20.5924 4.5732 20.5924 4.09457 20.471 3.61616Z" fill="#EF7605"/>
<path fill-rule="evenodd" clip-rule="evenodd" d="M1.75978 30.6636C2.35516 30.7211 2.91082 30.6592 3.42719 30.4784C3.42719 30.2005 3.42719 29.9225 3.42719 29.6447C4.07568 29.6447 4.72395 29.6447 5.37243 29.6447C5.39942 26.4222 6.94306 24.3071 10.0038 23.2996C13.6546 22.693 16.1709 24.098 17.553 27.5142C17.7127 28.2158 17.79 28.926 17.7847 29.6447C17.7847 29.8299 17.7847 30.0153 17.7847 30.2005C27.0474 30.2005 36.3103 30.2005 45.5732 30.2005C45.5054 29.1924 45.598 28.2044 45.8511 27.2364C37.0514 27.2364 28.2518 27.2364 19.4519 27.2364C19.4519 26.8659 19.4519 26.4953 19.4519 26.1249C19.7607 26.1249 20.0695 26.1249 20.3782 26.1249C20.3782 19.3012 20.3782 12.4775 20.3782 5.65379C15.0058 5.65379 9.63334 5.65379 4.2609 5.65379C3.47174 8.37765 2.6534 11.0947 1.80631 13.8052C1.75978 15.1943 1.74442 16.5837 1.75978 17.9735C3.20269 18.2588 3.97451 19.1388 4.07568 20.6135C3.97253 22.09 3.20071 22.97 1.75978 23.2533C1.75978 25.7235 1.75978 28.1934 1.75978 30.6636Z" fill="#EF7605"/>
<path fill-rule="evenodd" clip-rule="evenodd" d="M21.7676 6.5801C21.5207 6.5801 21.2738 6.5801 21.0267 6.5801C21.0267 12.7862 21.0267 18.9924 21.0267 25.1985C21.2738 25.1985 21.5207 25.1985 21.7676 25.1985C21.7676 18.9924 21.7676 12.7862 21.7676 6.5801Z" fill="#141615"/>
<path fill-rule="evenodd" clip-rule="evenodd" d="M23.8979 11.4895C23.5894 11.4895 23.2804 11.4895 22.9719 11.4895C22.9719 14.4844 22.9719 17.4795 22.9719 20.4744C23.2804 20.4744 23.5894 20.4744 23.8979 20.4744C23.8979 17.4795 23.8979 14.4844 23.8979 11.4895Z" fill="#121413"/>
<path fill-rule="evenodd" clip-rule="evenodd" d="M82.8101 12.0454C63.5126 12.0454 44.2148 12.0454 24.9171 12.0454C24.9171 13.5273 24.9171 15.0093 24.9171 16.4915C44.2148 16.4915 63.5126 16.4915 82.8101 16.4915C82.8101 15.0093 82.8101 13.5273 82.8101 12.0454Z" fill="#FEFEFE"/>
<path fill-rule="evenodd" clip-rule="evenodd" d="M0.741211 18.4367C0.494106 18.4367 0.247001 18.4367 0.000115871 18.4367C0.000115871 19.8878 0.000115871 21.339 0.000115871 22.7903C0.247001 22.7903 0.494106 22.7903 0.741211 22.7903C0.741211 21.339 0.741211 19.8878 0.741211 18.4367Z" fill="#EF7605"/>
<path fill-rule="evenodd" clip-rule="evenodd" d="M1.29655 18.4367C1.29655 19.8568 1.29655 21.2773 1.29655 22.6976C1.48177 22.6976 1.66698 22.6976 1.85242 22.6976C2.66857 22.5146 3.20886 22.0206 3.47331 21.2155C3.69495 19.5388 2.96944 18.6127 1.29655 18.4367Z" fill="#EF7605"/>
<path fill-rule="evenodd" clip-rule="evenodd" d="M74.4736 25.0133C73.3307 24.9977 72.1882 25.0133 71.0462 25.0596C71.4937 25.5391 71.8334 26.0794 72.0651 26.6805C72.8681 26.6805 73.6707 26.6805 74.4736 26.6805C74.4736 26.1249 74.4736 25.569 74.4736 25.0133Z" fill="#EF7605"/>
<path fill-rule="evenodd" clip-rule="evenodd" d="M17.5066 26.1249C18.0186 26.1545 18.5126 26.1238 18.9888 26.0322C17.7054 23.315 15.575 21.6939 12.5974 21.1692C8.45061 20.949 5.53276 22.7244 3.84385 26.4953C3.53463 27.3323 3.39572 28.1969 3.4271 29.089C3.89014 29.089 4.35341 29.089 4.81646 29.089C5.07893 25.6302 6.90061 23.4842 10.2815 22.6513C13.4794 22.1971 15.8879 23.3549 17.5066 26.1249Z" fill="#F8F8F8"/>
<path fill-rule="evenodd" clip-rule="evenodd" d="M8.7069 15.9356C8.7069 16.3063 8.7069 16.6767 8.7069 17.0472C9.72583 17.0472 10.7447 17.0472 11.7637 17.0472C11.7637 16.6767 11.7637 16.3063 11.7637 15.9356C10.7447 15.9356 9.72583 15.9356 8.7069 15.9356Z" fill="#FDFDFD"/>
<path fill-rule="evenodd" clip-rule="evenodd" d="M2.40807 13.62C6.15919 13.7126 9.92611 13.7433 13.7088 13.7126C14.1429 13.6026 14.4052 13.3248 14.4962 12.8789C14.5579 10.9955 14.5579 9.11194 14.4962 7.22859C14.3571 6.84257 14.0948 6.5801 13.7088 6.44119C10.6516 6.36416 7.59486 6.37952 4.53853 6.48749C3.80862 8.8622 3.09847 11.2395 2.40807 13.62Z" fill="#F6F6F6"/>
<path fill-rule="evenodd" clip-rule="evenodd" d="M3.14921 12.9715C6.59156 13.0641 10.0497 13.095 13.5237 13.0641C13.7005 13.0573 13.8087 12.9647 13.8478 12.7862C13.9095 10.9955 13.9095 9.20455 13.8478 7.41381C13.8131 7.32888 13.7668 7.25163 13.7089 7.18228C10.7838 7.04468 7.85035 6.99838 4.90901 7.04337C4.29388 9.01055 3.70706 10.9865 3.14921 12.9715Z" fill="#A2D9F7"/>
<path fill-rule="evenodd" clip-rule="evenodd" d="M11.6714 7.41381C11.3374 7.38703 11.0132 7.41798 10.6988 7.50642C10.3422 9.25436 9.98708 10.9988 9.63354 12.7399C9.97172 12.7862 10.3114 12.8016 10.6525 12.7862C10.9331 10.9839 11.2729 9.19314 11.6714 7.41381Z" fill="#FEFEFE"/>
<path fill-rule="evenodd" clip-rule="evenodd" d="M9.35547 7.41381C9.20097 7.41381 9.0467 7.41381 8.8922 7.41381C8.51276 9.19665 8.17305 10.9874 7.87328 12.7862C8.02777 12.7862 8.18205 12.7862 8.33655 12.7862C8.67604 10.9957 9.01554 9.20499 9.35547 7.41381Z" fill="#FEFEFE"/>
<path fill-rule="evenodd" clip-rule="evenodd" d="M6.48385 12.5084C6.48385 12.601 6.48385 12.6936 6.48385 12.7862C6.6074 12.7862 6.73096 12.7862 6.85429 12.7862C7.24316 11.0014 7.61382 9.21047 7.96582 7.41381C7.78367 7.39164 7.61382 7.42258 7.45647 7.50642C7.1376 9.1769 6.81347 10.8443 6.48385 12.5084Z" fill="#FEFEFE"/>
<path fill-rule="evenodd" clip-rule="evenodd" d="M52.4278 23.624C49.6456 23.478 47.654 24.6514 46.4532 27.1438C45.5594 29.9273 46.2541 32.2276 48.5373 34.0445C51.7659 35.7575 54.4676 35.1554 56.6424 32.2384C58.1733 29.0535 57.5097 26.4444 54.6509 24.4111C53.9401 24.0253 53.1992 23.7629 52.4278 23.624Z" fill="#151716"/>
<path fill-rule="evenodd" clip-rule="evenodd" d="M67.4338 23.624C64.7532 23.4433 62.7307 24.493 61.3666 26.7731C60.4157 29.0346 60.6938 31.1341 62.2003 33.0721C63.8651 34.7582 65.8566 35.3294 68.1749 34.7856C71.136 33.5733 72.4483 31.3656 72.1115 28.1627C71.4419 25.7175 69.8827 24.2044 67.4338 23.624Z" fill="#151716"/>
<path fill-rule="evenodd" clip-rule="evenodd" d="M12.5051 23.624C9.00438 23.467 6.79667 25.0726 5.88199 28.4405C5.73935 31.9402 7.36023 34.1169 10.7451 34.9708C13.5697 35.1878 15.5922 34.03 16.8123 31.4973C17.8062 28.6196 17.0805 26.2886 14.6356 24.5037C13.957 24.1019 13.2471 23.8085 12.5051 23.624Z" fill="#151716"/>
<path fill-rule="evenodd" clip-rule="evenodd" d="M67.4336 25.6616C65.1138 25.3919 63.5855 26.3491 62.8486 28.5331C62.7207 31.598 64.1873 33.0646 67.2484 32.933C69.3839 32.2911 70.3565 30.8552 70.1661 28.6257C69.748 27.1736 68.837 26.1856 67.4336 25.6616Z" fill="#F2F2F2"/>
<path fill-rule="evenodd" clip-rule="evenodd" d="M52.613 25.6616C50.4974 25.3892 49.0308 26.2229 48.2131 28.1627C47.7042 30.4338 48.5226 31.993 50.6677 32.8404C53.0014 33.3181 54.5606 32.4381 55.3454 30.2005C55.6667 27.9397 54.7557 26.4268 52.613 25.6616Z" fill="#F2F2F2"/>
<path fill-rule="evenodd" clip-rule="evenodd" d="M12.5051 25.6616C10.2371 25.3976 8.70856 26.3239 7.91985 28.4405C7.64465 30.4378 8.4011 31.8737 10.1892 32.7477C12.5786 33.398 14.2305 32.5799 15.1449 30.2932C15.5377 28.0218 14.6577 26.478 12.5051 25.6616Z" fill="#F1F1F1"/>
<path fill-rule="evenodd" clip-rule="evenodd" d="M52.4278 26.2175C49.6521 26.1979 48.4326 27.5566 48.7688 30.2932C49.5448 32.0009 50.8569 32.6648 52.7056 32.2847C54.375 31.5864 55.0698 30.3359 54.7898 28.5331C54.3783 27.365 53.5909 26.5932 52.4278 26.2175Z" fill="#151716"/>
<path fill-rule="evenodd" clip-rule="evenodd" d="M67.0632 26.2175C64.6518 26.1766 63.4323 27.3498 63.4044 29.7373C63.9043 31.6781 65.155 32.5581 67.156 32.3773C69.0442 31.7358 69.8316 30.4237 69.518 28.4405C69.0589 27.2862 68.2407 26.5451 67.0632 26.2175Z" fill="#161716"/>
<path fill-rule="evenodd" clip-rule="evenodd" d="M12.2266 26.2175C10.3231 26.0948 9.07264 26.9285 8.47529 28.7184C8.32935 30.4858 9.08581 31.6746 10.7447 32.2847C12.7314 32.6444 14.0128 31.857 14.5888 29.9225C14.7582 28.0681 13.9709 26.833 12.2266 26.2175Z" fill="#151716"/>
<path fill-rule="evenodd" clip-rule="evenodd" d="M66.2297 27.0512C65.5933 27.0547 65.3617 27.3634 65.5349 27.9775C65.8819 28.338 66.2216 28.338 66.5538 27.9775C66.6853 27.5682 66.5771 27.2594 66.2297 27.0512Z" fill="#F1F1F1"/>
<path fill-rule="evenodd" clip-rule="evenodd" d="M51.5017 27.0512C50.8653 27.0547 50.6338 27.3634 50.8069 27.9775C51.0077 28.2356 51.2702 28.3128 51.5943 28.209C51.9801 27.78 51.9494 27.394 51.5017 27.0512Z" fill="#F2F2F2"/>
<path fill-rule="evenodd" clip-rule="evenodd" d="M11.301 27.0512C10.6646 27.0547 10.433 27.3634 10.6062 27.9775C10.9459 28.3479 11.2854 28.3479 11.6251 27.9775C11.7566 27.5682 11.6484 27.2594 11.301 27.0512Z" fill="#F1F1F1"/>
<path fill-rule="evenodd" clip-rule="evenodd" d="M68.36 28.2553C67.4649 28.369 67.3106 28.755 67.8968 29.4131C68.525 29.5259 68.7875 29.2635 68.6842 28.6257C68.5566 28.5143 68.4487 28.3907 68.36 28.2553Z" fill="#EFF0EF"/>
<path fill-rule="evenodd" clip-rule="evenodd" d="M53.6321 28.2553C52.8816 28.308 52.6654 28.6631 52.9836 29.3205C53.6716 29.5894 53.9958 29.3578 53.9563 28.6257C53.8288 28.5143 53.7208 28.3907 53.6321 28.2553Z" fill="#EFF0F0"/>
<path fill-rule="evenodd" clip-rule="evenodd" d="M13.4312 28.2553C12.6804 28.308 12.4643 28.6631 12.7827 29.3205C13.495 29.6267 13.8192 29.3952 13.7553 28.6257C13.6278 28.5143 13.5198 28.3907 13.4312 28.2553Z" fill="#EEEEEE"/>
<path fill-rule="evenodd" clip-rule="evenodd" d="M65.1178 29.1816C64.3282 29.1671 64.1121 29.5069 64.4694 30.2005C65.2056 30.4674 65.4988 30.2205 65.3494 29.4594C65.2846 29.3491 65.2076 29.2565 65.1178 29.1816Z" fill="#F5F5F5"/>
<path fill-rule="evenodd" clip-rule="evenodd" d="M50.3902 29.1816C49.5745 29.1783 49.3584 29.5332 49.7417 30.2469C50.6817 30.3276 50.8978 29.9725 50.3902 29.1816Z" fill="#F6F6F6"/>
<path fill-rule="evenodd" clip-rule="evenodd" d="M10.1889 29.1816C9.39932 29.1671 9.18316 29.5069 9.54065 30.2005C9.80619 30.3204 10.0684 30.3204 10.3281 30.2005C10.542 29.8183 10.4957 29.4785 10.1889 29.1816Z" fill="#F7F8F7"/>
<path fill-rule="evenodd" clip-rule="evenodd" d="M52.4281 30.3858C51.565 30.4 51.3795 30.7551 51.8722 31.451C52.5047 31.62 52.7979 31.3884 52.7522 30.7562C52.6884 30.5848 52.5802 30.4613 52.4281 30.3858Z" fill="#F2F2F2"/>
<path fill-rule="evenodd" clip-rule="evenodd" d="M12.3194 30.3858C11.4424 30.3658 11.2263 30.7209 11.6711 31.451C12.6053 31.5214 12.8212 31.1664 12.3194 30.3858Z" fill="#F3F3F3"/>
<path fill-rule="evenodd" clip-rule="evenodd" d="M67.2486 30.3858C66.3715 30.3658 66.1555 30.7209 66.6001 31.451C67.5343 31.5214 67.7505 31.1664 67.2486 30.3858Z" fill="#F2F2F2"/>
</g>
<defs>
<clipPath id="clip0_124_397">
<rect width="83.3658" height="35" fill="white" transform="matrix(-1 0 0 1 83.3657 0)"/>
</clipPath>
</defs>
</svg>
