<svg width="88" height="81" viewBox="0 0 88 81" fill="none" xmlns="http://www.w3.org/2000/svg">
<g clip-path="url(#clip0_256_757)" filter="url(#filter0_d_256_757)">
<path d="M74.8813 67.322L74.983 37.8644L83.9999 28.7797L77.2203 17.0848L75.2542 17.0508V26.8813H65.661V17.0848L63.6949 17.0508L56.9491 28.7797L65.6949 37.6271H65.5931L65.5253 56.305L60.8474 50.7458L52.1356 48.8135V61.4237H47.8644V47.8644L45.322 47.3221L42.1355 44.1016L37.4237 49.2203L37.4576 49.3221H33.4916V49.2203L28.7797 44.1016L25.6271 47.3221L23.0848 47.8644V61.4237H18.8135V48.8135L10.1016 50.7458L4 72.6101H79.322L74.8474 67.322H74.8813Z" fill="#EF7605"/>
<path d="M35.4915 44.5084C42.6441 44.5084 48.5084 34.5424 49.9321 25.661H21.0168C22.4405 34.5763 28.3388 44.5084 35.4914 44.5084H35.4915Z" fill="#EF7605"/>
<path d="M55.0168 20.034H51.6269C51.0507 11.4577 49.288 0 35.4575 0C21.6269 0 19.8644 11.4576 19.2881 20.034H15.7627V22.5086H55.0507V20.034H55.0168Z" fill="#EF7605"/>
</g>
<defs>
<filter id="filter0_d_256_757" x="0" y="0" width="88" height="80.6101" filterUnits="userSpaceOnUse" color-interpolation-filters="sRGB">
<feFlood flood-opacity="0" result="BackgroundImageFix"/>
<feColorMatrix in="SourceAlpha" type="matrix" values="0 0 0 0 0 0 0 0 0 0 0 0 0 0 0 0 0 0 127 0" result="hardAlpha"/>
<feOffset dy="4"/>
<feGaussianBlur stdDeviation="2"/>
<feColorMatrix type="matrix" values="0 0 0 0 0 0 0 0 0 0 0 0 0 0 0 0 0 0 0.25 0"/>
<feBlend mode="normal" in2="BackgroundImageFix" result="effect1_dropShadow_256_757"/>
<feBlend mode="normal" in="SourceGraphic" in2="effect1_dropShadow_256_757" result="shape"/>
</filter>
<clipPath id="clip0_256_757">
<rect width="80" height="72.6101" fill="white" transform="translate(4)"/>
</clipPath>
</defs>
</svg>
