<svg width="75" height="55" viewBox="0 0 75 55" fill="none" xmlns="http://www.w3.org/2000/svg">
<g clip-path="url(#clip0_124_766)">
<path fill-rule="evenodd" clip-rule="evenodd" d="M67.8817 3.42442L67.1144 2.59844L44.8609 9.74071L44.6245 10.4485L28.5691 15.8199C28.0796 16.0708 27.5683 16.2673 27.0346 16.4102C26.9548 16.5407 26.8758 16.6589 26.7982 16.7648C26.3131 17.2898 25.9193 17.8801 25.6176 18.5357C24.7713 19.6785 23.9838 20.8591 23.2564 22.0774C23.0991 25.6772 23.0208 29.3169 23.0208 32.9971C23.0208 36.6571 23.0599 40.2968 23.139 43.9169L24.5552 43.8886C24.7532 43.8081 24.8322 43.5608 24.7916 43.3273C24.5161 43.3273 24.2405 43.3273 23.9649 43.3273C23.9649 36.8732 23.9649 30.4199 23.9649 23.9658C24.4769 23.9658 24.9882 23.9658 25.5001 23.9658C25.6169 27.4205 25.656 30.8832 25.6176 34.3547L74.9645 33.9979L74.9935 43.3273C72.7106 43.3469 70.5177 43.3273 68.2355 43.2678C67.2457 42.4389 66.1441 41.8291 64.9302 41.4382C64.1115 41.1945 63.2848 41.1554 62.4508 41.32C60.9105 41.5593 59.5726 42.2083 58.437 43.2678C47.9103 43.2874 37.4032 43.3469 26.9164 43.4448C26.9164 43.5238 26.9164 43.6021 26.9164 43.6812C37.108 43.9169 47.3396 43.9959 57.611 43.9169C57.6501 43.9169 57.6893 43.9169 57.7285 43.9169C57.793 43.9241 57.8322 43.9633 57.8467 44.0351C57.1867 44.8748 56.7538 45.819 56.5479 46.8683C56.4333 47.1577 56.3941 47.4724 56.4304 47.8132C46.5926 47.8132 36.7542 47.8132 26.9164 47.8132C26.9164 49.4268 26.9164 51.0395 26.9164 52.6531C27.5857 52.6531 28.2544 52.6531 28.9237 52.6531C28.9237 53.2825 28.9237 53.9127 28.9237 54.5422C26.8772 54.5422 24.8308 54.5422 22.7843 54.5422C22.7843 53.9127 22.7843 53.2825 22.7843 52.6531C23.4537 52.6531 24.1223 52.6531 24.7916 52.6531C24.8301 51.0192 24.7909 49.4057 24.6734 47.8132C22.5298 47.695 20.3652 47.6559 18.1802 47.695C17.228 40.283 7.96825 38.9066 4.84056 45.5703C4.53453 46.191 4.37717 46.8596 4.36774 47.5768C4.36774 47.616 4.36774 47.6559 4.36774 47.695C3.69913 47.695 3.02979 47.695 2.36118 47.695C2.38076 46.7494 2.36118 45.8052 2.30244 44.8618C2.25675 44.7958 2.19801 44.7566 2.12477 44.7436C1.46631 43.5441 0.77739 42.3635 0.0587394 41.2018C-0.0195798 39.3526 -0.0195798 37.5027 0.0587394 35.6535C0.271941 35.1959 0.448885 34.7238 0.590294 34.2365C0.758535 33.9986 0.836854 33.7238 0.826702 33.4105C1.26906 31.6947 1.78031 30.0022 2.36118 28.3343C2.5432 28.058 2.62152 27.7432 2.59686 27.3893C2.74262 27.1885 2.82166 26.9528 2.83327 26.6816C2.71144 25.976 2.69186 25.2675 2.77453 24.5561C2.80934 24.2696 2.94712 24.0528 3.18715 23.907C8.65716 23.828 14.1272 23.828 19.5972 23.907C19.9975 24.3334 20.1548 24.8454 20.0693 25.4415C20.0678 25.9027 20.0084 26.3552 19.8923 26.7991C19.8329 32.5055 19.8133 38.2112 19.8329 43.9169C20.0693 43.9169 20.3057 43.9169 20.5414 43.9169C20.5805 36.8333 20.5414 29.7505 20.4232 22.6677C19.7952 21.8417 19.0867 21.0941 18.2984 20.424C18.091 20.2246 18.0323 19.9889 18.1215 19.7162C18.8495 18.2412 19.5776 16.7655 20.3057 15.289C22.1455 14.6893 23.9555 14.02 25.7358 13.2817L27.271 13.0461L43.916 7.43827C44.0212 7.53544 44.0603 7.65365 44.0342 7.79216L46.0415 7.37953L68.8853 0.000854492C69.5003 0.301078 70.0514 0.694849 70.538 1.18144C70.6163 1.96826 70.6163 2.7558 70.538 3.54262C70.4952 3.79136 70.4162 4.02776 70.3016 4.25112C70.2428 6.336 70.2225 8.42161 70.2428 10.5079C70.6758 10.5079 71.108 10.5079 71.5409 10.5079C71.5605 11.178 71.5409 11.8466 71.4822 12.5145C71.2109 12.9039 70.8962 13.2578 70.538 13.5769C70.4785 13.8133 70.4198 14.0497 70.3603 14.2854C70.6613 14.925 70.7599 15.5943 70.6555 16.2927C70.0369 17.2325 69.1906 17.4885 68.1173 17.0599C67.9404 16.9279 67.7439 16.83 67.527 16.7648C67.3312 16.3783 67.2921 15.9852 67.4096 15.5842C67.5031 15.5334 67.601 15.4935 67.7047 15.466C68.1609 16.0026 68.7316 16.16 69.4161 15.9381C69.8933 14.933 69.5786 14.2839 68.472 13.9902C68.0898 13.624 67.7163 13.2498 67.3501 12.8691C67.1826 12.0954 67.1238 11.3085 67.1732 10.5079C67.5669 10.5079 67.96 10.5079 68.3538 10.5079C68.3363 8.26352 68.2776 6.02055 68.1768 3.7783C68.076 3.65212 67.9774 3.53392 67.8817 3.42442Z" fill="#EF7605"/>
<path fill-rule="evenodd" clip-rule="evenodd" d="M5.31276 35.6535C3.89577 35.6535 2.4795 35.6535 1.0625 35.6535C1.0625 35.5353 1.0625 35.4171 1.0625 35.2996C1.86165 32.6658 2.68762 30.0297 3.54188 27.3894C4.16626 27.2719 4.79644 27.2327 5.43097 27.2719C5.4694 30.0856 5.43024 32.8797 5.31276 35.6535Z" fill="#A2D9F7"/>
<path fill-rule="evenodd" clip-rule="evenodd" d="M6.37523 27.2719C9.56239 27.2719 12.7503 27.2719 15.9374 27.2719C15.9374 30.0652 15.9374 32.8593 15.9374 35.6534C12.7111 35.6534 9.48407 35.6534 6.25703 35.6534C6.21932 32.8506 6.25848 30.0565 6.37523 27.2719Z" fill="#A2D9F7"/>
<path fill-rule="evenodd" clip-rule="evenodd" d="M14.3788 28.0391C13.9532 28.005 13.5398 28.0442 13.1388 28.1566C12.6841 30.3843 12.2323 32.6077 11.7812 34.8268C12.2127 34.8862 12.6449 34.9058 13.08 34.8862C13.4376 32.5889 13.8705 30.3067 14.3788 28.0391Z" fill="#FEFEFE"/>
<path fill-rule="evenodd" clip-rule="evenodd" d="M11.4272 28.0391C11.2299 28.0391 11.0334 28.0391 10.8369 28.0391C10.3532 30.3111 9.92025 32.5932 9.53809 34.8862C9.73461 34.8862 9.93186 34.8862 10.1284 34.8862C10.5613 32.6041 10.9942 30.3213 11.4272 28.0391Z" fill="#FEFEFE"/>
<path fill-rule="evenodd" clip-rule="evenodd" d="M7.76758 34.5316C7.76758 34.6498 7.76758 34.768 7.76758 34.8862C7.92494 34.8862 8.08231 34.8862 8.23967 34.8862C8.73569 32.6113 9.20778 30.3285 9.65666 28.0391C9.42461 28.0108 9.20778 28.05 9.00691 28.1566C8.60081 30.2857 8.18746 32.4112 7.76758 34.5316Z" fill="#FEFEFE"/>
<path fill-rule="evenodd" clip-rule="evenodd" d="M68.8257 3.89653C69.1346 3.86535 69.4298 3.90451 69.7111 4.01473C69.7699 6.17866 69.7902 8.34331 69.7699 10.508C69.4551 10.508 69.1404 10.508 68.8257 10.508C68.8257 8.30415 68.8257 6.10034 68.8257 3.89653Z" fill="#FEFEFE"/>
<path fill-rule="evenodd" clip-rule="evenodd" d="M72.8395 44.0068L72.8997 47.7683C72.0738 47.7683 71.0687 47.8132 70.2427 47.8132C70.1651 46.4013 69.693 45.1424 68.8257 44.0351L72.8395 44.0068Z" fill="#EF7605"/>
<path fill-rule="evenodd" clip-rule="evenodd" d="M10.1792 41.8247C14.1206 41.6478 16.6057 43.4556 17.6362 47.2476C17.7965 51.1882 15.9719 53.6386 12.1604 54.6001C8.9805 54.8445 6.70272 53.5414 5.32924 50.6893C4.21029 47.4492 5.02756 44.8248 7.78034 42.8153C8.54395 42.3628 9.34382 42.0321 10.1792 41.8247Z" fill="#151716"/>
<path fill-rule="evenodd" clip-rule="evenodd" d="M10.1794 44.1192C12.7328 43.8211 14.4536 44.8647 15.3419 47.2476C15.6516 49.4964 14.8002 51.1128 12.7864 52.0976C10.096 52.8293 8.23666 51.9083 7.20691 49.3339C6.76455 46.7762 7.75514 45.038 10.1794 44.1192Z" fill="#F1F1F1"/>
<path fill-rule="evenodd" clip-rule="evenodd" d="M10.4918 44.7442C12.6355 44.6065 14.043 45.5448 14.716 47.5608C14.8799 49.5507 14.0285 50.8894 12.1605 51.5761C9.92403 51.9808 8.48093 51.0946 7.83262 48.9162C7.64118 46.8284 8.52807 45.4375 10.4918 44.7442Z" fill="#151716"/>
<path fill-rule="evenodd" clip-rule="evenodd" d="M11.5345 45.6833C12.251 45.687 12.512 46.0351 12.317 46.7262C11.9348 47.1431 11.5519 47.1431 11.1697 46.7262C11.0218 46.2657 11.1436 45.9176 11.5345 45.6833Z" fill="#F1F1F1"/>
<path fill-rule="evenodd" clip-rule="evenodd" d="M9.13583 47.0387C9.98138 47.0982 10.2243 47.4985 9.86608 48.2381C9.06403 48.5833 8.69927 48.3223 8.77106 47.4564C8.91465 47.3302 9.03648 47.1917 9.13583 47.0387Z" fill="#EEEEEE"/>
<path fill-rule="evenodd" clip-rule="evenodd" d="M12.7865 48.0822C13.6755 48.0656 13.9192 48.4485 13.5167 49.2295C13.218 49.3644 12.9221 49.3644 12.6298 49.2295C12.3891 48.7987 12.4413 48.4166 12.7865 48.0822Z" fill="#F7F8F7"/>
<path fill-rule="evenodd" clip-rule="evenodd" d="M10.3873 49.4376C11.375 49.4151 11.618 49.8154 11.1176 50.637C10.0661 50.7168 9.82244 50.3165 10.3873 49.4376Z" fill="#F3F3F3"/>
<path fill-rule="evenodd" clip-rule="evenodd" d="M62.2154 41.8247C66.1567 41.6478 68.6419 43.4556 69.6724 47.2476C69.8326 51.1882 68.0081 53.6386 64.1965 54.6001C61.0166 54.8445 58.7389 53.5414 57.3654 50.6893C56.2464 47.4492 57.0637 44.8248 59.8165 42.8153C60.5801 42.3628 61.38 42.0321 62.2154 41.8247Z" fill="#151716"/>
<path fill-rule="evenodd" clip-rule="evenodd" d="M62.2155 44.1192C64.7689 43.8211 66.4897 44.8647 67.3781 47.2476C67.6877 49.4964 66.8364 51.1128 64.8226 52.0976C62.1321 52.8293 60.2728 51.9083 59.243 49.3339C58.8007 46.7762 59.7913 45.038 62.2155 44.1192Z" fill="#F1F1F1"/>
<path fill-rule="evenodd" clip-rule="evenodd" d="M62.528 44.7442C64.6716 44.6065 66.0792 45.5448 66.7521 47.5608C66.916 49.5507 66.0647 50.8894 64.1966 51.5761C61.9602 51.9808 60.5171 51.0946 59.8688 48.9162C59.6773 46.8284 60.5642 45.4375 62.528 44.7442Z" fill="#151716"/>
<path fill-rule="evenodd" clip-rule="evenodd" d="M63.5706 45.6833C64.2871 45.687 64.5482 46.0351 64.3531 46.7262C63.9709 47.1431 63.588 47.1431 63.2059 46.7262C63.0579 46.2657 63.1798 45.9176 63.5706 45.6833Z" fill="#F1F1F1"/>
<path fill-rule="evenodd" clip-rule="evenodd" d="M61.172 47.0387C62.0175 47.0982 62.2604 47.4985 61.9022 48.2381C61.1002 48.5833 60.7354 48.3223 60.8072 47.4564C60.9508 47.3302 61.0726 47.1917 61.172 47.0387Z" fill="#EEEEEE"/>
<path fill-rule="evenodd" clip-rule="evenodd" d="M64.8226 48.0822C65.7117 48.0656 65.9553 48.4485 65.5529 49.2295C65.2541 49.3644 64.9582 49.3644 64.666 49.2295C64.4252 48.7987 64.4774 48.4166 64.8226 48.0822Z" fill="#F7F8F7"/>
<path fill-rule="evenodd" clip-rule="evenodd" d="M62.4235 49.4376C63.4112 49.4151 63.6548 49.8154 63.1537 50.637C62.1022 50.7168 61.8586 50.3165 62.4235 49.4376Z" fill="#F3F3F3"/>
</g>
<defs>
<clipPath id="clip0_124_766">
<rect width="74.9935" height="54.63" fill="white"/>
</clipPath>
</defs>
</svg>
