<svg width="85" height="70" viewBox="0 0 85 70" fill="none" xmlns="http://www.w3.org/2000/svg">
<path fill-rule="evenodd" clip-rule="evenodd" d="M14.3178 33.667C12.3591 33.6216 10.4076 33.7266 8.46744 33.9821C7.57613 34.1737 6.76571 34.5342 6.0362 35.0636C5.6317 35.4681 5.22578 35.8726 4.82128 36.2785C3.35941 38.2215 2.03805 40.2625 0.860037 42.3999C0.255419 44.1457 -0.0142465 45.9467 0.0496216 47.8003C-0.0227623 51.2833 0.00704283 54.7634 0.140456 58.2435C0.154649 58.7374 0.349092 59.1419 0.725205 59.4584C1.79677 60.1652 2.92227 60.3 4.10028 59.8643C5.56925 55.7313 8.49441 53.7954 12.8772 54.058C16.0692 54.8173 18.2151 56.7532 19.3137 59.8643C19.4102 59.9253 19.5152 59.9708 19.6288 59.9991C21.8031 60.0985 23.9789 60.1439 26.1561 60.134C28.031 60.1042 29.9073 60.0744 31.7822 60.0431C32.5727 57.5466 34.1637 55.7611 36.5538 54.6882C30.2224 54.6427 23.8909 54.6271 17.5594 54.6427C17.6006 48.3695 17.5552 42.0976 17.4246 35.8286C17.3891 34.7145 16.8342 34.0389 15.7583 33.8033C15.2616 33.7877 14.7819 33.7422 14.3178 33.667Z" fill="#EF7605" fill-opacity="0.976471"/>
<path fill-rule="evenodd" clip-rule="evenodd" d="M78.5933 0C76.6928 1.76418 74.8336 3.57945 73.0112 5.44582C72.9516 5.50685 72.892 5.50685 72.8324 5.44582C72.5159 5.12364 72.1553 4.86817 71.7509 4.68083C71.4414 4.8852 71.1406 5.11087 70.851 5.35641C58.0561 17.1011 45.2881 28.8783 32.5472 40.6897C32.0972 40.3888 31.6473 40.0893 31.1974 39.7899C31.152 37.0889 31.1364 34.388 31.152 31.6871C29.7114 31.6871 28.2708 31.6871 26.8317 31.6871C26.8317 32.3769 26.8317 33.0681 26.8317 33.7579C24.1904 33.7579 21.5505 33.7579 18.9092 33.7579C18.9092 35.708 18.9092 37.6581 18.9092 39.6096C20.0191 39.6096 21.1304 39.6096 22.2403 39.6096C22.2403 44.35 22.2403 49.0919 22.2403 53.8323C28.6909 53.8323 35.143 53.8323 41.5951 53.8323C41.6093 51.2223 41.5951 48.6108 41.5497 46.0007C40.5222 45.3748 39.4861 44.7588 38.4443 44.1556C49.4893 33.9452 60.5768 23.7888 71.7069 13.6834C72.2817 14.244 72.777 14.8742 73.1914 15.5739C72.6663 15.7357 72.127 15.7953 71.572 15.7541C71.572 18.5743 71.572 21.3944 71.572 24.216C72.1412 24.216 72.7117 24.216 73.2823 24.216C73.2823 26.1363 73.2823 28.0566 73.2823 29.9769C72.7117 29.9769 72.1412 29.9769 71.572 29.9769C71.572 30.5474 71.572 31.1166 71.572 31.6871C72.1412 31.6871 72.7117 31.6871 73.2823 31.6871C73.3121 37.2394 73.2823 42.7902 73.1914 48.3411C72.4917 48.5696 71.8005 48.8251 71.1207 49.1061C70.9816 49.2154 70.8766 49.3502 70.8056 49.512C70.7616 49.8725 70.7162 50.233 70.6708 50.5921C71.511 50.5921 72.3512 50.5921 73.1914 50.5921C73.2212 51.1953 73.1914 51.7942 73.102 52.3918C72.4009 52.6203 71.7111 52.8757 71.0313 53.1568C70.9234 53.2391 70.8482 53.3441 70.8056 53.4718C70.7048 53.8863 70.6608 54.3064 70.6708 54.7322C71.511 54.7322 72.3512 54.7322 73.1914 54.7322C73.2227 55.2516 73.1787 55.7612 73.0566 56.2636C72.4009 56.5815 71.7253 56.8668 71.0313 57.118C70.8524 57.2372 70.7474 57.4019 70.7162 57.6133C70.6779 57.9454 70.6339 58.2761 70.5814 58.604C71.4216 58.604 72.2618 58.604 73.102 58.604C73.1318 59.2072 73.102 59.8061 73.0112 60.4037C72.3115 60.6322 71.6217 60.8876 70.9419 61.1687C70.8326 61.251 70.7573 61.356 70.7162 61.4837C70.641 61.901 70.597 62.3211 70.5814 62.7441C71.4216 62.7441 72.2618 62.7441 73.102 62.7441C73.102 64.5452 73.102 66.3448 73.102 68.1459C73.7918 68.1459 74.4816 68.1459 75.1728 68.1459C75.1472 67.1496 75.2068 66.1589 75.3516 65.1753C76.1038 64.9113 76.839 64.6119 77.5572 64.2755C77.6807 63.7433 77.7247 63.2025 77.6934 62.6547C76.8532 62.6547 76.013 62.6547 75.1728 62.6547C75.1955 62.2629 75.2409 61.8726 75.3076 61.4837C75.3488 61.356 75.424 61.251 75.5318 61.1687C76.2117 60.8876 76.9029 60.6322 77.6026 60.4037C77.692 59.7465 77.7232 59.0866 77.6934 58.4237C76.8518 58.4379 76.0116 58.4237 75.1728 58.3783C75.2366 58.0334 75.3119 57.6886 75.397 57.3437C75.4722 57.2684 75.5475 57.1932 75.6227 57.118C76.3139 56.8682 76.9895 56.5829 77.648 56.2636C77.7658 55.7299 77.8098 55.1892 77.7828 54.6427C76.9426 54.6427 76.1024 54.6427 75.2622 54.6427C75.2324 54.1503 75.3218 53.6847 75.5318 53.2476C76.2415 52.8913 76.9767 52.6061 77.7374 52.3918C77.7828 51.7332 77.7985 51.0718 77.7828 50.4118C76.9426 50.4118 76.1024 50.4118 75.2622 50.4118C75.3119 50.1138 75.3559 49.8129 75.397 49.512C75.468 49.3502 75.573 49.2154 75.7121 49.1061C76.4061 48.8549 77.0817 48.5696 77.7374 48.2517C77.7828 47.7123 77.7985 47.1716 77.7828 46.6308C76.9426 46.6308 76.1024 46.6308 75.2622 46.6308C75.2622 41.6491 75.2622 36.6688 75.2622 31.6871C75.8327 31.6871 76.4019 31.6871 76.9724 31.6871C76.9724 31.0868 76.9724 30.4864 76.9724 29.8875C76.4019 29.8875 75.8327 29.8875 75.2622 29.8875C75.2622 27.9672 75.2622 26.0454 75.2622 24.1251C75.8327 24.1251 76.4019 24.1251 76.9724 24.1251C77.0022 21.3348 76.9724 18.5431 76.883 15.7541C76.4487 15.7243 76.0428 15.6037 75.6667 15.3936C74.9883 14.139 74.3425 12.8645 73.7322 11.5672C74.2119 11.1471 74.6916 10.727 75.1728 10.3069C75.6127 9.91234 76.003 9.47803 76.3423 9.00257C76.1436 8.57678 75.8583 8.2177 75.4878 7.92249C75.4268 7.86146 75.4268 7.80185 75.4878 7.74224C75.8668 7.3349 76.2713 6.96021 76.7028 6.61674C76.8163 6.52874 76.9355 6.49752 77.0633 6.52591C78.4882 7.83165 79.8536 9.19701 81.1579 10.622C81.2189 10.7128 81.2189 10.8022 81.1579 10.8931C80.0409 12.2215 79.8607 13.6607 80.6186 15.2134C80.8783 15.6236 81.2232 15.9387 81.6532 16.1586C82.4637 16.2183 83.2741 16.2183 84.0845 16.1586C84.2789 16.0834 84.4138 15.9486 84.489 15.7541C84.9971 14.5336 85.1177 13.2732 84.8495 11.9731C84.5259 10.8221 84.1654 9.68099 83.7694 8.55266C82.2664 7.07943 80.796 5.57924 79.3583 4.05066C79.2986 3.99105 79.2986 3.93144 79.3583 3.87041C79.8692 3.37508 80.3645 2.86413 80.8428 2.34041C80.1516 1.49877 79.4023 0.719581 78.5933 0ZM83.0044 9.36165C82.6155 9.55609 82.3302 9.85557 82.1486 10.2629C81.8278 10.9243 81.5425 11.5999 81.2942 12.2882C82.2224 12.3734 83.152 12.4188 84.0845 12.4231C83.8134 11.3685 83.4529 10.3495 83.0044 9.36165ZM26.7408 39.6096C26.0511 39.6096 25.3613 39.6096 24.6701 39.6096C24.6701 41.6789 24.6701 43.7497 24.6701 45.8204C25.3613 45.8204 26.0511 45.8204 26.7408 45.8204C26.7408 43.7497 26.7408 41.6789 26.7408 39.6096Z" fill="#EF7605" fill-opacity="0.980392"/>
<path fill-rule="evenodd" clip-rule="evenodd" d="M73.2825 24.2159C73.2825 26.1362 73.2825 28.0565 73.2825 29.9769C72.7119 29.9769 72.1413 29.9769 71.5722 29.9769C71.5722 30.5474 71.5722 31.1165 71.5722 31.6871C72.1413 31.6871 72.7119 31.6871 73.2825 31.6871C73.3123 37.2394 73.2825 42.7902 73.1916 48.3411C72.4919 48.5696 71.8007 48.825 71.1209 49.1061C70.9818 49.2154 70.8768 49.3502 70.8058 49.512C70.7618 49.8725 70.7164 50.233 70.671 50.5921C71.5112 50.5921 72.3514 50.5921 73.1916 50.5921C73.2214 51.1953 73.1916 51.7942 73.1022 52.3917C72.4011 52.6202 71.7113 52.8757 71.0315 53.1567C70.9236 53.239 70.8484 53.3441 70.8058 53.4718C70.705 53.8862 70.661 54.3064 70.671 54.7321C71.5112 54.7321 72.3514 54.7321 73.1916 54.7321C73.2228 55.2516 73.1788 55.7611 73.0568 56.2636C72.4011 56.5815 71.7255 56.8668 71.0315 57.118C70.8526 57.2372 70.7476 57.4018 70.7164 57.6133C70.6781 57.9454 70.6341 58.2761 70.5815 58.604C71.4218 58.604 72.262 58.604 73.1022 58.604C73.132 59.2072 73.1022 59.8061 73.0114 60.4036C72.3117 60.6321 71.6219 60.8876 70.942 61.1686C70.8328 61.251 70.7575 61.356 70.7164 61.4837C70.6412 61.901 70.5972 62.3211 70.5815 62.744C71.4218 62.744 72.262 62.744 73.1022 62.744C73.1022 64.5451 73.1022 66.3448 73.1022 68.1459C73.792 68.1459 74.4818 68.1459 75.173 68.1459C75.1474 67.1495 75.207 66.1603 75.3518 65.1753C76.104 64.9113 76.8392 64.6118 77.5574 64.274C77.6808 63.7432 77.7248 63.2025 77.6936 62.6546C76.8534 62.6546 76.0132 62.6546 75.173 62.6546C75.1957 62.2629 75.2411 61.8726 75.3078 61.4837C75.3489 61.356 75.4242 61.251 75.532 61.1686C76.2119 60.8876 76.9031 60.6321 77.6028 60.4036C77.6922 59.7465 77.7234 59.0865 77.6936 58.4237C76.852 58.4379 76.0118 58.4237 75.173 58.3783C75.2368 58.0334 75.312 57.6885 75.3972 57.3436C75.4724 57.2684 75.5476 57.1932 75.6229 57.118C76.3141 56.8682 76.9896 56.5829 77.6482 56.2636C77.766 55.7299 77.81 55.1892 77.783 54.6427C76.9428 54.6427 76.1026 54.6427 75.2624 54.6427C75.2326 54.1502 75.322 53.6847 75.532 53.2476C76.2417 52.8913 76.9769 52.606 77.7376 52.3917C77.783 51.7332 77.7986 51.0718 77.783 50.4118C76.9428 50.4118 76.1026 50.4118 75.2624 50.4118C75.312 50.1138 75.356 49.8129 75.3972 49.512C75.4682 49.3502 75.5732 49.2154 75.7123 49.1061C76.4063 48.8549 77.0819 48.5696 77.7376 48.2517C77.783 47.7123 77.7986 47.1716 77.783 46.6308C76.9428 46.6308 76.1026 46.6308 75.2624 46.6308C75.2624 41.6491 75.2624 36.6688 75.2624 31.6871C75.8329 31.6871 76.4021 31.6871 76.9726 31.6871C76.9726 31.0867 76.9726 30.4864 76.9726 29.8874C76.4021 29.8874 75.8329 29.8874 75.2624 29.8874V24.2159H73.2825Z" fill="#2B2A29" fill-opacity="0.980392"/>
<path fill-rule="evenodd" clip-rule="evenodd" d="M83.1845 16.5631C82.7871 16.539 82.3982 16.5688 82.0135 16.654C81.6062 17.5552 81.1421 18.4252 80.6184 19.264C80.2834 20.1752 80.4779 20.9402 81.2031 21.5605C82.103 21.7379 83.0028 21.7379 83.904 21.5605C84.3341 21.1659 84.3653 20.7302 83.9934 20.2547C83.816 20.1752 83.6358 20.1894 83.4541 20.3001C83.1845 20.3597 82.9134 20.3597 82.6437 20.3001C82.4124 20.2036 82.2633 20.039 82.1938 19.8048C82.5202 19.0327 82.8949 18.2819 83.3193 17.5538C83.4073 17.1961 83.3633 16.8669 83.1845 16.5631Z" fill="#2B2A29" fill-opacity="0.92549"/>
<path fill-rule="evenodd" clip-rule="evenodd" d="M14.9478 37.089C12.5776 37.0734 10.2074 37.089 7.83719 37.133C6.26461 39.6323 4.6594 42.1076 3.02011 44.5601C2.97611 45.67 2.9605 46.7799 2.97611 47.8912C6.96574 47.8912 10.9568 47.8912 14.9478 47.8912C14.9478 44.2905 14.9478 40.6897 14.9478 37.089Z" fill="#A2D9F7" fill-opacity="0.976471"/>
<path fill-rule="evenodd" clip-rule="evenodd" d="M67.3411 45.8204C66.7408 45.8204 66.1404 45.8204 65.54 45.8204C65.54 48.4915 65.54 51.1612 65.54 53.8323C66.1404 53.8323 66.7408 53.8323 67.3411 53.8323C67.3411 51.1612 67.3411 48.4915 67.3411 45.8204Z" fill="#EF7605" fill-opacity="0.909804"/>
<path fill-rule="evenodd" clip-rule="evenodd" d="M64.3689 45.8204C63.7998 45.8204 63.2292 45.8204 62.6587 45.8204C62.6587 48.4915 62.6587 51.1612 62.6587 53.8323C63.2292 53.8323 63.7998 53.8323 64.3689 53.8323C64.3689 51.1612 64.3689 48.4915 64.3689 45.8204Z" fill="#EF7605" fill-opacity="0.956863"/>
<path fill-rule="evenodd" clip-rule="evenodd" d="M48.9757 54.5519C46.7545 54.5221 44.5347 54.5519 42.3149 54.6428C44.4623 55.6959 46.0079 57.3153 46.9503 59.5038C47.9467 57.3678 49.4909 55.7626 51.5872 54.6882C50.7015 54.6726 49.8315 54.6271 48.9757 54.5519Z" fill="#EF7605" fill-opacity="0.92549"/>
<path fill-rule="evenodd" clip-rule="evenodd" d="M67.611 54.6427C64.2501 54.6271 60.8892 54.6427 57.5283 54.6881C59.8687 55.7512 61.4285 57.5069 62.2091 59.9537C64.4289 60.0587 66.6501 60.0743 68.8713 59.9991C69.7626 59.1845 70.0777 58.1796 69.8166 56.9831C69.5739 55.7072 68.8387 54.9266 67.611 54.6427Z" fill="#EF7605" fill-opacity="0.972549"/>
<path fill-rule="evenodd" clip-rule="evenodd" d="M13.5285 39.7075C13.0913 39.6721 12.6656 39.7118 12.2525 39.8282C11.7856 42.1218 11.3201 44.4097 10.856 46.6933C11.3002 46.7543 11.7444 46.7742 12.1929 46.7543C12.5605 44.3898 13.0062 42.0409 13.5285 39.7075Z" fill="#FEFEFE"/>
<path fill-rule="evenodd" clip-rule="evenodd" d="M10.4913 39.7075C10.2883 39.7075 10.0868 39.7075 9.88385 39.7075C9.38568 42.0451 8.94002 44.394 8.54688 46.7543C8.74983 46.7543 8.95279 46.7543 9.15433 46.7543C9.59999 44.4054 10.0456 42.0564 10.4913 39.7075Z" fill="#FEFEFE"/>
<path fill-rule="evenodd" clip-rule="evenodd" d="M6.72461 46.3896C6.72461 46.5116 6.72461 46.6323 6.72461 46.7543C6.88641 46.7543 7.04963 46.7543 7.21143 46.7543C7.72095 44.4125 8.20635 42.0636 8.66904 39.7075C8.4306 39.6777 8.20777 39.7189 8.00055 39.8282C7.58186 42.0196 7.15749 44.2067 6.72461 46.3896Z" fill="#FEFEFE"/>
<path d="M76.958 22.1424H71.5718V24.2146H76.958V22.1424Z" fill="#EF7605"/>
<path fill-rule="evenodd" clip-rule="evenodd" d="M10.494 55.8406C14.5504 55.6589 17.1093 57.5182 18.1695 61.4213C18.3342 65.4776 16.4565 67.9997 12.5335 68.9889C9.26065 69.2402 6.91598 67.8989 5.50237 64.9638C4.35132 61.6299 5.19154 58.9276 8.02587 56.8597C8.81074 56.3941 9.63393 56.0535 10.494 55.8406Z" fill="#151716"/>
<path fill-rule="evenodd" clip-rule="evenodd" d="M10.4942 58.2009C13.1227 57.8957 14.894 58.9687 15.808 61.4213C16.126 63.7361 15.2503 65.3995 13.1781 66.4129C10.4091 67.1665 8.49443 66.2185 7.43564 63.5686C6.98005 60.9359 7.9991 59.1475 10.4942 58.2009Z" fill="#F1F1F1"/>
<path fill-rule="evenodd" clip-rule="evenodd" d="M10.816 58.8452C13.0216 58.7033 14.4707 59.6698 15.1633 61.7434C15.3322 63.7915 14.4551 65.1696 12.5334 65.8764C10.2313 66.2937 8.74669 65.3811 8.0782 63.1386C7.88234 60.9898 8.79494 59.5591 10.816 58.8452Z" fill="#151716"/>
<path fill-rule="evenodd" clip-rule="evenodd" d="M11.8893 59.8118C12.6273 59.8161 12.8955 60.1737 12.694 60.8848C12.3009 61.3149 11.9077 61.3149 11.5132 60.8848C11.3613 60.4108 11.4862 60.0531 11.8893 59.8118Z" fill="#F1F1F1"/>
<path fill-rule="evenodd" clip-rule="evenodd" d="M9.42086 61.207C10.2909 61.268 10.5407 61.6796 10.1717 62.4418C9.34564 62.7966 8.97095 62.5283 9.04475 61.637C9.19236 61.5064 9.31726 61.3645 9.42086 61.207Z" fill="#EEEEEE"/>
<path fill-rule="evenodd" clip-rule="evenodd" d="M13.178 62.2799C14.092 62.2643 14.3432 62.6575 13.9288 63.4608C13.6208 63.5999 13.3171 63.5999 13.0162 63.4608C12.7693 63.018 12.8218 62.6248 13.178 62.2799Z" fill="#F7F8F7"/>
<path fill-rule="evenodd" clip-rule="evenodd" d="M10.7086 63.6765C11.7248 63.6524 11.976 64.064 11.4608 64.9099C10.3779 64.9922 10.1281 64.5806 10.7086 63.6765Z" fill="#F3F3F3"/>
<path fill-rule="evenodd" clip-rule="evenodd" d="M38.3208 55.8406C42.3772 55.6589 44.9347 57.5182 45.995 61.4213C46.161 65.4776 44.2819 67.9997 40.3604 68.9889C37.0861 69.2402 34.7428 67.8989 33.3292 64.9638C32.1767 61.6299 33.0184 58.9276 35.8513 56.8597C36.6376 56.3941 37.4608 56.0535 38.3208 55.8406Z" fill="#151716"/>
<path fill-rule="evenodd" clip-rule="evenodd" d="M38.3208 58.2009C40.9493 57.8957 42.7191 58.9687 43.6332 61.4213C43.9525 63.7361 43.0768 65.3995 41.0032 66.4129C38.2356 67.1665 36.321 66.2185 35.2608 63.5686C34.8066 60.9359 35.8256 59.1475 38.3208 58.2009Z" fill="#F1F1F1"/>
<path fill-rule="evenodd" clip-rule="evenodd" d="M38.6432 58.8452C40.8487 58.7033 42.2978 59.6698 42.9905 61.7434C43.1594 63.7915 42.2822 65.1696 40.3605 65.8764C38.0584 66.2937 36.5724 65.3811 35.9054 63.1386C35.7095 60.9898 36.6221 59.5591 38.6432 58.8452Z" fill="#151716"/>
<path fill-rule="evenodd" clip-rule="evenodd" d="M39.7159 59.8118C40.4525 59.8161 40.7222 60.1737 40.5207 60.8848C40.1275 61.3149 39.7344 61.3149 39.3398 60.8848C39.1879 60.4108 39.3128 60.0531 39.7159 59.8118Z" fill="#F1F1F1"/>
<path fill-rule="evenodd" clip-rule="evenodd" d="M37.2466 61.207C38.1166 61.268 38.3678 61.6796 37.9988 62.4418C37.1728 62.7966 36.7981 62.5283 36.8719 61.637C37.0195 61.5064 37.1444 61.3645 37.2466 61.207Z" fill="#EEEEEE"/>
<path fill-rule="evenodd" clip-rule="evenodd" d="M41.0035 62.2799C41.9189 62.2643 42.1701 62.6575 41.7557 63.4608C41.4477 63.5999 41.144 63.5999 40.8431 63.4608C40.5947 63.018 40.6486 62.6248 41.0035 62.2799Z" fill="#F7F8F7"/>
<path fill-rule="evenodd" clip-rule="evenodd" d="M38.5349 63.6765C39.5511 63.6524 39.8024 64.064 39.2857 64.9099C38.2042 64.9922 37.953 64.5806 38.5349 63.6765Z" fill="#F3F3F3"/>
<path fill-rule="evenodd" clip-rule="evenodd" d="M53.388 55.8406C57.4458 55.6589 60.0034 57.5182 61.0636 61.4213C61.2282 65.4776 59.3505 67.9997 55.4276 68.9889C52.1547 69.2402 49.8114 67.8989 48.3978 64.9638C47.2453 61.6299 48.0856 58.9276 50.9199 56.8597C51.7062 56.3941 52.5279 56.0535 53.388 55.8406Z" fill="#151716"/>
<path fill-rule="evenodd" clip-rule="evenodd" d="M53.3882 58.2009C56.0167 57.8957 57.788 58.9687 58.702 61.4213C59.0213 63.7361 58.1442 65.3995 56.0721 66.4129C53.303 67.1665 51.3884 66.2185 50.3296 63.5686C49.874 60.9359 50.8945 59.1475 53.3882 58.2009Z" fill="#F1F1F1"/>
<path fill-rule="evenodd" clip-rule="evenodd" d="M53.7104 58.8452C55.916 58.7033 57.3651 59.6698 58.0577 61.7434C58.2266 63.7915 57.3509 65.1696 55.4278 65.8764C53.1257 66.2937 51.6411 65.3811 50.9741 63.1386C50.7768 60.9898 51.6894 59.5591 53.7104 58.8452Z" fill="#151716"/>
<path fill-rule="evenodd" clip-rule="evenodd" d="M54.783 59.8118C55.5211 59.8161 55.7893 60.1737 55.5892 60.8848C55.1946 61.3149 54.8015 61.3149 54.4083 60.8848C54.255 60.4108 54.3814 60.0531 54.783 59.8118Z" fill="#F1F1F1"/>
<path fill-rule="evenodd" clip-rule="evenodd" d="M52.3149 61.207C53.1849 61.268 53.4347 61.6796 53.0657 62.4418C52.2411 62.7966 51.865 62.5283 51.9388 61.637C52.0864 61.5064 52.2127 61.3645 52.3149 61.207Z" fill="#EEEEEE"/>
<path fill-rule="evenodd" clip-rule="evenodd" d="M56.0718 62.2799C56.9873 62.2643 57.2371 62.6575 56.8226 63.4608C56.5161 63.5999 56.2109 63.5999 55.9114 63.4608C55.6631 63.018 55.717 62.6248 56.0718 62.2799Z" fill="#F7F8F7"/>
<path fill-rule="evenodd" clip-rule="evenodd" d="M53.6036 63.6765C54.6198 63.6524 54.8696 64.064 54.3544 64.9099C53.2715 64.9922 53.0217 64.5806 53.6036 63.6765Z" fill="#F3F3F3"/>
</svg>
